%TF.GenerationSoftware,KiCad,Pcbnew,10.0.6*%
%TF.CreationDate,2026-10-05T21:51:06+02:00*%
%TF.ProjectId,UFI_Headless,5546495f-4865-4616-946c-6573732e6b69,rev?*%
%TF.SameCoordinates,Original*%
%TF.FileFunction,Legend,Top*%
%TF.FilePolarity,Positive*%
%FSLAX46Y46*%
G04 Gerber Fmt 4.6, Leading zero omitted, Abs format (unit mm)*
G04 Created by KiCad (PCBNEW 10.0.6) date 2026-10-05 21:51:06*
%MOMM*%
%LPD*%
G01*
G04 APERTURE LIST*
G04 Aperture macros list*
%AMRoundRect*
0 Rectangle with rounded corners*
0 $1 Rounding radius*
0 $2 $3 $4 $5 $6 $7 $8 $9 X,Y pos of 4 corners*
0 Add a 4 corners polygon primitive as box body*
4,1,4,$2,$3,$4,$5,$6,$7,$8,$9,$2,$3,0*
0 Add four circle primitives for the rounded corners*
1,1,$1+$1,$2,$3*
1,1,$1+$1,$4,$5*
1,1,$1+$1,$6,$7*
1,1,$1+$1,$8,$9*
0 Add four rect primitives between the rounded corners*
20,1,$1+$1,$2,$3,$4,$5,0*
20,1,$1+$1,$4,$5,$6,$7,0*
20,1,$1+$1,$6,$7,$8,$9,0*
20,1,$1+$1,$8,$9,$2,$3,0*%
G04 Aperture macros list end*
%ADD10C,0.120000*%
%ADD11C,0.150000*%
%ADD12RoundRect,0.225000X-0.225000X-0.250000X0.225000X-0.250000X0.225000X0.250000X-0.225000X0.250000X0*%
%ADD13RoundRect,0.200000X0.275000X-0.200000X0.275000X0.200000X-0.275000X0.200000X-0.275000X-0.200000X0*%
%ADD14RoundRect,0.225000X0.225000X0.250000X-0.225000X0.250000X-0.225000X-0.250000X0.225000X-0.250000X0*%
%ADD15RoundRect,0.250000X-0.250000X-0.475000X0.250000X-0.475000X0.250000X0.475000X-0.250000X0.475000X0*%
%ADD16RoundRect,0.225000X0.250000X-0.225000X0.250000X0.225000X-0.250000X0.225000X-0.250000X-0.225000X0*%
%ADD17RoundRect,0.050000X-0.285000X-0.100000X0.285000X-0.100000X0.285000X0.100000X-0.285000X0.100000X0*%
%ADD18RoundRect,0.150000X0.150000X-0.825000X0.150000X0.825000X-0.150000X0.825000X-0.150000X-0.825000X0*%
%ADD19R,0.800000X0.500000*%
%ADD20R,0.800000X0.400000*%
%ADD21RoundRect,0.200000X-0.200000X-0.275000X0.200000X-0.275000X0.200000X0.275000X-0.200000X0.275000X0*%
%ADD22C,0.800000*%
%ADD23C,6.400000*%
%ADD24R,1.700000X1.000000*%
%ADD25RoundRect,0.218750X-0.218750X-0.256250X0.218750X-0.256250X0.218750X0.256250X-0.218750X0.256250X0*%
%ADD26R,1.700000X1.700000*%
%ADD27C,1.700000*%
%ADD28RoundRect,0.250000X0.650000X-0.325000X0.650000X0.325000X-0.650000X0.325000X-0.650000X-0.325000X0*%
%ADD29RoundRect,0.250000X-0.325000X-0.650000X0.325000X-0.650000X0.325000X0.650000X-0.325000X0.650000X0*%
%ADD30RoundRect,0.150000X0.512500X0.150000X-0.512500X0.150000X-0.512500X-0.150000X0.512500X-0.150000X0*%
%ADD31RoundRect,0.250000X0.600000X-0.600000X0.600000X0.600000X-0.600000X0.600000X-0.600000X-0.600000X0*%
%ADD32RoundRect,0.225000X-0.250000X0.225000X-0.250000X-0.225000X0.250000X-0.225000X0.250000X0.225000X0*%
%ADD33RoundRect,0.375000X-0.625000X-0.375000X0.625000X-0.375000X0.625000X0.375000X-0.625000X0.375000X0*%
%ADD34RoundRect,0.500000X-0.500000X-1.400000X0.500000X-1.400000X0.500000X1.400000X-0.500000X1.400000X0*%
%ADD35RoundRect,0.250000X-1.950000X-1.000000X1.950000X-1.000000X1.950000X1.000000X-1.950000X1.000000X0*%
%ADD36RoundRect,0.250000X0.475000X-0.250000X0.475000X0.250000X-0.475000X0.250000X-0.475000X-0.250000X0*%
%ADD37RoundRect,0.150000X-0.825000X-0.150000X0.825000X-0.150000X0.825000X0.150000X-0.825000X0.150000X0*%
%ADD38R,2.350000X5.100000*%
%ADD39RoundRect,0.200000X0.200000X0.275000X-0.200000X0.275000X-0.200000X-0.275000X0.200000X-0.275000X0*%
%ADD40RoundRect,0.150000X-0.512500X-0.150000X0.512500X-0.150000X0.512500X0.150000X-0.512500X0.150000X0*%
%ADD41R,3.500000X3.500000*%
%ADD42RoundRect,0.750000X-1.000000X0.750000X-1.000000X-0.750000X1.000000X-0.750000X1.000000X0.750000X0*%
%ADD43RoundRect,0.875000X-0.875000X0.875000X-0.875000X-0.875000X0.875000X-0.875000X0.875000X0.875000X0*%
%ADD44RoundRect,0.250000X-0.350000X0.450000X-0.350000X-0.450000X0.350000X-0.450000X0.350000X0.450000X0*%
%ADD45RoundRect,0.075000X-0.662500X-0.075000X0.662500X-0.075000X0.662500X0.075000X-0.662500X0.075000X0*%
%ADD46RoundRect,0.075000X-0.075000X-0.662500X0.075000X-0.662500X0.075000X0.662500X-0.075000X0.662500X0*%
%ADD47RoundRect,0.250000X1.450000X-0.312500X1.450000X0.312500X-1.450000X0.312500X-1.450000X-0.312500X0*%
%ADD48RoundRect,0.250000X1.000000X-1.400000X1.000000X1.400000X-1.000000X1.400000X-1.000000X-1.400000X0*%
%ADD49C,0.650000*%
%ADD50RoundRect,0.150000X-0.150000X-0.575000X0.150000X-0.575000X0.150000X0.575000X-0.150000X0.575000X0*%
%ADD51RoundRect,0.075000X-0.075000X-0.650000X0.075000X-0.650000X0.075000X0.650000X-0.075000X0.650000X0*%
%ADD52O,1.000000X2.100000*%
%ADD53O,1.000000X1.600000*%
%ADD54RoundRect,0.250000X0.650000X-1.000000X0.650000X1.000000X-0.650000X1.000000X-0.650000X-1.000000X0*%
%ADD55RoundRect,0.250000X0.450000X-0.400000X0.450000X0.400000X-0.450000X0.400000X-0.450000X-0.400000X0*%
%ADD56R,1.000000X1.000000*%
%ADD57C,1.000000*%
G04 APERTURE END LIST*
D10*
X3752380Y-60444807D02*
X3485714Y-60444807D01*
X3485714Y-60863855D02*
X3485714Y-60063855D01*
X3485714Y-60063855D02*
X3866666Y-60063855D01*
X4171428Y-60863855D02*
X4171428Y-60063855D01*
X4171428Y-60063855D02*
X4361904Y-60063855D01*
X4361904Y-60063855D02*
X4476190Y-60101950D01*
X4476190Y-60101950D02*
X4552380Y-60178140D01*
X4552380Y-60178140D02*
X4590475Y-60254331D01*
X4590475Y-60254331D02*
X4628571Y-60406712D01*
X4628571Y-60406712D02*
X4628571Y-60520998D01*
X4628571Y-60520998D02*
X4590475Y-60673379D01*
X4590475Y-60673379D02*
X4552380Y-60749569D01*
X4552380Y-60749569D02*
X4476190Y-60825760D01*
X4476190Y-60825760D02*
X4361904Y-60863855D01*
X4361904Y-60863855D02*
X4171428Y-60863855D01*
X4971428Y-60863855D02*
X4971428Y-60063855D01*
X4971428Y-60063855D02*
X5161904Y-60063855D01*
X5161904Y-60063855D02*
X5276190Y-60101950D01*
X5276190Y-60101950D02*
X5352380Y-60178140D01*
X5352380Y-60178140D02*
X5390475Y-60254331D01*
X5390475Y-60254331D02*
X5428571Y-60406712D01*
X5428571Y-60406712D02*
X5428571Y-60520998D01*
X5428571Y-60520998D02*
X5390475Y-60673379D01*
X5390475Y-60673379D02*
X5352380Y-60749569D01*
X5352380Y-60749569D02*
X5276190Y-60825760D01*
X5276190Y-60825760D02*
X5161904Y-60863855D01*
X5161904Y-60863855D02*
X4971428Y-60863855D01*
X6380952Y-60863855D02*
X6380952Y-60063855D01*
X6380952Y-60063855D02*
X6685714Y-60063855D01*
X6685714Y-60063855D02*
X6761904Y-60101950D01*
X6761904Y-60101950D02*
X6799999Y-60140045D01*
X6799999Y-60140045D02*
X6838095Y-60216236D01*
X6838095Y-60216236D02*
X6838095Y-60330521D01*
X6838095Y-60330521D02*
X6799999Y-60406712D01*
X6799999Y-60406712D02*
X6761904Y-60444807D01*
X6761904Y-60444807D02*
X6685714Y-60482902D01*
X6685714Y-60482902D02*
X6380952Y-60482902D01*
X7104761Y-60063855D02*
X7295237Y-60863855D01*
X7295237Y-60863855D02*
X7447618Y-60292426D01*
X7447618Y-60292426D02*
X7599999Y-60863855D01*
X7599999Y-60863855D02*
X7790476Y-60063855D01*
X8552381Y-60863855D02*
X8285714Y-60482902D01*
X8095238Y-60863855D02*
X8095238Y-60063855D01*
X8095238Y-60063855D02*
X8400000Y-60063855D01*
X8400000Y-60063855D02*
X8476190Y-60101950D01*
X8476190Y-60101950D02*
X8514285Y-60140045D01*
X8514285Y-60140045D02*
X8552381Y-60216236D01*
X8552381Y-60216236D02*
X8552381Y-60330521D01*
X8552381Y-60330521D02*
X8514285Y-60406712D01*
X8514285Y-60406712D02*
X8476190Y-60444807D01*
X8476190Y-60444807D02*
X8400000Y-60482902D01*
X8400000Y-60482902D02*
X8095238Y-60482902D01*
D11*
X93090476Y-31362295D02*
X93090476Y-30562295D01*
X93471428Y-30943247D02*
X93738094Y-30943247D01*
X93852380Y-31362295D02*
X93471428Y-31362295D01*
X93471428Y-31362295D02*
X93471428Y-30562295D01*
X93471428Y-30562295D02*
X93852380Y-30562295D01*
X94652381Y-31286104D02*
X94614285Y-31324200D01*
X94614285Y-31324200D02*
X94500000Y-31362295D01*
X94500000Y-31362295D02*
X94423809Y-31362295D01*
X94423809Y-31362295D02*
X94309523Y-31324200D01*
X94309523Y-31324200D02*
X94233333Y-31248009D01*
X94233333Y-31248009D02*
X94195238Y-31171819D01*
X94195238Y-31171819D02*
X94157142Y-31019438D01*
X94157142Y-31019438D02*
X94157142Y-30905152D01*
X94157142Y-30905152D02*
X94195238Y-30752771D01*
X94195238Y-30752771D02*
X94233333Y-30676580D01*
X94233333Y-30676580D02*
X94309523Y-30600390D01*
X94309523Y-30600390D02*
X94423809Y-30562295D01*
X94423809Y-30562295D02*
X94500000Y-30562295D01*
X94500000Y-30562295D02*
X94614285Y-30600390D01*
X94614285Y-30600390D02*
X94652381Y-30638485D01*
X96023809Y-31362295D02*
X95566666Y-31362295D01*
X95795238Y-31362295D02*
X95795238Y-30562295D01*
X95795238Y-30562295D02*
X95719047Y-30676580D01*
X95719047Y-30676580D02*
X95642857Y-30752771D01*
X95642857Y-30752771D02*
X95566666Y-30790866D01*
X96366667Y-30943247D02*
X96976191Y-30943247D01*
X96976191Y-31171819D02*
X96366667Y-31171819D01*
X97319047Y-31324200D02*
X97433333Y-31362295D01*
X97433333Y-31362295D02*
X97623809Y-31362295D01*
X97623809Y-31362295D02*
X97700000Y-31324200D01*
X97700000Y-31324200D02*
X97738095Y-31286104D01*
X97738095Y-31286104D02*
X97776190Y-31209914D01*
X97776190Y-31209914D02*
X97776190Y-31133723D01*
X97776190Y-31133723D02*
X97738095Y-31057533D01*
X97738095Y-31057533D02*
X97700000Y-31019438D01*
X97700000Y-31019438D02*
X97623809Y-30981342D01*
X97623809Y-30981342D02*
X97471428Y-30943247D01*
X97471428Y-30943247D02*
X97395238Y-30905152D01*
X97395238Y-30905152D02*
X97357143Y-30867057D01*
X97357143Y-30867057D02*
X97319047Y-30790866D01*
X97319047Y-30790866D02*
X97319047Y-30714676D01*
X97319047Y-30714676D02*
X97357143Y-30638485D01*
X97357143Y-30638485D02*
X97395238Y-30600390D01*
X97395238Y-30600390D02*
X97471428Y-30562295D01*
X97471428Y-30562295D02*
X97661905Y-30562295D01*
X97661905Y-30562295D02*
X97776190Y-30600390D01*
X98576191Y-31362295D02*
X98309524Y-30981342D01*
X98119048Y-31362295D02*
X98119048Y-30562295D01*
X98119048Y-30562295D02*
X98423810Y-30562295D01*
X98423810Y-30562295D02*
X98500000Y-30600390D01*
X98500000Y-30600390D02*
X98538095Y-30638485D01*
X98538095Y-30638485D02*
X98576191Y-30714676D01*
X98576191Y-30714676D02*
X98576191Y-30828961D01*
X98576191Y-30828961D02*
X98538095Y-30905152D01*
X98538095Y-30905152D02*
X98500000Y-30943247D01*
X98500000Y-30943247D02*
X98423810Y-30981342D01*
X98423810Y-30981342D02*
X98119048Y-30981342D01*
X99452381Y-31438485D02*
X99376191Y-31400390D01*
X99376191Y-31400390D02*
X99300000Y-31324200D01*
X99300000Y-31324200D02*
X99185714Y-31209914D01*
X99185714Y-31209914D02*
X99109524Y-31171819D01*
X99109524Y-31171819D02*
X99033333Y-31171819D01*
X99071429Y-31362295D02*
X98995238Y-31324200D01*
X98995238Y-31324200D02*
X98919048Y-31248009D01*
X98919048Y-31248009D02*
X98880952Y-31095628D01*
X98880952Y-31095628D02*
X98880952Y-30828961D01*
X98880952Y-30828961D02*
X98919048Y-30676580D01*
X98919048Y-30676580D02*
X98995238Y-30600390D01*
X98995238Y-30600390D02*
X99071429Y-30562295D01*
X99071429Y-30562295D02*
X99223810Y-30562295D01*
X99223810Y-30562295D02*
X99300000Y-30600390D01*
X99300000Y-30600390D02*
X99376191Y-30676580D01*
X99376191Y-30676580D02*
X99414286Y-30828961D01*
X99414286Y-30828961D02*
X99414286Y-31095628D01*
X99414286Y-31095628D02*
X99376191Y-31248009D01*
X99376191Y-31248009D02*
X99300000Y-31324200D01*
X99300000Y-31324200D02*
X99223810Y-31362295D01*
X99223810Y-31362295D02*
X99071429Y-31362295D01*
X100709524Y-30562295D02*
X100557143Y-30562295D01*
X100557143Y-30562295D02*
X100480952Y-30600390D01*
X100480952Y-30600390D02*
X100442857Y-30638485D01*
X100442857Y-30638485D02*
X100366667Y-30752771D01*
X100366667Y-30752771D02*
X100328571Y-30905152D01*
X100328571Y-30905152D02*
X100328571Y-31209914D01*
X100328571Y-31209914D02*
X100366667Y-31286104D01*
X100366667Y-31286104D02*
X100404762Y-31324200D01*
X100404762Y-31324200D02*
X100480952Y-31362295D01*
X100480952Y-31362295D02*
X100633333Y-31362295D01*
X100633333Y-31362295D02*
X100709524Y-31324200D01*
X100709524Y-31324200D02*
X100747619Y-31286104D01*
X100747619Y-31286104D02*
X100785714Y-31209914D01*
X100785714Y-31209914D02*
X100785714Y-31019438D01*
X100785714Y-31019438D02*
X100747619Y-30943247D01*
X100747619Y-30943247D02*
X100709524Y-30905152D01*
X100709524Y-30905152D02*
X100633333Y-30867057D01*
X100633333Y-30867057D02*
X100480952Y-30867057D01*
X100480952Y-30867057D02*
X100404762Y-30905152D01*
X100404762Y-30905152D02*
X100366667Y-30943247D01*
X100366667Y-30943247D02*
X100328571Y-31019438D01*
X101128572Y-30943247D02*
X101738096Y-30943247D01*
X101738096Y-31171819D02*
X101128572Y-31171819D01*
X102576191Y-31362295D02*
X102309524Y-30981342D01*
X102119048Y-31362295D02*
X102119048Y-30562295D01*
X102119048Y-30562295D02*
X102423810Y-30562295D01*
X102423810Y-30562295D02*
X102500000Y-30600390D01*
X102500000Y-30600390D02*
X102538095Y-30638485D01*
X102538095Y-30638485D02*
X102576191Y-30714676D01*
X102576191Y-30714676D02*
X102576191Y-30828961D01*
X102576191Y-30828961D02*
X102538095Y-30905152D01*
X102538095Y-30905152D02*
X102500000Y-30943247D01*
X102500000Y-30943247D02*
X102423810Y-30981342D01*
X102423810Y-30981342D02*
X102119048Y-30981342D01*
X102880952Y-31324200D02*
X102995238Y-31362295D01*
X102995238Y-31362295D02*
X103185714Y-31362295D01*
X103185714Y-31362295D02*
X103261905Y-31324200D01*
X103261905Y-31324200D02*
X103300000Y-31286104D01*
X103300000Y-31286104D02*
X103338095Y-31209914D01*
X103338095Y-31209914D02*
X103338095Y-31133723D01*
X103338095Y-31133723D02*
X103300000Y-31057533D01*
X103300000Y-31057533D02*
X103261905Y-31019438D01*
X103261905Y-31019438D02*
X103185714Y-30981342D01*
X103185714Y-30981342D02*
X103033333Y-30943247D01*
X103033333Y-30943247D02*
X102957143Y-30905152D01*
X102957143Y-30905152D02*
X102919048Y-30867057D01*
X102919048Y-30867057D02*
X102880952Y-30790866D01*
X102880952Y-30790866D02*
X102880952Y-30714676D01*
X102880952Y-30714676D02*
X102919048Y-30638485D01*
X102919048Y-30638485D02*
X102957143Y-30600390D01*
X102957143Y-30600390D02*
X103033333Y-30562295D01*
X103033333Y-30562295D02*
X103223810Y-30562295D01*
X103223810Y-30562295D02*
X103338095Y-30600390D01*
X103566667Y-30562295D02*
X104023810Y-30562295D01*
X103795238Y-31362295D02*
X103795238Y-30562295D01*
X21999999Y-3454819D02*
X21428571Y-3454819D01*
X21714285Y-3454819D02*
X21714285Y-2454819D01*
X21714285Y-2454819D02*
X21619047Y-2597676D01*
X21619047Y-2597676D02*
X21523809Y-2692914D01*
X21523809Y-2692914D02*
X21428571Y-2740533D01*
X22380952Y-2550057D02*
X22428571Y-2502438D01*
X22428571Y-2502438D02*
X22523809Y-2454819D01*
X22523809Y-2454819D02*
X22761904Y-2454819D01*
X22761904Y-2454819D02*
X22857142Y-2502438D01*
X22857142Y-2502438D02*
X22904761Y-2550057D01*
X22904761Y-2550057D02*
X22952380Y-2645295D01*
X22952380Y-2645295D02*
X22952380Y-2740533D01*
X22952380Y-2740533D02*
X22904761Y-2883390D01*
X22904761Y-2883390D02*
X22333333Y-3454819D01*
X22333333Y-3454819D02*
X22952380Y-3454819D01*
X23238095Y-2454819D02*
X23571428Y-3454819D01*
X23571428Y-3454819D02*
X23904761Y-2454819D01*
X25000000Y-3454819D02*
X25000000Y-2454819D01*
X25000000Y-2454819D02*
X25238095Y-2454819D01*
X25238095Y-2454819D02*
X25380952Y-2502438D01*
X25380952Y-2502438D02*
X25476190Y-2597676D01*
X25476190Y-2597676D02*
X25523809Y-2692914D01*
X25523809Y-2692914D02*
X25571428Y-2883390D01*
X25571428Y-2883390D02*
X25571428Y-3026247D01*
X25571428Y-3026247D02*
X25523809Y-3216723D01*
X25523809Y-3216723D02*
X25476190Y-3311961D01*
X25476190Y-3311961D02*
X25380952Y-3407200D01*
X25380952Y-3407200D02*
X25238095Y-3454819D01*
X25238095Y-3454819D02*
X25000000Y-3454819D01*
X26571428Y-3359580D02*
X26523809Y-3407200D01*
X26523809Y-3407200D02*
X26380952Y-3454819D01*
X26380952Y-3454819D02*
X26285714Y-3454819D01*
X26285714Y-3454819D02*
X26142857Y-3407200D01*
X26142857Y-3407200D02*
X26047619Y-3311961D01*
X26047619Y-3311961D02*
X26000000Y-3216723D01*
X26000000Y-3216723D02*
X25952381Y-3026247D01*
X25952381Y-3026247D02*
X25952381Y-2883390D01*
X25952381Y-2883390D02*
X26000000Y-2692914D01*
X26000000Y-2692914D02*
X26047619Y-2597676D01*
X26047619Y-2597676D02*
X26142857Y-2502438D01*
X26142857Y-2502438D02*
X26285714Y-2454819D01*
X26285714Y-2454819D02*
X26380952Y-2454819D01*
X26380952Y-2454819D02*
X26523809Y-2502438D01*
X26523809Y-2502438D02*
X26571428Y-2550057D01*
X27809523Y-73431009D02*
X27476190Y-73431009D01*
X27476190Y-73954819D02*
X27476190Y-72954819D01*
X27476190Y-72954819D02*
X27952380Y-72954819D01*
X28333333Y-73954819D02*
X28333333Y-72954819D01*
X28333333Y-72954819D02*
X28571428Y-72954819D01*
X28571428Y-72954819D02*
X28714285Y-73002438D01*
X28714285Y-73002438D02*
X28809523Y-73097676D01*
X28809523Y-73097676D02*
X28857142Y-73192914D01*
X28857142Y-73192914D02*
X28904761Y-73383390D01*
X28904761Y-73383390D02*
X28904761Y-73526247D01*
X28904761Y-73526247D02*
X28857142Y-73716723D01*
X28857142Y-73716723D02*
X28809523Y-73811961D01*
X28809523Y-73811961D02*
X28714285Y-73907200D01*
X28714285Y-73907200D02*
X28571428Y-73954819D01*
X28571428Y-73954819D02*
X28333333Y-73954819D01*
X29333333Y-73954819D02*
X29333333Y-72954819D01*
X29333333Y-72954819D02*
X29571428Y-72954819D01*
X29571428Y-72954819D02*
X29714285Y-73002438D01*
X29714285Y-73002438D02*
X29809523Y-73097676D01*
X29809523Y-73097676D02*
X29857142Y-73192914D01*
X29857142Y-73192914D02*
X29904761Y-73383390D01*
X29904761Y-73383390D02*
X29904761Y-73526247D01*
X29904761Y-73526247D02*
X29857142Y-73716723D01*
X29857142Y-73716723D02*
X29809523Y-73811961D01*
X29809523Y-73811961D02*
X29714285Y-73907200D01*
X29714285Y-73907200D02*
X29571428Y-73954819D01*
X29571428Y-73954819D02*
X29333333Y-73954819D01*
X31000000Y-72954819D02*
X31619047Y-72954819D01*
X31619047Y-72954819D02*
X31285714Y-73335771D01*
X31285714Y-73335771D02*
X31428571Y-73335771D01*
X31428571Y-73335771D02*
X31523809Y-73383390D01*
X31523809Y-73383390D02*
X31571428Y-73431009D01*
X31571428Y-73431009D02*
X31619047Y-73526247D01*
X31619047Y-73526247D02*
X31619047Y-73764342D01*
X31619047Y-73764342D02*
X31571428Y-73859580D01*
X31571428Y-73859580D02*
X31523809Y-73907200D01*
X31523809Y-73907200D02*
X31428571Y-73954819D01*
X31428571Y-73954819D02*
X31142857Y-73954819D01*
X31142857Y-73954819D02*
X31047619Y-73907200D01*
X31047619Y-73907200D02*
X31000000Y-73859580D01*
X32476190Y-73288152D02*
X32476190Y-73954819D01*
X32238095Y-72907200D02*
X32000000Y-73621485D01*
X32000000Y-73621485D02*
X32619047Y-73621485D01*
X82023810Y-73669104D02*
X82500000Y-73669104D01*
X81928572Y-73954819D02*
X82261905Y-72954819D01*
X82261905Y-72954819D02*
X82595238Y-73954819D01*
X82928572Y-73954819D02*
X82928572Y-72954819D01*
X82928572Y-72954819D02*
X83261905Y-73669104D01*
X83261905Y-73669104D02*
X83595238Y-72954819D01*
X83595238Y-72954819D02*
X83595238Y-73954819D01*
X84071429Y-73954819D02*
X84071429Y-72954819D01*
X85071428Y-73002438D02*
X84976190Y-72954819D01*
X84976190Y-72954819D02*
X84833333Y-72954819D01*
X84833333Y-72954819D02*
X84690476Y-73002438D01*
X84690476Y-73002438D02*
X84595238Y-73097676D01*
X84595238Y-73097676D02*
X84547619Y-73192914D01*
X84547619Y-73192914D02*
X84500000Y-73383390D01*
X84500000Y-73383390D02*
X84500000Y-73526247D01*
X84500000Y-73526247D02*
X84547619Y-73716723D01*
X84547619Y-73716723D02*
X84595238Y-73811961D01*
X84595238Y-73811961D02*
X84690476Y-73907200D01*
X84690476Y-73907200D02*
X84833333Y-73954819D01*
X84833333Y-73954819D02*
X84928571Y-73954819D01*
X84928571Y-73954819D02*
X85071428Y-73907200D01*
X85071428Y-73907200D02*
X85119047Y-73859580D01*
X85119047Y-73859580D02*
X85119047Y-73526247D01*
X85119047Y-73526247D02*
X84928571Y-73526247D01*
X85500000Y-73669104D02*
X85976190Y-73669104D01*
X85404762Y-73954819D02*
X85738095Y-72954819D01*
X85738095Y-72954819D02*
X86071428Y-73954819D01*
X26238095Y-44254819D02*
X26238095Y-45064342D01*
X26238095Y-45064342D02*
X26285714Y-45159580D01*
X26285714Y-45159580D02*
X26333333Y-45207200D01*
X26333333Y-45207200D02*
X26428571Y-45254819D01*
X26428571Y-45254819D02*
X26619047Y-45254819D01*
X26619047Y-45254819D02*
X26714285Y-45207200D01*
X26714285Y-45207200D02*
X26761904Y-45159580D01*
X26761904Y-45159580D02*
X26809523Y-45064342D01*
X26809523Y-45064342D02*
X26809523Y-44254819D01*
X27190476Y-44254819D02*
X27809523Y-44254819D01*
X27809523Y-44254819D02*
X27476190Y-44635771D01*
X27476190Y-44635771D02*
X27619047Y-44635771D01*
X27619047Y-44635771D02*
X27714285Y-44683390D01*
X27714285Y-44683390D02*
X27761904Y-44731009D01*
X27761904Y-44731009D02*
X27809523Y-44826247D01*
X27809523Y-44826247D02*
X27809523Y-45064342D01*
X27809523Y-45064342D02*
X27761904Y-45159580D01*
X27761904Y-45159580D02*
X27714285Y-45207200D01*
X27714285Y-45207200D02*
X27619047Y-45254819D01*
X27619047Y-45254819D02*
X27333333Y-45254819D01*
X27333333Y-45254819D02*
X27238095Y-45207200D01*
X27238095Y-45207200D02*
X27190476Y-45159580D01*
X46174819Y-66761904D02*
X46984342Y-66761904D01*
X46984342Y-66761904D02*
X47079580Y-66714285D01*
X47079580Y-66714285D02*
X47127200Y-66666666D01*
X47127200Y-66666666D02*
X47174819Y-66571428D01*
X47174819Y-66571428D02*
X47174819Y-66380952D01*
X47174819Y-66380952D02*
X47127200Y-66285714D01*
X47127200Y-66285714D02*
X47079580Y-66238095D01*
X47079580Y-66238095D02*
X46984342Y-66190476D01*
X46984342Y-66190476D02*
X46174819Y-66190476D01*
X46174819Y-65809523D02*
X46174819Y-65142857D01*
X46174819Y-65142857D02*
X47174819Y-65571428D01*
X46666667Y-4657200D02*
X46809524Y-4704819D01*
X46809524Y-4704819D02*
X47047619Y-4704819D01*
X47047619Y-4704819D02*
X47142857Y-4657200D01*
X47142857Y-4657200D02*
X47190476Y-4609580D01*
X47190476Y-4609580D02*
X47238095Y-4514342D01*
X47238095Y-4514342D02*
X47238095Y-4419104D01*
X47238095Y-4419104D02*
X47190476Y-4323866D01*
X47190476Y-4323866D02*
X47142857Y-4276247D01*
X47142857Y-4276247D02*
X47047619Y-4228628D01*
X47047619Y-4228628D02*
X46857143Y-4181009D01*
X46857143Y-4181009D02*
X46761905Y-4133390D01*
X46761905Y-4133390D02*
X46714286Y-4085771D01*
X46714286Y-4085771D02*
X46666667Y-3990533D01*
X46666667Y-3990533D02*
X46666667Y-3895295D01*
X46666667Y-3895295D02*
X46714286Y-3800057D01*
X46714286Y-3800057D02*
X46761905Y-3752438D01*
X46761905Y-3752438D02*
X46857143Y-3704819D01*
X46857143Y-3704819D02*
X47095238Y-3704819D01*
X47095238Y-3704819D02*
X47238095Y-3752438D01*
X47571429Y-3704819D02*
X47809524Y-4704819D01*
X47809524Y-4704819D02*
X48000000Y-3990533D01*
X48000000Y-3990533D02*
X48190476Y-4704819D01*
X48190476Y-4704819D02*
X48428572Y-3704819D01*
X48761905Y-3800057D02*
X48809524Y-3752438D01*
X48809524Y-3752438D02*
X48904762Y-3704819D01*
X48904762Y-3704819D02*
X49142857Y-3704819D01*
X49142857Y-3704819D02*
X49238095Y-3752438D01*
X49238095Y-3752438D02*
X49285714Y-3800057D01*
X49285714Y-3800057D02*
X49333333Y-3895295D01*
X49333333Y-3895295D02*
X49333333Y-3990533D01*
X49333333Y-3990533D02*
X49285714Y-4133390D01*
X49285714Y-4133390D02*
X48714286Y-4704819D01*
X48714286Y-4704819D02*
X49333333Y-4704819D01*
X92261905Y-12024819D02*
X92261905Y-11024819D01*
X92261905Y-11024819D02*
X92500000Y-11024819D01*
X92500000Y-11024819D02*
X92642857Y-11072438D01*
X92642857Y-11072438D02*
X92738095Y-11167676D01*
X92738095Y-11167676D02*
X92785714Y-11262914D01*
X92785714Y-11262914D02*
X92833333Y-11453390D01*
X92833333Y-11453390D02*
X92833333Y-11596247D01*
X92833333Y-11596247D02*
X92785714Y-11786723D01*
X92785714Y-11786723D02*
X92738095Y-11881961D01*
X92738095Y-11881961D02*
X92642857Y-11977200D01*
X92642857Y-11977200D02*
X92500000Y-12024819D01*
X92500000Y-12024819D02*
X92261905Y-12024819D01*
X93690476Y-11358152D02*
X93690476Y-12024819D01*
X93452381Y-10977200D02*
X93214286Y-11691485D01*
X93214286Y-11691485D02*
X93833333Y-11691485D01*
X104666666Y-12534819D02*
X104666666Y-13249104D01*
X104666666Y-13249104D02*
X104619047Y-13391961D01*
X104619047Y-13391961D02*
X104523809Y-13487200D01*
X104523809Y-13487200D02*
X104380952Y-13534819D01*
X104380952Y-13534819D02*
X104285714Y-13534819D01*
X105619047Y-12534819D02*
X105142857Y-12534819D01*
X105142857Y-12534819D02*
X105095238Y-13011009D01*
X105095238Y-13011009D02*
X105142857Y-12963390D01*
X105142857Y-12963390D02*
X105238095Y-12915771D01*
X105238095Y-12915771D02*
X105476190Y-12915771D01*
X105476190Y-12915771D02*
X105571428Y-12963390D01*
X105571428Y-12963390D02*
X105619047Y-13011009D01*
X105619047Y-13011009D02*
X105666666Y-13106247D01*
X105666666Y-13106247D02*
X105666666Y-13344342D01*
X105666666Y-13344342D02*
X105619047Y-13439580D01*
X105619047Y-13439580D02*
X105571428Y-13487200D01*
X105571428Y-13487200D02*
X105476190Y-13534819D01*
X105476190Y-13534819D02*
X105238095Y-13534819D01*
X105238095Y-13534819D02*
X105142857Y-13487200D01*
X105142857Y-13487200D02*
X105095238Y-13439580D01*
X4034819Y-80338333D02*
X4749104Y-80338333D01*
X4749104Y-80338333D02*
X4891961Y-80385952D01*
X4891961Y-80385952D02*
X4987200Y-80481190D01*
X4987200Y-80481190D02*
X5034819Y-80624047D01*
X5034819Y-80624047D02*
X5034819Y-80719285D01*
X4034819Y-79433571D02*
X4034819Y-79624047D01*
X4034819Y-79624047D02*
X4082438Y-79719285D01*
X4082438Y-79719285D02*
X4130057Y-79766904D01*
X4130057Y-79766904D02*
X4272914Y-79862142D01*
X4272914Y-79862142D02*
X4463390Y-79909761D01*
X4463390Y-79909761D02*
X4844342Y-79909761D01*
X4844342Y-79909761D02*
X4939580Y-79862142D01*
X4939580Y-79862142D02*
X4987200Y-79814523D01*
X4987200Y-79814523D02*
X5034819Y-79719285D01*
X5034819Y-79719285D02*
X5034819Y-79528809D01*
X5034819Y-79528809D02*
X4987200Y-79433571D01*
X4987200Y-79433571D02*
X4939580Y-79385952D01*
X4939580Y-79385952D02*
X4844342Y-79338333D01*
X4844342Y-79338333D02*
X4606247Y-79338333D01*
X4606247Y-79338333D02*
X4511009Y-79385952D01*
X4511009Y-79385952D02*
X4463390Y-79433571D01*
X4463390Y-79433571D02*
X4415771Y-79528809D01*
X4415771Y-79528809D02*
X4415771Y-79719285D01*
X4415771Y-79719285D02*
X4463390Y-79814523D01*
X4463390Y-79814523D02*
X4511009Y-79862142D01*
X4511009Y-79862142D02*
X4606247Y-79909761D01*
X92261905Y-18024819D02*
X92261905Y-17024819D01*
X92261905Y-17024819D02*
X92500000Y-17024819D01*
X92500000Y-17024819D02*
X92642857Y-17072438D01*
X92642857Y-17072438D02*
X92738095Y-17167676D01*
X92738095Y-17167676D02*
X92785714Y-17262914D01*
X92785714Y-17262914D02*
X92833333Y-17453390D01*
X92833333Y-17453390D02*
X92833333Y-17596247D01*
X92833333Y-17596247D02*
X92785714Y-17786723D01*
X92785714Y-17786723D02*
X92738095Y-17881961D01*
X92738095Y-17881961D02*
X92642857Y-17977200D01*
X92642857Y-17977200D02*
X92500000Y-18024819D01*
X92500000Y-18024819D02*
X92261905Y-18024819D01*
X93690476Y-17024819D02*
X93500000Y-17024819D01*
X93500000Y-17024819D02*
X93404762Y-17072438D01*
X93404762Y-17072438D02*
X93357143Y-17120057D01*
X93357143Y-17120057D02*
X93261905Y-17262914D01*
X93261905Y-17262914D02*
X93214286Y-17453390D01*
X93214286Y-17453390D02*
X93214286Y-17834342D01*
X93214286Y-17834342D02*
X93261905Y-17929580D01*
X93261905Y-17929580D02*
X93309524Y-17977200D01*
X93309524Y-17977200D02*
X93404762Y-18024819D01*
X93404762Y-18024819D02*
X93595238Y-18024819D01*
X93595238Y-18024819D02*
X93690476Y-17977200D01*
X93690476Y-17977200D02*
X93738095Y-17929580D01*
X93738095Y-17929580D02*
X93785714Y-17834342D01*
X93785714Y-17834342D02*
X93785714Y-17596247D01*
X93785714Y-17596247D02*
X93738095Y-17501009D01*
X93738095Y-17501009D02*
X93690476Y-17453390D01*
X93690476Y-17453390D02*
X93595238Y-17405771D01*
X93595238Y-17405771D02*
X93404762Y-17405771D01*
X93404762Y-17405771D02*
X93309524Y-17453390D01*
X93309524Y-17453390D02*
X93261905Y-17501009D01*
X93261905Y-17501009D02*
X93214286Y-17596247D01*
X15238095Y-52954819D02*
X15238095Y-53764342D01*
X15238095Y-53764342D02*
X15285714Y-53859580D01*
X15285714Y-53859580D02*
X15333333Y-53907200D01*
X15333333Y-53907200D02*
X15428571Y-53954819D01*
X15428571Y-53954819D02*
X15619047Y-53954819D01*
X15619047Y-53954819D02*
X15714285Y-53907200D01*
X15714285Y-53907200D02*
X15761904Y-53859580D01*
X15761904Y-53859580D02*
X15809523Y-53764342D01*
X15809523Y-53764342D02*
X15809523Y-52954819D01*
X16714285Y-53288152D02*
X16714285Y-53954819D01*
X16476190Y-52907200D02*
X16238095Y-53621485D01*
X16238095Y-53621485D02*
X16857142Y-53621485D01*
X80761905Y-46174819D02*
X80761905Y-46984342D01*
X80761905Y-46984342D02*
X80809524Y-47079580D01*
X80809524Y-47079580D02*
X80857143Y-47127200D01*
X80857143Y-47127200D02*
X80952381Y-47174819D01*
X80952381Y-47174819D02*
X81142857Y-47174819D01*
X81142857Y-47174819D02*
X81238095Y-47127200D01*
X81238095Y-47127200D02*
X81285714Y-47079580D01*
X81285714Y-47079580D02*
X81333333Y-46984342D01*
X81333333Y-46984342D02*
X81333333Y-46174819D01*
X82333333Y-47174819D02*
X81761905Y-47174819D01*
X82047619Y-47174819D02*
X82047619Y-46174819D01*
X82047619Y-46174819D02*
X81952381Y-46317676D01*
X81952381Y-46317676D02*
X81857143Y-46412914D01*
X81857143Y-46412914D02*
X81761905Y-46460533D01*
X82952381Y-46174819D02*
X83047619Y-46174819D01*
X83047619Y-46174819D02*
X83142857Y-46222438D01*
X83142857Y-46222438D02*
X83190476Y-46270057D01*
X83190476Y-46270057D02*
X83238095Y-46365295D01*
X83238095Y-46365295D02*
X83285714Y-46555771D01*
X83285714Y-46555771D02*
X83285714Y-46793866D01*
X83285714Y-46793866D02*
X83238095Y-46984342D01*
X83238095Y-46984342D02*
X83190476Y-47079580D01*
X83190476Y-47079580D02*
X83142857Y-47127200D01*
X83142857Y-47127200D02*
X83047619Y-47174819D01*
X83047619Y-47174819D02*
X82952381Y-47174819D01*
X82952381Y-47174819D02*
X82857143Y-47127200D01*
X82857143Y-47127200D02*
X82809524Y-47079580D01*
X82809524Y-47079580D02*
X82761905Y-46984342D01*
X82761905Y-46984342D02*
X82714286Y-46793866D01*
X82714286Y-46793866D02*
X82714286Y-46555771D01*
X82714286Y-46555771D02*
X82761905Y-46365295D01*
X82761905Y-46365295D02*
X82809524Y-46270057D01*
X82809524Y-46270057D02*
X82857143Y-46222438D01*
X82857143Y-46222438D02*
X82952381Y-46174819D01*
X71238095Y-13054819D02*
X71238095Y-13864342D01*
X71238095Y-13864342D02*
X71285714Y-13959580D01*
X71285714Y-13959580D02*
X71333333Y-14007200D01*
X71333333Y-14007200D02*
X71428571Y-14054819D01*
X71428571Y-14054819D02*
X71619047Y-14054819D01*
X71619047Y-14054819D02*
X71714285Y-14007200D01*
X71714285Y-14007200D02*
X71761904Y-13959580D01*
X71761904Y-13959580D02*
X71809523Y-13864342D01*
X71809523Y-13864342D02*
X71809523Y-13054819D01*
X72809523Y-14054819D02*
X72238095Y-14054819D01*
X72523809Y-14054819D02*
X72523809Y-13054819D01*
X72523809Y-13054819D02*
X72428571Y-13197676D01*
X72428571Y-13197676D02*
X72333333Y-13292914D01*
X72333333Y-13292914D02*
X72238095Y-13340533D01*
X7704819Y-5928333D02*
X8419104Y-5928333D01*
X8419104Y-5928333D02*
X8561961Y-5975952D01*
X8561961Y-5975952D02*
X8657200Y-6071190D01*
X8657200Y-6071190D02*
X8704819Y-6214047D01*
X8704819Y-6214047D02*
X8704819Y-6309285D01*
X7800057Y-5499761D02*
X7752438Y-5452142D01*
X7752438Y-5452142D02*
X7704819Y-5356904D01*
X7704819Y-5356904D02*
X7704819Y-5118809D01*
X7704819Y-5118809D02*
X7752438Y-5023571D01*
X7752438Y-5023571D02*
X7800057Y-4975952D01*
X7800057Y-4975952D02*
X7895295Y-4928333D01*
X7895295Y-4928333D02*
X7990533Y-4928333D01*
X7990533Y-4928333D02*
X8133390Y-4975952D01*
X8133390Y-4975952D02*
X8704819Y-5547380D01*
X8704819Y-5547380D02*
X8704819Y-4928333D01*
X42228628Y-43076190D02*
X42704819Y-43076190D01*
X41704819Y-43409523D02*
X42228628Y-43076190D01*
X42228628Y-43076190D02*
X41704819Y-42742857D01*
X42704819Y-41885714D02*
X42704819Y-42457142D01*
X42704819Y-42171428D02*
X41704819Y-42171428D01*
X41704819Y-42171428D02*
X41847676Y-42266666D01*
X41847676Y-42266666D02*
X41942914Y-42361904D01*
X41942914Y-42361904D02*
X41990533Y-42457142D01*
X92261905Y-15024819D02*
X92261905Y-14024819D01*
X92261905Y-14024819D02*
X92500000Y-14024819D01*
X92500000Y-14024819D02*
X92642857Y-14072438D01*
X92642857Y-14072438D02*
X92738095Y-14167676D01*
X92738095Y-14167676D02*
X92785714Y-14262914D01*
X92785714Y-14262914D02*
X92833333Y-14453390D01*
X92833333Y-14453390D02*
X92833333Y-14596247D01*
X92833333Y-14596247D02*
X92785714Y-14786723D01*
X92785714Y-14786723D02*
X92738095Y-14881961D01*
X92738095Y-14881961D02*
X92642857Y-14977200D01*
X92642857Y-14977200D02*
X92500000Y-15024819D01*
X92500000Y-15024819D02*
X92261905Y-15024819D01*
X93738095Y-14024819D02*
X93261905Y-14024819D01*
X93261905Y-14024819D02*
X93214286Y-14501009D01*
X93214286Y-14501009D02*
X93261905Y-14453390D01*
X93261905Y-14453390D02*
X93357143Y-14405771D01*
X93357143Y-14405771D02*
X93595238Y-14405771D01*
X93595238Y-14405771D02*
X93690476Y-14453390D01*
X93690476Y-14453390D02*
X93738095Y-14501009D01*
X93738095Y-14501009D02*
X93785714Y-14596247D01*
X93785714Y-14596247D02*
X93785714Y-14834342D01*
X93785714Y-14834342D02*
X93738095Y-14929580D01*
X93738095Y-14929580D02*
X93690476Y-14977200D01*
X93690476Y-14977200D02*
X93595238Y-15024819D01*
X93595238Y-15024819D02*
X93357143Y-15024819D01*
X93357143Y-15024819D02*
X93261905Y-14977200D01*
X93261905Y-14977200D02*
X93214286Y-14929580D01*
X81238095Y-32174819D02*
X81238095Y-32984342D01*
X81238095Y-32984342D02*
X81285714Y-33079580D01*
X81285714Y-33079580D02*
X81333333Y-33127200D01*
X81333333Y-33127200D02*
X81428571Y-33174819D01*
X81428571Y-33174819D02*
X81619047Y-33174819D01*
X81619047Y-33174819D02*
X81714285Y-33127200D01*
X81714285Y-33127200D02*
X81761904Y-33079580D01*
X81761904Y-33079580D02*
X81809523Y-32984342D01*
X81809523Y-32984342D02*
X81809523Y-32174819D01*
X82333333Y-33174819D02*
X82523809Y-33174819D01*
X82523809Y-33174819D02*
X82619047Y-33127200D01*
X82619047Y-33127200D02*
X82666666Y-33079580D01*
X82666666Y-33079580D02*
X82761904Y-32936723D01*
X82761904Y-32936723D02*
X82809523Y-32746247D01*
X82809523Y-32746247D02*
X82809523Y-32365295D01*
X82809523Y-32365295D02*
X82761904Y-32270057D01*
X82761904Y-32270057D02*
X82714285Y-32222438D01*
X82714285Y-32222438D02*
X82619047Y-32174819D01*
X82619047Y-32174819D02*
X82428571Y-32174819D01*
X82428571Y-32174819D02*
X82333333Y-32222438D01*
X82333333Y-32222438D02*
X82285714Y-32270057D01*
X82285714Y-32270057D02*
X82238095Y-32365295D01*
X82238095Y-32365295D02*
X82238095Y-32603390D01*
X82238095Y-32603390D02*
X82285714Y-32698628D01*
X82285714Y-32698628D02*
X82333333Y-32746247D01*
X82333333Y-32746247D02*
X82428571Y-32793866D01*
X82428571Y-32793866D02*
X82619047Y-32793866D01*
X82619047Y-32793866D02*
X82714285Y-32746247D01*
X82714285Y-32746247D02*
X82761904Y-32698628D01*
X82761904Y-32698628D02*
X82809523Y-32603390D01*
X92261905Y-21024819D02*
X92261905Y-20024819D01*
X92261905Y-20024819D02*
X92500000Y-20024819D01*
X92500000Y-20024819D02*
X92642857Y-20072438D01*
X92642857Y-20072438D02*
X92738095Y-20167676D01*
X92738095Y-20167676D02*
X92785714Y-20262914D01*
X92785714Y-20262914D02*
X92833333Y-20453390D01*
X92833333Y-20453390D02*
X92833333Y-20596247D01*
X92833333Y-20596247D02*
X92785714Y-20786723D01*
X92785714Y-20786723D02*
X92738095Y-20881961D01*
X92738095Y-20881961D02*
X92642857Y-20977200D01*
X92642857Y-20977200D02*
X92500000Y-21024819D01*
X92500000Y-21024819D02*
X92261905Y-21024819D01*
X93166667Y-20024819D02*
X93833333Y-20024819D01*
X93833333Y-20024819D02*
X93404762Y-21024819D01*
X54238095Y-27104819D02*
X54238095Y-27914342D01*
X54238095Y-27914342D02*
X54285714Y-28009580D01*
X54285714Y-28009580D02*
X54333333Y-28057200D01*
X54333333Y-28057200D02*
X54428571Y-28104819D01*
X54428571Y-28104819D02*
X54619047Y-28104819D01*
X54619047Y-28104819D02*
X54714285Y-28057200D01*
X54714285Y-28057200D02*
X54761904Y-28009580D01*
X54761904Y-28009580D02*
X54809523Y-27914342D01*
X54809523Y-27914342D02*
X54809523Y-27104819D01*
X55761904Y-27104819D02*
X55285714Y-27104819D01*
X55285714Y-27104819D02*
X55238095Y-27581009D01*
X55238095Y-27581009D02*
X55285714Y-27533390D01*
X55285714Y-27533390D02*
X55380952Y-27485771D01*
X55380952Y-27485771D02*
X55619047Y-27485771D01*
X55619047Y-27485771D02*
X55714285Y-27533390D01*
X55714285Y-27533390D02*
X55761904Y-27581009D01*
X55761904Y-27581009D02*
X55809523Y-27676247D01*
X55809523Y-27676247D02*
X55809523Y-27914342D01*
X55809523Y-27914342D02*
X55761904Y-28009580D01*
X55761904Y-28009580D02*
X55714285Y-28057200D01*
X55714285Y-28057200D02*
X55619047Y-28104819D01*
X55619047Y-28104819D02*
X55380952Y-28104819D01*
X55380952Y-28104819D02*
X55285714Y-28057200D01*
X55285714Y-28057200D02*
X55238095Y-28009580D01*
X32174819Y-66761904D02*
X32984342Y-66761904D01*
X32984342Y-66761904D02*
X33079580Y-66714285D01*
X33079580Y-66714285D02*
X33127200Y-66666666D01*
X33127200Y-66666666D02*
X33174819Y-66571428D01*
X33174819Y-66571428D02*
X33174819Y-66380952D01*
X33174819Y-66380952D02*
X33127200Y-66285714D01*
X33127200Y-66285714D02*
X33079580Y-66238095D01*
X33079580Y-66238095D02*
X32984342Y-66190476D01*
X32984342Y-66190476D02*
X32174819Y-66190476D01*
X32174819Y-65285714D02*
X32174819Y-65476190D01*
X32174819Y-65476190D02*
X32222438Y-65571428D01*
X32222438Y-65571428D02*
X32270057Y-65619047D01*
X32270057Y-65619047D02*
X32412914Y-65714285D01*
X32412914Y-65714285D02*
X32603390Y-65761904D01*
X32603390Y-65761904D02*
X32984342Y-65761904D01*
X32984342Y-65761904D02*
X33079580Y-65714285D01*
X33079580Y-65714285D02*
X33127200Y-65666666D01*
X33127200Y-65666666D02*
X33174819Y-65571428D01*
X33174819Y-65571428D02*
X33174819Y-65380952D01*
X33174819Y-65380952D02*
X33127200Y-65285714D01*
X33127200Y-65285714D02*
X33079580Y-65238095D01*
X33079580Y-65238095D02*
X32984342Y-65190476D01*
X32984342Y-65190476D02*
X32746247Y-65190476D01*
X32746247Y-65190476D02*
X32651009Y-65238095D01*
X32651009Y-65238095D02*
X32603390Y-65285714D01*
X32603390Y-65285714D02*
X32555771Y-65380952D01*
X32555771Y-65380952D02*
X32555771Y-65571428D01*
X32555771Y-65571428D02*
X32603390Y-65666666D01*
X32603390Y-65666666D02*
X32651009Y-65714285D01*
X32651009Y-65714285D02*
X32746247Y-65761904D01*
X63384819Y-80338333D02*
X64099104Y-80338333D01*
X64099104Y-80338333D02*
X64241961Y-80385952D01*
X64241961Y-80385952D02*
X64337200Y-80481190D01*
X64337200Y-80481190D02*
X64384819Y-80624047D01*
X64384819Y-80624047D02*
X64384819Y-80719285D01*
X63384819Y-79957380D02*
X63384819Y-79290714D01*
X63384819Y-79290714D02*
X64384819Y-79719285D01*
X92261905Y-24024819D02*
X92261905Y-23024819D01*
X92261905Y-23024819D02*
X92500000Y-23024819D01*
X92500000Y-23024819D02*
X92642857Y-23072438D01*
X92642857Y-23072438D02*
X92738095Y-23167676D01*
X92738095Y-23167676D02*
X92785714Y-23262914D01*
X92785714Y-23262914D02*
X92833333Y-23453390D01*
X92833333Y-23453390D02*
X92833333Y-23596247D01*
X92833333Y-23596247D02*
X92785714Y-23786723D01*
X92785714Y-23786723D02*
X92738095Y-23881961D01*
X92738095Y-23881961D02*
X92642857Y-23977200D01*
X92642857Y-23977200D02*
X92500000Y-24024819D01*
X92500000Y-24024819D02*
X92261905Y-24024819D01*
X93404762Y-23453390D02*
X93309524Y-23405771D01*
X93309524Y-23405771D02*
X93261905Y-23358152D01*
X93261905Y-23358152D02*
X93214286Y-23262914D01*
X93214286Y-23262914D02*
X93214286Y-23215295D01*
X93214286Y-23215295D02*
X93261905Y-23120057D01*
X93261905Y-23120057D02*
X93309524Y-23072438D01*
X93309524Y-23072438D02*
X93404762Y-23024819D01*
X93404762Y-23024819D02*
X93595238Y-23024819D01*
X93595238Y-23024819D02*
X93690476Y-23072438D01*
X93690476Y-23072438D02*
X93738095Y-23120057D01*
X93738095Y-23120057D02*
X93785714Y-23215295D01*
X93785714Y-23215295D02*
X93785714Y-23262914D01*
X93785714Y-23262914D02*
X93738095Y-23358152D01*
X93738095Y-23358152D02*
X93690476Y-23405771D01*
X93690476Y-23405771D02*
X93595238Y-23453390D01*
X93595238Y-23453390D02*
X93404762Y-23453390D01*
X93404762Y-23453390D02*
X93309524Y-23501009D01*
X93309524Y-23501009D02*
X93261905Y-23548628D01*
X93261905Y-23548628D02*
X93214286Y-23643866D01*
X93214286Y-23643866D02*
X93214286Y-23834342D01*
X93214286Y-23834342D02*
X93261905Y-23929580D01*
X93261905Y-23929580D02*
X93309524Y-23977200D01*
X93309524Y-23977200D02*
X93404762Y-24024819D01*
X93404762Y-24024819D02*
X93595238Y-24024819D01*
X93595238Y-24024819D02*
X93690476Y-23977200D01*
X93690476Y-23977200D02*
X93738095Y-23929580D01*
X93738095Y-23929580D02*
X93785714Y-23834342D01*
X93785714Y-23834342D02*
X93785714Y-23643866D01*
X93785714Y-23643866D02*
X93738095Y-23548628D01*
X93738095Y-23548628D02*
X93690476Y-23501009D01*
X93690476Y-23501009D02*
X93595238Y-23453390D01*
X8174819Y-68761904D02*
X8984342Y-68761904D01*
X8984342Y-68761904D02*
X9079580Y-68714285D01*
X9079580Y-68714285D02*
X9127200Y-68666666D01*
X9127200Y-68666666D02*
X9174819Y-68571428D01*
X9174819Y-68571428D02*
X9174819Y-68380952D01*
X9174819Y-68380952D02*
X9127200Y-68285714D01*
X9127200Y-68285714D02*
X9079580Y-68238095D01*
X9079580Y-68238095D02*
X8984342Y-68190476D01*
X8984342Y-68190476D02*
X8174819Y-68190476D01*
X8603390Y-67571428D02*
X8555771Y-67666666D01*
X8555771Y-67666666D02*
X8508152Y-67714285D01*
X8508152Y-67714285D02*
X8412914Y-67761904D01*
X8412914Y-67761904D02*
X8365295Y-67761904D01*
X8365295Y-67761904D02*
X8270057Y-67714285D01*
X8270057Y-67714285D02*
X8222438Y-67666666D01*
X8222438Y-67666666D02*
X8174819Y-67571428D01*
X8174819Y-67571428D02*
X8174819Y-67380952D01*
X8174819Y-67380952D02*
X8222438Y-67285714D01*
X8222438Y-67285714D02*
X8270057Y-67238095D01*
X8270057Y-67238095D02*
X8365295Y-67190476D01*
X8365295Y-67190476D02*
X8412914Y-67190476D01*
X8412914Y-67190476D02*
X8508152Y-67238095D01*
X8508152Y-67238095D02*
X8555771Y-67285714D01*
X8555771Y-67285714D02*
X8603390Y-67380952D01*
X8603390Y-67380952D02*
X8603390Y-67571428D01*
X8603390Y-67571428D02*
X8651009Y-67666666D01*
X8651009Y-67666666D02*
X8698628Y-67714285D01*
X8698628Y-67714285D02*
X8793866Y-67761904D01*
X8793866Y-67761904D02*
X8984342Y-67761904D01*
X8984342Y-67761904D02*
X9079580Y-67714285D01*
X9079580Y-67714285D02*
X9127200Y-67666666D01*
X9127200Y-67666666D02*
X9174819Y-67571428D01*
X9174819Y-67571428D02*
X9174819Y-67380952D01*
X9174819Y-67380952D02*
X9127200Y-67285714D01*
X9127200Y-67285714D02*
X9079580Y-67238095D01*
X9079580Y-67238095D02*
X8984342Y-67190476D01*
X8984342Y-67190476D02*
X8793866Y-67190476D01*
X8793866Y-67190476D02*
X8698628Y-67238095D01*
X8698628Y-67238095D02*
X8651009Y-67285714D01*
X8651009Y-67285714D02*
X8603390Y-67380952D01*
X36666667Y-4657200D02*
X36809524Y-4704819D01*
X36809524Y-4704819D02*
X37047619Y-4704819D01*
X37047619Y-4704819D02*
X37142857Y-4657200D01*
X37142857Y-4657200D02*
X37190476Y-4609580D01*
X37190476Y-4609580D02*
X37238095Y-4514342D01*
X37238095Y-4514342D02*
X37238095Y-4419104D01*
X37238095Y-4419104D02*
X37190476Y-4323866D01*
X37190476Y-4323866D02*
X37142857Y-4276247D01*
X37142857Y-4276247D02*
X37047619Y-4228628D01*
X37047619Y-4228628D02*
X36857143Y-4181009D01*
X36857143Y-4181009D02*
X36761905Y-4133390D01*
X36761905Y-4133390D02*
X36714286Y-4085771D01*
X36714286Y-4085771D02*
X36666667Y-3990533D01*
X36666667Y-3990533D02*
X36666667Y-3895295D01*
X36666667Y-3895295D02*
X36714286Y-3800057D01*
X36714286Y-3800057D02*
X36761905Y-3752438D01*
X36761905Y-3752438D02*
X36857143Y-3704819D01*
X36857143Y-3704819D02*
X37095238Y-3704819D01*
X37095238Y-3704819D02*
X37238095Y-3752438D01*
X37571429Y-3704819D02*
X37809524Y-4704819D01*
X37809524Y-4704819D02*
X38000000Y-3990533D01*
X38000000Y-3990533D02*
X38190476Y-4704819D01*
X38190476Y-4704819D02*
X38428572Y-3704819D01*
X39333333Y-4704819D02*
X38761905Y-4704819D01*
X39047619Y-4704819D02*
X39047619Y-3704819D01*
X39047619Y-3704819D02*
X38952381Y-3847676D01*
X38952381Y-3847676D02*
X38857143Y-3942914D01*
X38857143Y-3942914D02*
X38761905Y-3990533D01*
X1481666Y-45264819D02*
X1481666Y-45979104D01*
X1481666Y-45979104D02*
X1434047Y-46121961D01*
X1434047Y-46121961D02*
X1338809Y-46217200D01*
X1338809Y-46217200D02*
X1195952Y-46264819D01*
X1195952Y-46264819D02*
X1100714Y-46264819D01*
X1862619Y-45264819D02*
X2481666Y-45264819D01*
X2481666Y-45264819D02*
X2148333Y-45645771D01*
X2148333Y-45645771D02*
X2291190Y-45645771D01*
X2291190Y-45645771D02*
X2386428Y-45693390D01*
X2386428Y-45693390D02*
X2434047Y-45741009D01*
X2434047Y-45741009D02*
X2481666Y-45836247D01*
X2481666Y-45836247D02*
X2481666Y-46074342D01*
X2481666Y-46074342D02*
X2434047Y-46169580D01*
X2434047Y-46169580D02*
X2386428Y-46217200D01*
X2386428Y-46217200D02*
X2291190Y-46264819D01*
X2291190Y-46264819D02*
X2005476Y-46264819D01*
X2005476Y-46264819D02*
X1910238Y-46217200D01*
X1910238Y-46217200D02*
X1862619Y-46169580D01*
X95666666Y-1169819D02*
X95666666Y-1884104D01*
X95666666Y-1884104D02*
X95619047Y-2026961D01*
X95619047Y-2026961D02*
X95523809Y-2122200D01*
X95523809Y-2122200D02*
X95380952Y-2169819D01*
X95380952Y-2169819D02*
X95285714Y-2169819D01*
X96571428Y-1503152D02*
X96571428Y-2169819D01*
X96333333Y-1122200D02*
X96095238Y-1836485D01*
X96095238Y-1836485D02*
X96714285Y-1836485D01*
X107451666Y-30724819D02*
X107451666Y-31439104D01*
X107451666Y-31439104D02*
X107404047Y-31581961D01*
X107404047Y-31581961D02*
X107308809Y-31677200D01*
X107308809Y-31677200D02*
X107165952Y-31724819D01*
X107165952Y-31724819D02*
X107070714Y-31724819D01*
X108070714Y-31153390D02*
X107975476Y-31105771D01*
X107975476Y-31105771D02*
X107927857Y-31058152D01*
X107927857Y-31058152D02*
X107880238Y-30962914D01*
X107880238Y-30962914D02*
X107880238Y-30915295D01*
X107880238Y-30915295D02*
X107927857Y-30820057D01*
X107927857Y-30820057D02*
X107975476Y-30772438D01*
X107975476Y-30772438D02*
X108070714Y-30724819D01*
X108070714Y-30724819D02*
X108261190Y-30724819D01*
X108261190Y-30724819D02*
X108356428Y-30772438D01*
X108356428Y-30772438D02*
X108404047Y-30820057D01*
X108404047Y-30820057D02*
X108451666Y-30915295D01*
X108451666Y-30915295D02*
X108451666Y-30962914D01*
X108451666Y-30962914D02*
X108404047Y-31058152D01*
X108404047Y-31058152D02*
X108356428Y-31105771D01*
X108356428Y-31105771D02*
X108261190Y-31153390D01*
X108261190Y-31153390D02*
X108070714Y-31153390D01*
X108070714Y-31153390D02*
X107975476Y-31201009D01*
X107975476Y-31201009D02*
X107927857Y-31248628D01*
X107927857Y-31248628D02*
X107880238Y-31343866D01*
X107880238Y-31343866D02*
X107880238Y-31534342D01*
X107880238Y-31534342D02*
X107927857Y-31629580D01*
X107927857Y-31629580D02*
X107975476Y-31677200D01*
X107975476Y-31677200D02*
X108070714Y-31724819D01*
X108070714Y-31724819D02*
X108261190Y-31724819D01*
X108261190Y-31724819D02*
X108356428Y-31677200D01*
X108356428Y-31677200D02*
X108404047Y-31629580D01*
X108404047Y-31629580D02*
X108451666Y-31534342D01*
X108451666Y-31534342D02*
X108451666Y-31343866D01*
X108451666Y-31343866D02*
X108404047Y-31248628D01*
X108404047Y-31248628D02*
X108356428Y-31201009D01*
X108356428Y-31201009D02*
X108261190Y-31153390D01*
%TO.C,C34*%
D10*
X36359420Y-49490000D02*
X36640580Y-49490000D01*
X36359420Y-50510000D02*
X36640580Y-50510000D01*
%TO.C,R5*%
X26477500Y-51237258D02*
X26477500Y-50762742D01*
X27522500Y-51237258D02*
X27522500Y-50762742D01*
%TO.C,C17*%
X40940580Y-33240000D02*
X40659420Y-33240000D01*
X40940580Y-34260000D02*
X40659420Y-34260000D01*
%TO.C,C11*%
X28738748Y-54265000D02*
X29261252Y-54265000D01*
X28738748Y-55735000D02*
X29261252Y-55735000D01*
%TO.C,C30*%
X72359420Y-37240000D02*
X72640580Y-37240000D01*
X72359420Y-38260000D02*
X72640580Y-38260000D01*
%TO.C,C8*%
X22990000Y-46140580D02*
X22990000Y-45859420D01*
X24010000Y-46140580D02*
X24010000Y-45859420D01*
%TO.C,U3*%
X27650000Y-45840000D02*
X26600000Y-45840000D01*
X27650000Y-48160000D02*
X26350000Y-48160000D01*
X26240000Y-45840000D02*
X25960000Y-45840000D01*
X26240000Y-45560000D01*
X26240000Y-45840000D01*
G36*
X26240000Y-45840000D02*
G01*
X25960000Y-45840000D01*
X26240000Y-45560000D01*
X26240000Y-45840000D01*
G37*
%TO.C,R10*%
X78477500Y-24237258D02*
X78477500Y-23762742D01*
X79522500Y-24237258D02*
X79522500Y-23762742D01*
%TO.C,U7*%
X47565000Y-63940000D02*
X47630000Y-63940000D01*
X47565000Y-68060000D02*
X47565000Y-63940000D01*
X47630000Y-68060000D02*
X47565000Y-68060000D01*
X56370000Y-63940000D02*
X56435000Y-63940000D01*
X56435000Y-63940000D02*
X56435000Y-68060000D01*
X56435000Y-68060000D02*
X56370000Y-68060000D01*
X47630000Y-68600000D02*
X47300000Y-68840000D01*
X47300000Y-68360000D01*
X47630000Y-68600000D01*
G36*
X47630000Y-68600000D02*
G01*
X47300000Y-68840000D01*
X47300000Y-68360000D01*
X47630000Y-68600000D01*
G37*
%TO.C,C32*%
X69738748Y-23265000D02*
X70261252Y-23265000D01*
X69738748Y-24735000D02*
X70261252Y-24735000D01*
%TO.C,R1*%
X63477500Y-6237258D02*
X63477500Y-5762742D01*
X64522500Y-6237258D02*
X64522500Y-5762742D01*
%TO.C,RN8*%
X94500000Y-53320000D02*
X93500000Y-53320000D01*
X94500000Y-56680000D02*
X93500000Y-56680000D01*
%TO.C,C42*%
X20490000Y-66140580D02*
X20490000Y-65859420D01*
X21510000Y-66140580D02*
X21510000Y-65859420D01*
%TO.C,R14*%
X88262742Y-21477500D02*
X88737258Y-21477500D01*
X88262742Y-22522500D02*
X88737258Y-22522500D01*
%TO.C,C10*%
X30490000Y-48140580D02*
X30490000Y-47859420D01*
X31510000Y-48140580D02*
X31510000Y-47859420D01*
%TO.C,SW2*%
X45250000Y-7000000D02*
X45250000Y-9000000D01*
X46300000Y-5700000D02*
X46750000Y-5250000D01*
X46300000Y-10300000D02*
X46750000Y-10750000D01*
X46750000Y-5250000D02*
X49250000Y-5250000D01*
X46750000Y-10750000D02*
X49250000Y-10750000D01*
X49700000Y-5700000D02*
X49250000Y-5250000D01*
X49700000Y-10300000D02*
X49250000Y-10750000D01*
X50750000Y-7000000D02*
X50750000Y-9000000D01*
%TO.C,D4*%
X91515000Y-12265000D02*
X91515000Y-13735000D01*
X91515000Y-13735000D02*
X93800000Y-13735000D01*
X93800000Y-12265000D02*
X91515000Y-12265000D01*
%TO.C,J5*%
X103620000Y-14080000D02*
X105000000Y-14080000D01*
X103620000Y-15460000D02*
X103620000Y-14080000D01*
X103620000Y-16730000D02*
X103620000Y-21920000D01*
X103620000Y-16730000D02*
X106380000Y-16730000D01*
X103620000Y-21920000D02*
X106380000Y-21920000D01*
X106380000Y-16730000D02*
X106380000Y-21920000D01*
%TO.C,R6*%
X28477500Y-51237258D02*
X28477500Y-50762742D01*
X29522500Y-51237258D02*
X29522500Y-50762742D01*
%TO.C,C6*%
X38290000Y-30711252D02*
X38290000Y-29288748D01*
X40110000Y-30711252D02*
X40110000Y-29288748D01*
%TO.C,R15*%
X88262742Y-24477500D02*
X88737258Y-24477500D01*
X88262742Y-25522500D02*
X88737258Y-25522500D01*
%TO.C,C31*%
X39738748Y-23265000D02*
X40261252Y-23265000D01*
X39738748Y-24735000D02*
X40261252Y-24735000D01*
%TO.C,C12*%
X32859420Y-54490000D02*
X33140580Y-54490000D01*
X32859420Y-55510000D02*
X33140580Y-55510000D01*
%TO.C,C38*%
X36540580Y-40890000D02*
X36259420Y-40890000D01*
X36540580Y-41910000D02*
X36259420Y-41910000D01*
%TO.C,C25*%
X69059420Y-37240000D02*
X69340580Y-37240000D01*
X69059420Y-38260000D02*
X69340580Y-38260000D01*
%TO.C,C2*%
X28288748Y-24290000D02*
X29711252Y-24290000D01*
X28288748Y-26110000D02*
X29711252Y-26110000D01*
%TO.C,U2*%
X24090000Y-28440000D02*
X25910000Y-28440000D01*
X24090000Y-28490000D02*
X24090000Y-28440000D01*
X24090000Y-31560000D02*
X24090000Y-31510000D01*
X25910000Y-28440000D02*
X25910000Y-28490000D01*
X25910000Y-31510000D02*
X25910000Y-31560000D01*
X25910000Y-31560000D02*
X24090000Y-31560000D01*
X26450000Y-31510000D02*
X26690000Y-31840000D01*
X26210000Y-31840000D01*
X26450000Y-31510000D01*
G36*
X26690000Y-31840000D02*
G01*
X26210000Y-31840000D01*
X26450000Y-31510000D01*
X26690000Y-31840000D01*
G37*
%TO.C,C26*%
X69059420Y-30740000D02*
X69340580Y-30740000D01*
X69059420Y-31760000D02*
X69340580Y-31760000D01*
%TO.C,J6*%
X5470000Y-75445000D02*
X56530000Y-75445000D01*
X5470000Y-84565000D02*
X5470000Y-75445000D01*
X6770000Y-76755000D02*
X55230000Y-76755000D01*
X6770000Y-83255000D02*
X6770000Y-76755000D01*
X10180000Y-85955000D02*
X11180000Y-85955000D01*
X10680000Y-84955000D02*
X10180000Y-85955000D01*
X11180000Y-85955000D02*
X10680000Y-84955000D01*
X28950000Y-83255000D02*
X6770000Y-83255000D01*
X28950000Y-84565000D02*
X28950000Y-83255000D01*
X33050000Y-83255000D02*
X33050000Y-84565000D01*
X55230000Y-76755000D02*
X55230000Y-83255000D01*
X55230000Y-83255000D02*
X33050000Y-83255000D01*
X56530000Y-75445000D02*
X56530000Y-84565000D01*
X56530000Y-84565000D02*
X5470000Y-84565000D01*
%TO.C,C20*%
X46740000Y-54059420D02*
X46740000Y-54340580D01*
X47760000Y-54059420D02*
X47760000Y-54340580D01*
%TO.C,D6*%
X91515000Y-18265000D02*
X91515000Y-19735000D01*
X91515000Y-19735000D02*
X93800000Y-19735000D01*
X93800000Y-18265000D02*
X91515000Y-18265000D01*
%TO.C,C33*%
X36359420Y-46990000D02*
X36640580Y-46990000D01*
X36359420Y-48010000D02*
X36640580Y-48010000D01*
%TO.C,R12*%
X88262742Y-15477500D02*
X88737258Y-15477500D01*
X88262742Y-16522500D02*
X88737258Y-16522500D01*
%TO.C,C22*%
X58240000Y-54059420D02*
X58240000Y-54340580D01*
X59260000Y-54059420D02*
X59260000Y-54340580D01*
%TO.C,U4*%
X14150000Y-54590000D02*
X17910000Y-54590000D01*
X14150000Y-61410000D02*
X17910000Y-61410000D01*
X17910000Y-54590000D02*
X17910000Y-55850000D01*
X17910000Y-61410000D02*
X17910000Y-60150000D01*
X12870000Y-54690000D02*
X12630000Y-54360000D01*
X13110000Y-54360000D01*
X12870000Y-54690000D01*
G36*
X12870000Y-54690000D02*
G01*
X12630000Y-54360000D01*
X13110000Y-54360000D01*
X12870000Y-54690000D01*
G37*
%TO.C,C29*%
X45740000Y-25940580D02*
X45740000Y-25659420D01*
X46760000Y-25940580D02*
X46760000Y-25659420D01*
%TO.C,R9*%
X75477500Y-24237258D02*
X75477500Y-23762742D01*
X76522500Y-24237258D02*
X76522500Y-23762742D01*
%TO.C,C13*%
X8400000Y-43490000D02*
X9400000Y-43490000D01*
X8900000Y-42990000D02*
X8900000Y-43990000D01*
X9640000Y-42704437D02*
X9640000Y-44490000D01*
X9640000Y-42704437D02*
X10704437Y-41640000D01*
X9640000Y-49295563D02*
X9640000Y-47510000D01*
X9640000Y-49295563D02*
X10704437Y-50360000D01*
X10704437Y-41640000D02*
X18360000Y-41640000D01*
X10704437Y-50360000D02*
X18360000Y-50360000D01*
X18360000Y-41640000D02*
X18360000Y-44490000D01*
X18360000Y-50360000D02*
X18360000Y-47510000D01*
%TO.C,C14*%
X7765000Y-58261252D02*
X7765000Y-57738748D01*
X9235000Y-58261252D02*
X9235000Y-57738748D01*
%TO.C,R7*%
X30977500Y-51737258D02*
X30977500Y-51262742D01*
X32022500Y-51737258D02*
X32022500Y-51262742D01*
%TO.C,R3*%
X21062742Y-26377500D02*
X21537258Y-26377500D01*
X21062742Y-27422500D02*
X21537258Y-27422500D01*
%TO.C,C24*%
X69059420Y-42740000D02*
X69340580Y-42740000D01*
X69059420Y-43760000D02*
X69340580Y-43760000D01*
%TO.C,RN7*%
X90500000Y-53320000D02*
X89500000Y-53320000D01*
X90500000Y-56680000D02*
X89500000Y-56680000D01*
%TO.C,U10*%
X79940000Y-47565000D02*
X84060000Y-47565000D01*
X79940000Y-47630000D02*
X79940000Y-47565000D01*
X79940000Y-56435000D02*
X79940000Y-56370000D01*
X84060000Y-47565000D02*
X84060000Y-47630000D01*
X84060000Y-56370000D02*
X84060000Y-56435000D01*
X84060000Y-56435000D02*
X79940000Y-56435000D01*
X79400000Y-47630000D02*
X79160000Y-47300000D01*
X79640000Y-47300000D01*
X79400000Y-47630000D01*
G36*
X79400000Y-47630000D02*
G01*
X79160000Y-47300000D01*
X79640000Y-47300000D01*
X79400000Y-47630000D01*
G37*
%TO.C,C16*%
X24990000Y-57140580D02*
X24990000Y-56859420D01*
X26010000Y-57140580D02*
X26010000Y-56859420D01*
%TO.C,C37*%
X37859420Y-12990000D02*
X38140580Y-12990000D01*
X37859420Y-14010000D02*
X38140580Y-14010000D01*
%TO.C,RN6*%
X80500000Y-69320000D02*
X79500000Y-69320000D01*
X80500000Y-72680000D02*
X79500000Y-72680000D01*
%TO.C,L1*%
X27900000Y-26900000D02*
X27900000Y-27350000D01*
X27900000Y-26900000D02*
X34100000Y-26900000D01*
X27900000Y-33100000D02*
X27900000Y-32650000D01*
X34100000Y-26900000D02*
X34100000Y-27350000D01*
X34100000Y-33100000D02*
X27900000Y-33100000D01*
X34100000Y-33100000D02*
X34100000Y-32650000D01*
%TO.C,C5*%
X35690000Y-30711252D02*
X35690000Y-29288748D01*
X37510000Y-30711252D02*
X37510000Y-29288748D01*
%TO.C,R4*%
X21537258Y-28477500D02*
X21062742Y-28477500D01*
X21537258Y-29522500D02*
X21062742Y-29522500D01*
%TO.C,C9*%
X22990000Y-49640580D02*
X22990000Y-49359420D01*
X24010000Y-49640580D02*
X24010000Y-49359420D01*
%TO.C,U1*%
X71090000Y-14440000D02*
X72910000Y-14440000D01*
X71090000Y-14490000D02*
X71090000Y-14440000D01*
X71090000Y-17560000D02*
X71090000Y-17510000D01*
X72910000Y-14440000D02*
X72910000Y-14490000D01*
X72910000Y-17510000D02*
X72910000Y-17560000D01*
X72910000Y-17560000D02*
X71090000Y-17560000D01*
X70550000Y-14490000D02*
X70310000Y-14160000D01*
X70790000Y-14160000D01*
X70550000Y-14490000D01*
G36*
X70550000Y-14490000D02*
G01*
X70310000Y-14160000D01*
X70790000Y-14160000D01*
X70550000Y-14490000D01*
G37*
%TO.C,R13*%
X88262742Y-18477500D02*
X88737258Y-18477500D01*
X88262742Y-19522500D02*
X88737258Y-19522500D01*
%TO.C,C4*%
X24859420Y-32290000D02*
X25140580Y-32290000D01*
X24859420Y-33310000D02*
X25140580Y-33310000D01*
%TO.C,J2*%
X9400000Y-245000D02*
X18600000Y-245000D01*
X9400000Y-9045000D02*
X9400000Y-245000D01*
X9400000Y-14945000D02*
X9400000Y-13045000D01*
X12100000Y-14945000D02*
X9400000Y-14945000D01*
X17750000Y-15145000D02*
X18800000Y-15145000D01*
X18600000Y-245000D02*
X18600000Y-14945000D01*
X18600000Y-14945000D02*
X16000000Y-14945000D01*
X18800000Y-14095000D02*
X18800000Y-15145000D01*
%TO.C,C15*%
X22265000Y-57261252D02*
X22265000Y-56738748D01*
X23735000Y-57261252D02*
X23735000Y-56738748D01*
%TO.C,RN3*%
X50500000Y-70320000D02*
X49500000Y-70320000D01*
X50500000Y-73680000D02*
X49500000Y-73680000D01*
%TO.C,Y1*%
X38090000Y-40540000D02*
X38090000Y-44660000D01*
X41510000Y-40540000D02*
X38090000Y-40540000D01*
%TO.C,D5*%
X91515000Y-15265000D02*
X91515000Y-16735000D01*
X91515000Y-16735000D02*
X93800000Y-16735000D01*
X93800000Y-15265000D02*
X91515000Y-15265000D01*
%TO.C,C21*%
X53240000Y-54059420D02*
X53240000Y-54340580D01*
X54260000Y-54059420D02*
X54260000Y-54340580D01*
%TO.C,C43*%
X59265000Y-66261252D02*
X59265000Y-65738748D01*
X60735000Y-66261252D02*
X60735000Y-65738748D01*
%TO.C,U9*%
X79940000Y-33565000D02*
X84060000Y-33565000D01*
X79940000Y-33630000D02*
X79940000Y-33565000D01*
X79940000Y-42435000D02*
X79940000Y-42370000D01*
X84060000Y-33565000D02*
X84060000Y-33630000D01*
X84060000Y-42370000D02*
X84060000Y-42435000D01*
X84060000Y-42435000D02*
X79940000Y-42435000D01*
X79400000Y-33630000D02*
X79160000Y-33300000D01*
X79640000Y-33300000D01*
X79400000Y-33630000D01*
G36*
X79400000Y-33630000D02*
G01*
X79160000Y-33300000D01*
X79640000Y-33300000D01*
X79400000Y-33630000D01*
G37*
%TO.C,D7*%
X91515000Y-21265000D02*
X91515000Y-22735000D01*
X91515000Y-22735000D02*
X93800000Y-22735000D01*
X93800000Y-21265000D02*
X91515000Y-21265000D01*
%TO.C,U5*%
X44890000Y-29890000D02*
X45840000Y-29890000D01*
X44890000Y-30840000D02*
X44890000Y-29890000D01*
X44890000Y-50110000D02*
X44890000Y-49160000D01*
X45840000Y-50110000D02*
X44890000Y-50110000D01*
X64160000Y-29890000D02*
X65110000Y-29890000D01*
X65110000Y-29890000D02*
X65110000Y-30840000D01*
X65110000Y-49160000D02*
X65110000Y-50110000D01*
X65110000Y-50110000D02*
X64160000Y-50110000D01*
X44250000Y-30840000D02*
X43910000Y-30370000D01*
X44590000Y-30370000D01*
X44250000Y-30840000D01*
G36*
X44250000Y-30840000D02*
G01*
X43910000Y-30370000D01*
X44590000Y-30370000D01*
X44250000Y-30840000D01*
G37*
%TO.C,F1*%
X86290000Y-7386252D02*
X86290000Y-4613748D01*
X89710000Y-7386252D02*
X89710000Y-4613748D01*
%TO.C,C27*%
X57240000Y-25940580D02*
X57240000Y-25659420D01*
X58260000Y-25940580D02*
X58260000Y-25659420D01*
%TO.C,R11*%
X88262742Y-12477500D02*
X88737258Y-12477500D01*
X88262742Y-13522500D02*
X88737258Y-13522500D01*
%TO.C,C44*%
X81859420Y-30490000D02*
X82140580Y-30490000D01*
X81859420Y-31510000D02*
X82140580Y-31510000D01*
%TO.C,RN5*%
X29000000Y-68820000D02*
X28000000Y-68820000D01*
X29000000Y-72180000D02*
X28000000Y-72180000D01*
%TO.C,D2*%
X6090000Y-17750000D02*
X14600000Y-17750000D01*
X6090000Y-24250000D02*
X6090000Y-17750000D01*
X6090000Y-24250000D02*
X14600000Y-24250000D01*
%TO.C,U6*%
X33565000Y-63940000D02*
X33630000Y-63940000D01*
X33565000Y-68060000D02*
X33565000Y-63940000D01*
X33630000Y-68060000D02*
X33565000Y-68060000D01*
X42370000Y-63940000D02*
X42435000Y-63940000D01*
X42435000Y-63940000D02*
X42435000Y-68060000D01*
X42435000Y-68060000D02*
X42370000Y-68060000D01*
X33630000Y-68600000D02*
X33300000Y-68840000D01*
X33300000Y-68360000D01*
X33630000Y-68600000D01*
G36*
X33630000Y-68600000D02*
G01*
X33300000Y-68840000D01*
X33300000Y-68360000D01*
X33630000Y-68600000D01*
G37*
%TO.C,C28*%
X52240000Y-25940580D02*
X52240000Y-25659420D01*
X53260000Y-25940580D02*
X53260000Y-25659420D01*
%TO.C,C23*%
X63240000Y-54059420D02*
X63240000Y-54340580D01*
X64260000Y-54059420D02*
X64260000Y-54340580D01*
%TO.C,J1*%
X67300000Y-3415000D02*
X67300000Y-5415000D01*
X67300000Y-7315000D02*
X67300000Y-9215000D01*
X67300000Y-9215000D02*
X76700000Y-9215000D01*
X76700000Y-3415000D02*
X76700000Y-5415000D01*
X76700000Y-7315000D02*
X76700000Y-9215000D01*
%TO.C,D3*%
X3350000Y-34510000D02*
X3350000Y-29000000D01*
X3350000Y-34510000D02*
X6650000Y-34510000D01*
X6650000Y-34510000D02*
X6650000Y-29000000D01*
%TO.C,C7*%
X36090000Y-34140580D02*
X36090000Y-33859420D01*
X37110000Y-34140580D02*
X37110000Y-33859420D01*
%TO.C,C3*%
X25140580Y-26790000D02*
X24859420Y-26790000D01*
X25140580Y-27810000D02*
X24859420Y-27810000D01*
%TO.C,FB1*%
X36337221Y-51990000D02*
X36662779Y-51990000D01*
X36337221Y-53010000D02*
X36662779Y-53010000D01*
%TO.C,C41*%
X51859420Y-59990000D02*
X52140580Y-59990000D01*
X51859420Y-61010000D02*
X52140580Y-61010000D01*
%TO.C,J7*%
X64820000Y-75445000D02*
X103180000Y-75445000D01*
X64820000Y-84565000D02*
X64820000Y-75445000D01*
X66120000Y-76755000D02*
X101880000Y-76755000D01*
X66120000Y-83255000D02*
X66120000Y-76755000D01*
X69530000Y-85955000D02*
X70530000Y-85955000D01*
X70030000Y-84955000D02*
X69530000Y-85955000D01*
X70530000Y-85955000D02*
X70030000Y-84955000D01*
X81950000Y-83255000D02*
X66120000Y-83255000D01*
X81950000Y-84565000D02*
X81950000Y-83255000D01*
X86050000Y-83255000D02*
X86050000Y-84565000D01*
X101880000Y-76755000D02*
X101880000Y-83255000D01*
X101880000Y-83255000D02*
X86050000Y-83255000D01*
X103180000Y-75445000D02*
X103180000Y-84565000D01*
X103180000Y-84565000D02*
X64820000Y-84565000D01*
%TO.C,R2*%
X79477500Y-6237258D02*
X79477500Y-5762742D01*
X80522500Y-6237258D02*
X80522500Y-5762742D01*
%TO.C,C39*%
X36540580Y-43290000D02*
X36259420Y-43290000D01*
X36540580Y-44310000D02*
X36259420Y-44310000D01*
%TO.C,C40*%
X37859420Y-59990000D02*
X38140580Y-59990000D01*
X37859420Y-61010000D02*
X38140580Y-61010000D01*
%TO.C,D8*%
X91515000Y-24265000D02*
X91515000Y-25735000D01*
X91515000Y-25735000D02*
X93800000Y-25735000D01*
X93800000Y-24265000D02*
X91515000Y-24265000D01*
%TO.C,D1*%
X82990000Y-16360000D02*
X82990000Y-12600000D01*
X82990000Y-16360000D02*
X85010000Y-16360000D01*
X85010000Y-16360000D02*
X85010000Y-12600000D01*
%TO.C,U8*%
X9565000Y-65940000D02*
X9630000Y-65940000D01*
X9565000Y-70060000D02*
X9565000Y-65940000D01*
X9630000Y-70060000D02*
X9565000Y-70060000D01*
X18370000Y-65940000D02*
X18435000Y-65940000D01*
X18435000Y-65940000D02*
X18435000Y-70060000D01*
X18435000Y-70060000D02*
X18370000Y-70060000D01*
X9630000Y-70600000D02*
X9300000Y-70840000D01*
X9300000Y-70360000D01*
X9630000Y-70600000D01*
G36*
X9630000Y-70600000D02*
G01*
X9300000Y-70840000D01*
X9300000Y-70360000D01*
X9630000Y-70600000D01*
G37*
%TO.C,C18*%
X40940580Y-38740000D02*
X40659420Y-38740000D01*
X40940580Y-39760000D02*
X40659420Y-39760000D01*
%TO.C,C36*%
X72238748Y-31515000D02*
X72761252Y-31515000D01*
X72238748Y-32985000D02*
X72761252Y-32985000D01*
%TO.C,C1*%
X7900000Y-30990000D02*
X8900000Y-30990000D01*
X8400000Y-30490000D02*
X8400000Y-31490000D01*
X9140000Y-30204437D02*
X9140000Y-31990000D01*
X9140000Y-30204437D02*
X10204437Y-29140000D01*
X9140000Y-36795563D02*
X9140000Y-35010000D01*
X9140000Y-36795563D02*
X10204437Y-37860000D01*
X10204437Y-29140000D02*
X17860000Y-29140000D01*
X10204437Y-37860000D02*
X17860000Y-37860000D01*
X17860000Y-29140000D02*
X17860000Y-31990000D01*
X17860000Y-37860000D02*
X17860000Y-35010000D01*
%TO.C,SW1*%
X35250000Y-7000000D02*
X35250000Y-9000000D01*
X36300000Y-5700000D02*
X36750000Y-5250000D01*
X36300000Y-10300000D02*
X36750000Y-10750000D01*
X36750000Y-5250000D02*
X39250000Y-5250000D01*
X36750000Y-10750000D02*
X39250000Y-10750000D01*
X39700000Y-5700000D02*
X39250000Y-5250000D01*
X39700000Y-10300000D02*
X39250000Y-10750000D01*
X40750000Y-7000000D02*
X40750000Y-9000000D01*
%TO.C,R8*%
X47762742Y-12977500D02*
X48237258Y-12977500D01*
X47762742Y-14022500D02*
X48237258Y-14022500D01*
%TO.C,RN4*%
X25000000Y-68820000D02*
X24000000Y-68820000D01*
X25000000Y-72180000D02*
X24000000Y-72180000D01*
%TO.C,J3*%
X435000Y-46810000D02*
X1815000Y-46810000D01*
X435000Y-48190000D02*
X435000Y-46810000D01*
X435000Y-49460000D02*
X435000Y-57190000D01*
X435000Y-49460000D02*
X3195000Y-49460000D01*
X435000Y-57190000D02*
X3195000Y-57190000D01*
X3195000Y-49460000D02*
X3195000Y-57190000D01*
%TO.C,RN1*%
X35500000Y-70320000D02*
X34500000Y-70320000D01*
X35500000Y-73680000D02*
X34500000Y-73680000D01*
%TO.C,C45*%
X81859420Y-44490000D02*
X82140580Y-44490000D01*
X81859420Y-45510000D02*
X82140580Y-45510000D01*
%TO.C,C35*%
X66738748Y-54765000D02*
X67261252Y-54765000D01*
X66738748Y-56235000D02*
X67261252Y-56235000D01*
%TO.C,RN2*%
X41500000Y-70320000D02*
X40500000Y-70320000D01*
X41500000Y-73680000D02*
X40500000Y-73680000D01*
%TO.C,J4*%
X94185000Y-2650000D02*
X95365000Y-2650000D01*
X94185000Y-3460000D02*
X94185000Y-2650000D01*
X94185000Y-4270000D02*
X94185000Y-9285000D01*
X94185000Y-4270000D02*
X94698292Y-4270000D01*
X94185000Y-9285000D02*
X95047077Y-9285000D01*
X95682923Y-9285000D02*
X96317077Y-9285000D01*
X96952923Y-2715000D02*
X97815000Y-2715000D01*
X96952923Y-9285000D02*
X97815000Y-9285000D01*
X97815000Y-2715000D02*
X97815000Y-9285000D01*
%TO.C,C19*%
X40940580Y-45240000D02*
X40659420Y-45240000D01*
X40940580Y-46260000D02*
X40659420Y-46260000D01*
%TO.C,J8*%
X106405000Y-32270000D02*
X107785000Y-32270000D01*
X106405000Y-33650000D02*
X106405000Y-32270000D01*
X106405000Y-34920000D02*
X106405000Y-47730000D01*
X106405000Y-34920000D02*
X109165000Y-34920000D01*
X106405000Y-47730000D02*
X109165000Y-47730000D01*
X109165000Y-34920000D02*
X109165000Y-47730000D01*
%TD*%
%LPC*%
D12*
%TO.C,C34*%
X35725000Y-50000000D03*
X37275000Y-50000000D03*
%TD*%
D13*
%TO.C,R5*%
X27000000Y-51825000D03*
X27000000Y-50175000D03*
%TD*%
D14*
%TO.C,C17*%
X41575000Y-33750000D03*
X40025000Y-33750000D03*
%TD*%
D15*
%TO.C,C11*%
X28050000Y-55000000D03*
X29950000Y-55000000D03*
%TD*%
D12*
%TO.C,C30*%
X71725000Y-37750000D03*
X73275000Y-37750000D03*
%TD*%
D16*
%TO.C,C8*%
X23500000Y-46775000D03*
X23500000Y-45225000D03*
%TD*%
D17*
%TO.C,U3*%
X26260000Y-46250000D03*
X26260000Y-46750000D03*
X26260000Y-47250000D03*
X26260000Y-47750000D03*
X27740000Y-47750000D03*
X27740000Y-47250000D03*
X27740000Y-46750000D03*
X27740000Y-46250000D03*
%TD*%
D13*
%TO.C,R10*%
X79000000Y-24825000D03*
X79000000Y-23175000D03*
%TD*%
D18*
%TO.C,U7*%
X48190000Y-68475000D03*
X49460000Y-68475000D03*
X50730000Y-68475000D03*
X52000000Y-68475000D03*
X53270000Y-68475000D03*
X54540000Y-68475000D03*
X55810000Y-68475000D03*
X55810000Y-63525000D03*
X54540000Y-63525000D03*
X53270000Y-63525000D03*
X52000000Y-63525000D03*
X50730000Y-63525000D03*
X49460000Y-63525000D03*
X48190000Y-63525000D03*
%TD*%
D15*
%TO.C,C32*%
X69050000Y-24000000D03*
X70950000Y-24000000D03*
%TD*%
D13*
%TO.C,R1*%
X64000000Y-6825000D03*
X64000000Y-5175000D03*
%TD*%
D19*
%TO.C,RN8*%
X93100000Y-53800000D03*
D20*
X93100000Y-54600000D03*
X93100000Y-55400000D03*
D19*
X93100000Y-56200000D03*
X94900000Y-56200000D03*
D20*
X94900000Y-55400000D03*
X94900000Y-54600000D03*
D19*
X94900000Y-53800000D03*
%TD*%
D16*
%TO.C,C42*%
X21000000Y-66775000D03*
X21000000Y-65225000D03*
%TD*%
D21*
%TO.C,R14*%
X87675000Y-22000000D03*
X89325000Y-22000000D03*
%TD*%
D22*
%TO.C,H3*%
X1100000Y-71000000D03*
X1802944Y-69302944D03*
X1802944Y-72697056D03*
X3500000Y-68600000D03*
D23*
X3500000Y-71000000D03*
D22*
X3500000Y-73400000D03*
X5197056Y-69302944D03*
X5197056Y-72697056D03*
X5900000Y-71000000D03*
%TD*%
D16*
%TO.C,C10*%
X31000000Y-48775000D03*
X31000000Y-47225000D03*
%TD*%
D24*
%TO.C,SW2*%
X44850000Y-6100000D03*
X51150000Y-6100000D03*
X44850000Y-9900000D03*
X51150000Y-9900000D03*
%TD*%
D25*
%TO.C,D4*%
X92212500Y-13000000D03*
X93787500Y-13000000D03*
%TD*%
D26*
%TO.C,J5*%
X105000000Y-15460000D03*
D27*
X105000000Y-18000000D03*
X105000000Y-20540000D03*
%TD*%
D13*
%TO.C,R6*%
X29000000Y-51825000D03*
X29000000Y-50175000D03*
%TD*%
D28*
%TO.C,C6*%
X39200000Y-31475000D03*
X39200000Y-28525000D03*
%TD*%
D21*
%TO.C,R15*%
X87675000Y-25000000D03*
X89325000Y-25000000D03*
%TD*%
D15*
%TO.C,C31*%
X39050000Y-24000000D03*
X40950000Y-24000000D03*
%TD*%
D22*
%TO.C,H2*%
X104100000Y-3500000D03*
X104802944Y-1802944D03*
X104802944Y-5197056D03*
X106500000Y-1100000D03*
D23*
X106500000Y-3500000D03*
D22*
X106500000Y-5900000D03*
X108197056Y-1802944D03*
X108197056Y-5197056D03*
X108900000Y-3500000D03*
%TD*%
D12*
%TO.C,C12*%
X32225000Y-55000000D03*
X33775000Y-55000000D03*
%TD*%
D14*
%TO.C,C38*%
X37175000Y-41400000D03*
X35625000Y-41400000D03*
%TD*%
D12*
%TO.C,C25*%
X68425000Y-37750000D03*
X69975000Y-37750000D03*
%TD*%
D29*
%TO.C,C2*%
X27525000Y-25200000D03*
X30475000Y-25200000D03*
%TD*%
D30*
%TO.C,U2*%
X26137500Y-30950000D03*
X26137500Y-30000000D03*
X26137500Y-29050000D03*
X23862500Y-29050000D03*
X23862500Y-30000000D03*
X23862500Y-30950000D03*
%TD*%
D12*
%TO.C,C26*%
X68425000Y-31250000D03*
X69975000Y-31250000D03*
%TD*%
D31*
%TO.C,J6*%
X10680000Y-81275000D03*
D27*
X10680000Y-78735000D03*
X13220000Y-81275000D03*
X13220000Y-78735000D03*
X15760000Y-81275000D03*
X15760000Y-78735000D03*
X18300000Y-81275000D03*
X18300000Y-78735000D03*
X20840000Y-81275000D03*
X20840000Y-78735000D03*
X23380000Y-81275000D03*
X23380000Y-78735000D03*
X25920000Y-81275000D03*
X25920000Y-78735000D03*
X28460000Y-81275000D03*
X28460000Y-78735000D03*
X31000000Y-81275000D03*
X31000000Y-78735000D03*
X33540000Y-81275000D03*
X33540000Y-78735000D03*
X36080000Y-81275000D03*
X36080000Y-78735000D03*
X38620000Y-81275000D03*
X38620000Y-78735000D03*
X41160000Y-81275000D03*
X41160000Y-78735000D03*
X43700000Y-81275000D03*
X43700000Y-78735000D03*
X46240000Y-81275000D03*
X46240000Y-78735000D03*
X48780000Y-81275000D03*
X48780000Y-78735000D03*
X51320000Y-81275000D03*
X51320000Y-78735000D03*
%TD*%
D32*
%TO.C,C20*%
X47250000Y-53425000D03*
X47250000Y-54975000D03*
%TD*%
D25*
%TO.C,D6*%
X92212500Y-19000000D03*
X93787500Y-19000000D03*
%TD*%
D12*
%TO.C,C33*%
X35725000Y-47500000D03*
X37275000Y-47500000D03*
%TD*%
D21*
%TO.C,R12*%
X87675000Y-16000000D03*
X89325000Y-16000000D03*
%TD*%
D32*
%TO.C,C22*%
X58750000Y-53425000D03*
X58750000Y-54975000D03*
%TD*%
D33*
%TO.C,U4*%
X12850000Y-55700000D03*
X12850000Y-58000000D03*
D34*
X19150000Y-58000000D03*
D33*
X12850000Y-60300000D03*
%TD*%
D16*
%TO.C,C29*%
X46250000Y-26575000D03*
X46250000Y-25025000D03*
%TD*%
D13*
%TO.C,R9*%
X76000000Y-24825000D03*
X76000000Y-23175000D03*
%TD*%
D35*
%TO.C,C13*%
X10300000Y-46000000D03*
X17700000Y-46000000D03*
%TD*%
D36*
%TO.C,C14*%
X8500000Y-58950000D03*
X8500000Y-57050000D03*
%TD*%
D13*
%TO.C,R7*%
X31500000Y-52325000D03*
X31500000Y-50675000D03*
%TD*%
D21*
%TO.C,R3*%
X20475000Y-26900000D03*
X22125000Y-26900000D03*
%TD*%
D12*
%TO.C,C24*%
X68425000Y-43250000D03*
X69975000Y-43250000D03*
%TD*%
D19*
%TO.C,RN7*%
X89100000Y-53800000D03*
D20*
X89100000Y-54600000D03*
X89100000Y-55400000D03*
D19*
X89100000Y-56200000D03*
X90900000Y-56200000D03*
D20*
X90900000Y-55400000D03*
X90900000Y-54600000D03*
D19*
X90900000Y-53800000D03*
%TD*%
D37*
%TO.C,U10*%
X79525000Y-48190000D03*
X79525000Y-49460000D03*
X79525000Y-50730000D03*
X79525000Y-52000000D03*
X79525000Y-53270000D03*
X79525000Y-54540000D03*
X79525000Y-55810000D03*
X84475000Y-55810000D03*
X84475000Y-54540000D03*
X84475000Y-53270000D03*
X84475000Y-52000000D03*
X84475000Y-50730000D03*
X84475000Y-49460000D03*
X84475000Y-48190000D03*
%TD*%
D16*
%TO.C,C16*%
X25500000Y-57775000D03*
X25500000Y-56225000D03*
%TD*%
D12*
%TO.C,C37*%
X37225000Y-13500000D03*
X38775000Y-13500000D03*
%TD*%
D19*
%TO.C,RN6*%
X79100000Y-69800000D03*
D20*
X79100000Y-70600000D03*
X79100000Y-71400000D03*
D19*
X79100000Y-72200000D03*
X80900000Y-72200000D03*
D20*
X80900000Y-71400000D03*
X80900000Y-70600000D03*
D19*
X80900000Y-69800000D03*
%TD*%
D38*
%TO.C,L1*%
X28925000Y-30000000D03*
X33075000Y-30000000D03*
%TD*%
D28*
%TO.C,C5*%
X36600000Y-31475000D03*
X36600000Y-28525000D03*
%TD*%
D39*
%TO.C,R4*%
X22125000Y-29000000D03*
X20475000Y-29000000D03*
%TD*%
D16*
%TO.C,C9*%
X23500000Y-50275000D03*
X23500000Y-48725000D03*
%TD*%
D40*
%TO.C,U1*%
X70862500Y-15050000D03*
X70862500Y-16000000D03*
X70862500Y-16950000D03*
X73137500Y-16950000D03*
X73137500Y-16000000D03*
X73137500Y-15050000D03*
%TD*%
D21*
%TO.C,R13*%
X87675000Y-19000000D03*
X89325000Y-19000000D03*
%TD*%
D12*
%TO.C,C4*%
X24225000Y-32800000D03*
X25775000Y-32800000D03*
%TD*%
D41*
%TO.C,J2*%
X14000000Y-14045000D03*
D42*
X14000000Y-8045000D03*
D43*
X9300000Y-11045000D03*
%TD*%
D36*
%TO.C,C15*%
X23000000Y-57950000D03*
X23000000Y-56050000D03*
%TD*%
D19*
%TO.C,RN3*%
X49100000Y-70800000D03*
D20*
X49100000Y-71600000D03*
X49100000Y-72400000D03*
D19*
X49100000Y-73200000D03*
X50900000Y-73200000D03*
D20*
X50900000Y-72400000D03*
X50900000Y-71600000D03*
D19*
X50900000Y-70800000D03*
%TD*%
D44*
%TO.C,Y1*%
X38950000Y-41500000D03*
X38950000Y-43700000D03*
X40650000Y-43700000D03*
X40650000Y-41500000D03*
%TD*%
D25*
%TO.C,D5*%
X92212500Y-16000000D03*
X93787500Y-16000000D03*
%TD*%
D32*
%TO.C,C21*%
X53750000Y-53425000D03*
X53750000Y-54975000D03*
%TD*%
D36*
%TO.C,C43*%
X60000000Y-66950000D03*
X60000000Y-65050000D03*
%TD*%
D37*
%TO.C,U9*%
X79525000Y-34190000D03*
X79525000Y-35460000D03*
X79525000Y-36730000D03*
X79525000Y-38000000D03*
X79525000Y-39270000D03*
X79525000Y-40540000D03*
X79525000Y-41810000D03*
X84475000Y-41810000D03*
X84475000Y-40540000D03*
X84475000Y-39270000D03*
X84475000Y-38000000D03*
X84475000Y-36730000D03*
X84475000Y-35460000D03*
X84475000Y-34190000D03*
%TD*%
D25*
%TO.C,D7*%
X92212500Y-22000000D03*
X93787500Y-22000000D03*
%TD*%
D45*
%TO.C,U5*%
X44337500Y-31250000D03*
X44337500Y-31750000D03*
X44337500Y-32250000D03*
X44337500Y-32750000D03*
X44337500Y-33250000D03*
X44337500Y-33750000D03*
X44337500Y-34250000D03*
X44337500Y-34750000D03*
X44337500Y-35250000D03*
X44337500Y-35750000D03*
X44337500Y-36250000D03*
X44337500Y-36750000D03*
X44337500Y-37250000D03*
X44337500Y-37750000D03*
X44337500Y-38250000D03*
X44337500Y-38750000D03*
X44337500Y-39250000D03*
X44337500Y-39750000D03*
X44337500Y-40250000D03*
X44337500Y-40750000D03*
X44337500Y-41250000D03*
X44337500Y-41750000D03*
X44337500Y-42250000D03*
X44337500Y-42750000D03*
X44337500Y-43250000D03*
X44337500Y-43750000D03*
X44337500Y-44250000D03*
X44337500Y-44750000D03*
X44337500Y-45250000D03*
X44337500Y-45750000D03*
X44337500Y-46250000D03*
X44337500Y-46750000D03*
X44337500Y-47250000D03*
X44337500Y-47750000D03*
X44337500Y-48250000D03*
X44337500Y-48750000D03*
D46*
X46250000Y-50662500D03*
X46750000Y-50662500D03*
X47250000Y-50662500D03*
X47750000Y-50662500D03*
X48250000Y-50662500D03*
X48750000Y-50662500D03*
X49250000Y-50662500D03*
X49750000Y-50662500D03*
X50250000Y-50662500D03*
X50750000Y-50662500D03*
X51250000Y-50662500D03*
X51750000Y-50662500D03*
X52250000Y-50662500D03*
X52750000Y-50662500D03*
X53250000Y-50662500D03*
X53750000Y-50662500D03*
X54250000Y-50662500D03*
X54750000Y-50662500D03*
X55250000Y-50662500D03*
X55750000Y-50662500D03*
X56250000Y-50662500D03*
X56750000Y-50662500D03*
X57250000Y-50662500D03*
X57750000Y-50662500D03*
X58250000Y-50662500D03*
X58750000Y-50662500D03*
X59250000Y-50662500D03*
X59750000Y-50662500D03*
X60250000Y-50662500D03*
X60750000Y-50662500D03*
X61250000Y-50662500D03*
X61750000Y-50662500D03*
X62250000Y-50662500D03*
X62750000Y-50662500D03*
X63250000Y-50662500D03*
X63750000Y-50662500D03*
D45*
X65662500Y-48750000D03*
X65662500Y-48250000D03*
X65662500Y-47750000D03*
X65662500Y-47250000D03*
X65662500Y-46750000D03*
X65662500Y-46250000D03*
X65662500Y-45750000D03*
X65662500Y-45250000D03*
X65662500Y-44750000D03*
X65662500Y-44250000D03*
X65662500Y-43750000D03*
X65662500Y-43250000D03*
X65662500Y-42750000D03*
X65662500Y-42250000D03*
X65662500Y-41750000D03*
X65662500Y-41250000D03*
X65662500Y-40750000D03*
X65662500Y-40250000D03*
X65662500Y-39750000D03*
X65662500Y-39250000D03*
X65662500Y-38750000D03*
X65662500Y-38250000D03*
X65662500Y-37750000D03*
X65662500Y-37250000D03*
X65662500Y-36750000D03*
X65662500Y-36250000D03*
X65662500Y-35750000D03*
X65662500Y-35250000D03*
X65662500Y-34750000D03*
X65662500Y-34250000D03*
X65662500Y-33750000D03*
X65662500Y-33250000D03*
X65662500Y-32750000D03*
X65662500Y-32250000D03*
X65662500Y-31750000D03*
X65662500Y-31250000D03*
D46*
X63750000Y-29337500D03*
X63250000Y-29337500D03*
X62750000Y-29337500D03*
X62250000Y-29337500D03*
X61750000Y-29337500D03*
X61250000Y-29337500D03*
X60750000Y-29337500D03*
X60250000Y-29337500D03*
X59750000Y-29337500D03*
X59250000Y-29337500D03*
X58750000Y-29337500D03*
X58250000Y-29337500D03*
X57750000Y-29337500D03*
X57250000Y-29337500D03*
X56750000Y-29337500D03*
X56250000Y-29337500D03*
X55750000Y-29337500D03*
X55250000Y-29337500D03*
X54750000Y-29337500D03*
X54250000Y-29337500D03*
X53750000Y-29337500D03*
X53250000Y-29337500D03*
X52750000Y-29337500D03*
X52250000Y-29337500D03*
X51750000Y-29337500D03*
X51250000Y-29337500D03*
X50750000Y-29337500D03*
X50250000Y-29337500D03*
X49750000Y-29337500D03*
X49250000Y-29337500D03*
X48750000Y-29337500D03*
X48250000Y-29337500D03*
X47750000Y-29337500D03*
X47250000Y-29337500D03*
X46750000Y-29337500D03*
X46250000Y-29337500D03*
%TD*%
D47*
%TO.C,F1*%
X88000000Y-8137500D03*
X88000000Y-3862500D03*
%TD*%
D16*
%TO.C,C27*%
X57750000Y-26575000D03*
X57750000Y-25025000D03*
%TD*%
D21*
%TO.C,R11*%
X87675000Y-13000000D03*
X89325000Y-13000000D03*
%TD*%
D12*
%TO.C,C44*%
X81225000Y-31000000D03*
X82775000Y-31000000D03*
%TD*%
D19*
%TO.C,RN5*%
X27600000Y-69300000D03*
D20*
X27600000Y-70100000D03*
X27600000Y-70900000D03*
D19*
X27600000Y-71700000D03*
X29400000Y-71700000D03*
D20*
X29400000Y-70900000D03*
X29400000Y-70100000D03*
D19*
X29400000Y-69300000D03*
%TD*%
D48*
%TO.C,D2*%
X7600000Y-21000000D03*
X14400000Y-21000000D03*
%TD*%
D22*
%TO.C,H1*%
X1100000Y-3500000D03*
X1802944Y-1802944D03*
X1802944Y-5197056D03*
X3500000Y-1100000D03*
D23*
X3500000Y-3500000D03*
D22*
X3500000Y-5900000D03*
X5197056Y-1802944D03*
X5197056Y-5197056D03*
X5900000Y-3500000D03*
%TD*%
D18*
%TO.C,U6*%
X34190000Y-68475000D03*
X35460000Y-68475000D03*
X36730000Y-68475000D03*
X38000000Y-68475000D03*
X39270000Y-68475000D03*
X40540000Y-68475000D03*
X41810000Y-68475000D03*
X41810000Y-63525000D03*
X40540000Y-63525000D03*
X39270000Y-63525000D03*
X38000000Y-63525000D03*
X36730000Y-63525000D03*
X35460000Y-63525000D03*
X34190000Y-63525000D03*
%TD*%
D16*
%TO.C,C28*%
X52750000Y-26575000D03*
X52750000Y-25025000D03*
%TD*%
D32*
%TO.C,C23*%
X63750000Y-53425000D03*
X63750000Y-54975000D03*
%TD*%
D49*
%TO.C,J1*%
X69110000Y-2715000D03*
X74890000Y-2715000D03*
D50*
X68750000Y-1270000D03*
X69550000Y-1270000D03*
D51*
X70750000Y-1270000D03*
X71750000Y-1270000D03*
X72250000Y-1270000D03*
X73250000Y-1270000D03*
D50*
X74450000Y-1270000D03*
X75250000Y-1270000D03*
X75250000Y-1270000D03*
X74450000Y-1270000D03*
D51*
X73750000Y-1270000D03*
X72750000Y-1270000D03*
X71250000Y-1270000D03*
X70250000Y-1270000D03*
D50*
X69550000Y-1270000D03*
X68750000Y-1270000D03*
D52*
X67680000Y-2185000D03*
D53*
X67680000Y-6365000D03*
D52*
X76320000Y-2185000D03*
D53*
X76320000Y-6365000D03*
%TD*%
D54*
%TO.C,D3*%
X5000000Y-33000000D03*
X5000000Y-29000000D03*
%TD*%
D16*
%TO.C,C7*%
X36600000Y-34775000D03*
X36600000Y-33225000D03*
%TD*%
D14*
%TO.C,C3*%
X25775000Y-27300000D03*
X24225000Y-27300000D03*
%TD*%
D25*
%TO.C,FB1*%
X35712500Y-52500000D03*
X37287500Y-52500000D03*
%TD*%
D12*
%TO.C,C41*%
X51225000Y-60500000D03*
X52775000Y-60500000D03*
%TD*%
D31*
%TO.C,J7*%
X70030000Y-81275000D03*
D27*
X70030000Y-78735000D03*
X72570000Y-81275000D03*
X72570000Y-78735000D03*
X75110000Y-81275000D03*
X75110000Y-78735000D03*
X77650000Y-81275000D03*
X77650000Y-78735000D03*
X80190000Y-81275000D03*
X80190000Y-78735000D03*
X82730000Y-81275000D03*
X82730000Y-78735000D03*
X85270000Y-81275000D03*
X85270000Y-78735000D03*
X87810000Y-81275000D03*
X87810000Y-78735000D03*
X90350000Y-81275000D03*
X90350000Y-78735000D03*
X92890000Y-81275000D03*
X92890000Y-78735000D03*
X95430000Y-81275000D03*
X95430000Y-78735000D03*
X97970000Y-81275000D03*
X97970000Y-78735000D03*
%TD*%
D13*
%TO.C,R2*%
X80000000Y-6825000D03*
X80000000Y-5175000D03*
%TD*%
D14*
%TO.C,C39*%
X37175000Y-43800000D03*
X35625000Y-43800000D03*
%TD*%
D12*
%TO.C,C40*%
X37225000Y-60500000D03*
X38775000Y-60500000D03*
%TD*%
D25*
%TO.C,D8*%
X92212500Y-25000000D03*
X93787500Y-25000000D03*
%TD*%
D55*
%TO.C,D1*%
X84000000Y-15450000D03*
X84000000Y-12550000D03*
%TD*%
D18*
%TO.C,U8*%
X10190000Y-70475000D03*
X11460000Y-70475000D03*
X12730000Y-70475000D03*
X14000000Y-70475000D03*
X15270000Y-70475000D03*
X16540000Y-70475000D03*
X17810000Y-70475000D03*
X17810000Y-65525000D03*
X16540000Y-65525000D03*
X15270000Y-65525000D03*
X14000000Y-65525000D03*
X12730000Y-65525000D03*
X11460000Y-65525000D03*
X10190000Y-65525000D03*
%TD*%
D14*
%TO.C,C18*%
X41575000Y-39250000D03*
X40025000Y-39250000D03*
%TD*%
D15*
%TO.C,C36*%
X71550000Y-32250000D03*
X73450000Y-32250000D03*
%TD*%
D35*
%TO.C,C1*%
X9800000Y-33500000D03*
X17200000Y-33500000D03*
%TD*%
D24*
%TO.C,SW1*%
X34850000Y-6100000D03*
X41150000Y-6100000D03*
X34850000Y-9900000D03*
X41150000Y-9900000D03*
%TD*%
D21*
%TO.C,R8*%
X47175000Y-13500000D03*
X48825000Y-13500000D03*
%TD*%
D19*
%TO.C,RN4*%
X23600000Y-69300000D03*
D20*
X23600000Y-70100000D03*
X23600000Y-70900000D03*
D19*
X23600000Y-71700000D03*
X25400000Y-71700000D03*
D20*
X25400000Y-70900000D03*
X25400000Y-70100000D03*
D19*
X25400000Y-69300000D03*
%TD*%
D26*
%TO.C,J3*%
X1815000Y-48190000D03*
D27*
X1815000Y-50730000D03*
X1815000Y-53270000D03*
X1815000Y-55810000D03*
%TD*%
D19*
%TO.C,RN1*%
X34100000Y-70800000D03*
D20*
X34100000Y-71600000D03*
X34100000Y-72400000D03*
D19*
X34100000Y-73200000D03*
X35900000Y-73200000D03*
D20*
X35900000Y-72400000D03*
X35900000Y-71600000D03*
D19*
X35900000Y-70800000D03*
%TD*%
D12*
%TO.C,C45*%
X81225000Y-45000000D03*
X82775000Y-45000000D03*
%TD*%
D15*
%TO.C,C35*%
X66050000Y-55500000D03*
X67950000Y-55500000D03*
%TD*%
D19*
%TO.C,RN2*%
X40100000Y-70800000D03*
D20*
X40100000Y-71600000D03*
X40100000Y-72400000D03*
D19*
X40100000Y-73200000D03*
X41900000Y-73200000D03*
D20*
X41900000Y-72400000D03*
X41900000Y-71600000D03*
D19*
X41900000Y-70800000D03*
%TD*%
D56*
%TO.C,J4*%
X95365000Y-3460000D03*
D57*
X96635000Y-3460000D03*
X95365000Y-4730000D03*
X96635000Y-4730000D03*
X95365000Y-6000000D03*
X96635000Y-6000000D03*
X95365000Y-7270000D03*
X96635000Y-7270000D03*
X95365000Y-8540000D03*
X96635000Y-8540000D03*
%TD*%
D14*
%TO.C,C19*%
X41575000Y-45750000D03*
X40025000Y-45750000D03*
%TD*%
D22*
%TO.C,H4*%
X104100000Y-71000000D03*
X104802944Y-69302944D03*
X104802944Y-72697056D03*
X106500000Y-68600000D03*
D23*
X106500000Y-71000000D03*
D22*
X106500000Y-73400000D03*
X108197056Y-69302944D03*
X108197056Y-72697056D03*
X108900000Y-71000000D03*
%TD*%
D26*
%TO.C,J8*%
X107785000Y-33650000D03*
D27*
X107785000Y-36190000D03*
X107785000Y-38730000D03*
X107785000Y-41270000D03*
X107785000Y-43810000D03*
X107785000Y-46350000D03*
%TD*%
%LPD*%
M02*
