%TF.GenerationSoftware,KiCad,Pcbnew,10.0.6*%
%TF.CreationDate,2026-10-07T19:37:11+02:00*%
%TF.ProjectId,UFI_Headless,5546495f-4865-4616-946c-6573732e6b69,rev?*%
%TF.SameCoordinates,Original*%
%TF.FileFunction,Soldermask,Top*%
%TF.FilePolarity,Negative*%
%FSLAX46Y46*%
G04 Gerber Fmt 4.6, Leading zero omitted, Abs format (unit mm)*
G04 Created by KiCad (PCBNEW 10.0.6) date 2026-10-07 19:37:11*
%MOMM*%
%LPD*%
G01*
G04 APERTURE LIST*
G04 Aperture macros list*
%AMRoundRect*
0 Rectangle with rounded corners*
0 $1 Rounding radius*
0 $2 $3 $4 $5 $6 $7 $8 $9 X,Y pos of 4 corners*
0 Add a 4 corners polygon primitive as box body*
4,1,4,$2,$3,$4,$5,$6,$7,$8,$9,$2,$3,0*
0 Add four circle primitives for the rounded corners*
1,1,$1+$1,$2,$3*
1,1,$1+$1,$4,$5*
1,1,$1+$1,$6,$7*
1,1,$1+$1,$8,$9*
0 Add four rect primitives between the rounded corners*
20,1,$1+$1,$2,$3,$4,$5,0*
20,1,$1+$1,$4,$5,$6,$7,0*
20,1,$1+$1,$6,$7,$8,$9,0*
20,1,$1+$1,$8,$9,$2,$3,0*%
%AMFreePoly0*
4,1,23,0.500000,-0.750000,0.000000,-0.750000,0.000000,-0.745722,-0.065263,-0.745722,-0.191342,-0.711940,-0.304381,-0.646677,-0.396677,-0.554381,-0.461940,-0.441342,-0.495722,-0.315263,-0.495722,-0.250000,-0.500000,-0.250000,-0.500000,0.250000,-0.495722,0.250000,-0.495722,0.315263,-0.461940,0.441342,-0.396677,0.554381,-0.304381,0.646677,-0.191342,0.711940,-0.065263,0.745722,0.000000,0.745722,
0.000000,0.750000,0.500000,0.750000,0.500000,-0.750000,0.500000,-0.750000,$1*%
%AMFreePoly1*
4,1,23,0.000000,0.745722,0.065263,0.745722,0.191342,0.711940,0.304381,0.646677,0.396677,0.554381,0.461940,0.441342,0.495722,0.315263,0.495722,0.250000,0.500000,0.250000,0.500000,-0.250000,0.495722,-0.250000,0.495722,-0.315263,0.461940,-0.441342,0.396677,-0.554381,0.304381,-0.646677,0.191342,-0.711940,0.065263,-0.745722,0.000000,-0.745722,0.000000,-0.750000,-0.500000,-0.750000,
-0.500000,0.750000,0.000000,0.750000,0.000000,0.745722,0.000000,0.745722,$1*%
%AMFreePoly2*
4,1,23,0.550000,-0.750000,0.000000,-0.750000,0.000000,-0.745722,-0.065263,-0.745722,-0.191342,-0.711940,-0.304381,-0.646677,-0.396677,-0.554381,-0.461940,-0.441342,-0.495722,-0.315263,-0.495722,-0.250000,-0.500000,-0.250000,-0.500000,0.250000,-0.495722,0.250000,-0.495722,0.315263,-0.461940,0.441342,-0.396677,0.554381,-0.304381,0.646677,-0.191342,0.711940,-0.065263,0.745722,0.000000,0.745722,
0.000000,0.750000,0.550000,0.750000,0.550000,-0.750000,0.550000,-0.750000,$1*%
%AMFreePoly3*
4,1,23,0.000000,0.745722,0.065263,0.745722,0.191342,0.711940,0.304381,0.646677,0.396677,0.554381,0.461940,0.441342,0.495722,0.315263,0.495722,0.250000,0.500000,0.250000,0.500000,-0.250000,0.495722,-0.250000,0.495722,-0.315263,0.461940,-0.441342,0.396677,-0.554381,0.304381,-0.646677,0.191342,-0.711940,0.065263,-0.745722,0.000000,-0.745722,0.000000,-0.750000,-0.550000,-0.750000,
-0.550000,0.750000,0.000000,0.750000,0.000000,0.745722,0.000000,0.745722,$1*%
G04 Aperture macros list end*
%ADD10RoundRect,0.250000X-0.312500X-1.450000X0.312500X-1.450000X0.312500X1.450000X-0.312500X1.450000X0*%
%ADD11RoundRect,0.225000X-0.225000X-0.250000X0.225000X-0.250000X0.225000X0.250000X-0.225000X0.250000X0*%
%ADD12RoundRect,0.200000X-0.200000X-0.275000X0.200000X-0.275000X0.200000X0.275000X-0.200000X0.275000X0*%
%ADD13RoundRect,0.200000X0.275000X-0.200000X0.275000X0.200000X-0.275000X0.200000X-0.275000X-0.200000X0*%
%ADD14R,1.700000X1.700000*%
%ADD15C,1.700000*%
%ADD16RoundRect,0.225000X0.225000X0.250000X-0.225000X0.250000X-0.225000X-0.250000X0.225000X-0.250000X0*%
%ADD17RoundRect,0.250000X-0.250000X-0.475000X0.250000X-0.475000X0.250000X0.475000X-0.250000X0.475000X0*%
%ADD18RoundRect,0.250000X0.475000X-0.250000X0.475000X0.250000X-0.475000X0.250000X-0.475000X-0.250000X0*%
%ADD19RoundRect,0.225000X0.250000X-0.225000X0.250000X0.225000X-0.250000X0.225000X-0.250000X-0.225000X0*%
%ADD20RoundRect,0.050000X-0.285000X-0.100000X0.285000X-0.100000X0.285000X0.100000X-0.285000X0.100000X0*%
%ADD21R,1.700000X0.850000*%
%ADD22RoundRect,0.150000X0.150000X-0.512500X0.150000X0.512500X-0.150000X0.512500X-0.150000X-0.512500X0*%
%ADD23RoundRect,0.150000X0.150000X-0.825000X0.150000X0.825000X-0.150000X0.825000X-0.150000X-0.825000X0*%
%ADD24RoundRect,0.150000X-0.825000X-0.150000X0.825000X-0.150000X0.825000X0.150000X-0.825000X0.150000X0*%
%ADD25RoundRect,0.250000X-0.325000X-0.650000X0.325000X-0.650000X0.325000X0.650000X-0.325000X0.650000X0*%
%ADD26R,0.800000X0.500000*%
%ADD27R,0.800000X0.400000*%
%ADD28C,1.500000*%
%ADD29RoundRect,0.250000X-0.312500X-0.625000X0.312500X-0.625000X0.312500X0.625000X-0.312500X0.625000X0*%
%ADD30C,0.800000*%
%ADD31C,6.400000*%
%ADD32R,1.700000X1.000000*%
%ADD33RoundRect,0.150000X-0.512500X-0.150000X0.512500X-0.150000X0.512500X0.150000X-0.512500X0.150000X0*%
%ADD34RoundRect,0.218750X-0.218750X-0.256250X0.218750X-0.256250X0.218750X0.256250X-0.218750X0.256250X0*%
%ADD35RoundRect,0.250000X0.650000X-0.325000X0.650000X0.325000X-0.650000X0.325000X-0.650000X-0.325000X0*%
%ADD36RoundRect,0.150000X0.512500X0.150000X-0.512500X0.150000X-0.512500X-0.150000X0.512500X-0.150000X0*%
%ADD37RoundRect,0.087500X0.087500X-0.425000X0.087500X0.425000X-0.087500X0.425000X-0.087500X-0.425000X0*%
%ADD38RoundRect,0.250000X0.600000X-0.600000X0.600000X0.600000X-0.600000X0.600000X-0.600000X-0.600000X0*%
%ADD39RoundRect,0.225000X-0.250000X0.225000X-0.250000X-0.225000X0.250000X-0.225000X0.250000X0.225000X0*%
%ADD40RoundRect,0.375000X-0.625000X-0.375000X0.625000X-0.375000X0.625000X0.375000X-0.625000X0.375000X0*%
%ADD41RoundRect,0.500000X-0.500000X-1.400000X0.500000X-1.400000X0.500000X1.400000X-0.500000X1.400000X0*%
%ADD42RoundRect,0.250000X-1.000000X-0.650000X1.000000X-0.650000X1.000000X0.650000X-1.000000X0.650000X0*%
%ADD43RoundRect,0.250000X-1.950000X-1.000000X1.950000X-1.000000X1.950000X1.000000X-1.950000X1.000000X0*%
%ADD44RoundRect,0.150000X-0.587500X-0.150000X0.587500X-0.150000X0.587500X0.150000X-0.587500X0.150000X0*%
%ADD45FreePoly0,0.000000*%
%ADD46FreePoly1,0.000000*%
%ADD47RoundRect,0.250000X-0.375000X-0.625000X0.375000X-0.625000X0.375000X0.625000X-0.375000X0.625000X0*%
%ADD48R,2.350000X5.100000*%
%ADD49RoundRect,0.200000X0.200000X0.275000X-0.200000X0.275000X-0.200000X-0.275000X0.200000X-0.275000X0*%
%ADD50R,3.500000X3.500000*%
%ADD51RoundRect,0.750000X-1.000000X0.750000X-1.000000X-0.750000X1.000000X-0.750000X1.000000X0.750000X0*%
%ADD52RoundRect,0.875000X-0.875000X0.875000X-0.875000X-0.875000X0.875000X-0.875000X0.875000X0.875000X0*%
%ADD53RoundRect,0.250000X-0.350000X0.450000X-0.350000X-0.450000X0.350000X-0.450000X0.350000X0.450000X0*%
%ADD54R,0.500000X0.800000*%
%ADD55R,0.400000X0.800000*%
%ADD56RoundRect,0.075000X-0.662500X-0.075000X0.662500X-0.075000X0.662500X0.075000X-0.662500X0.075000X0*%
%ADD57RoundRect,0.075000X-0.075000X-0.662500X0.075000X-0.662500X0.075000X0.662500X-0.075000X0.662500X0*%
%ADD58RoundRect,0.250000X1.450000X-0.312500X1.450000X0.312500X-1.450000X0.312500X-1.450000X-0.312500X0*%
%ADD59RoundRect,0.250000X1.000000X-1.400000X1.000000X1.400000X-1.000000X1.400000X-1.000000X-1.400000X0*%
%ADD60RoundRect,0.250000X0.450000X-0.400000X0.450000X0.400000X-0.450000X0.400000X-0.450000X-0.400000X0*%
%ADD61C,0.650000*%
%ADD62RoundRect,0.150000X-0.150000X-0.575000X0.150000X-0.575000X0.150000X0.575000X-0.150000X0.575000X0*%
%ADD63RoundRect,0.075000X-0.075000X-0.650000X0.075000X-0.650000X0.075000X0.650000X-0.075000X0.650000X0*%
%ADD64O,1.000000X2.100000*%
%ADD65O,1.000000X1.600000*%
%ADD66RoundRect,0.250000X0.650000X-1.000000X0.650000X1.000000X-0.650000X1.000000X-0.650000X-1.000000X0*%
%ADD67RoundRect,0.150000X0.150000X-0.587500X0.150000X0.587500X-0.150000X0.587500X-0.150000X-0.587500X0*%
%ADD68R,1.000000X1.700000*%
%ADD69RoundRect,0.250000X-0.400000X-0.450000X0.400000X-0.450000X0.400000X0.450000X-0.400000X0.450000X0*%
%ADD70RoundRect,0.100000X-0.637500X-0.100000X0.637500X-0.100000X0.637500X0.100000X-0.637500X0.100000X0*%
%ADD71R,1.000000X1.000000*%
%ADD72C,1.000000*%
%ADD73RoundRect,0.087500X-0.425000X-0.087500X0.425000X-0.087500X0.425000X0.087500X-0.425000X0.087500X0*%
%ADD74FreePoly2,0.000000*%
%ADD75R,1.000000X1.500000*%
%ADD76FreePoly3,0.000000*%
G04 APERTURE END LIST*
%TO.C,JP3*%
G36*
X66850000Y-72250000D02*
G01*
X67150000Y-72250000D01*
X67150000Y-73750000D01*
X66850000Y-73750000D01*
X66850000Y-72250000D01*
G37*
%TO.C,JP1*%
G36*
X18850000Y-72630000D02*
G01*
X19150000Y-72630000D01*
X19150000Y-74130000D01*
X18850000Y-74130000D01*
X18850000Y-72630000D01*
G37*
%TO.C,JP2*%
G36*
X10750000Y-72630000D02*
G01*
X12250000Y-72630000D01*
X12250000Y-74130000D01*
X10750000Y-74130000D01*
X10750000Y-72630000D01*
G37*
%TD*%
D10*
%TO.C,F3*%
X5862500Y-53500000D03*
X10137500Y-53500000D03*
%TD*%
D11*
%TO.C,C53*%
X81725000Y-89000000D03*
X83275000Y-89000000D03*
%TD*%
D12*
%TO.C,R16*%
X71175000Y-54000000D03*
X72825000Y-54000000D03*
%TD*%
D11*
%TO.C,C34*%
X35725000Y-50000000D03*
X37275000Y-50000000D03*
%TD*%
D13*
%TO.C,R5*%
X27000000Y-51825000D03*
X27000000Y-50175000D03*
%TD*%
D14*
%TO.C,J19*%
X31000000Y-88500000D03*
D15*
X31000000Y-91040000D03*
X31000000Y-93580000D03*
%TD*%
D12*
%TO.C,R18*%
X43175000Y-59000000D03*
X44825000Y-59000000D03*
%TD*%
D16*
%TO.C,C17*%
X41575000Y-33750000D03*
X40025000Y-33750000D03*
%TD*%
D17*
%TO.C,C11*%
X28050000Y-55000000D03*
X29950000Y-55000000D03*
%TD*%
D18*
%TO.C,C48*%
X66000000Y-25450000D03*
X66000000Y-23550000D03*
%TD*%
D11*
%TO.C,C30*%
X71725000Y-37750000D03*
X73275000Y-37750000D03*
%TD*%
D19*
%TO.C,C8*%
X23500000Y-46775000D03*
X23500000Y-45225000D03*
%TD*%
D20*
%TO.C,U3*%
X26260000Y-46250000D03*
X26260000Y-46750000D03*
X26260000Y-47250000D03*
X26260000Y-47750000D03*
X27740000Y-47750000D03*
X27740000Y-47250000D03*
X27740000Y-46750000D03*
X27740000Y-46250000D03*
%TD*%
D21*
%TO.C,U15*%
X54250000Y-7995000D03*
X54250000Y-9265000D03*
X54250000Y-10535000D03*
X54250000Y-11805000D03*
X61650000Y-11805000D03*
X61650000Y-10535000D03*
X61650000Y-9265000D03*
X61650000Y-7995000D03*
%TD*%
D13*
%TO.C,R28*%
X106000000Y-59825000D03*
X106000000Y-58175000D03*
%TD*%
D22*
%TO.C,D10*%
X94550000Y-72137500D03*
X95500000Y-72137500D03*
X96450000Y-72137500D03*
X96450000Y-69862500D03*
X95500000Y-69862500D03*
X94550000Y-69862500D03*
%TD*%
D13*
%TO.C,R10*%
X79000000Y-24825000D03*
X79000000Y-23175000D03*
%TD*%
D14*
%TO.C,J11*%
X59500000Y-73500000D03*
D15*
X62040000Y-73500000D03*
%TD*%
D23*
%TO.C,U7*%
X48190000Y-68475000D03*
X49460000Y-68475000D03*
X50730000Y-68475000D03*
X52000000Y-68475000D03*
X53270000Y-68475000D03*
X54540000Y-68475000D03*
X55810000Y-68475000D03*
X55810000Y-63525000D03*
X54540000Y-63525000D03*
X53270000Y-63525000D03*
X52000000Y-63525000D03*
X50730000Y-63525000D03*
X49460000Y-63525000D03*
X48190000Y-63525000D03*
%TD*%
D17*
%TO.C,C32*%
X69050000Y-24000000D03*
X70950000Y-24000000D03*
%TD*%
D14*
%TO.C,J9*%
X28500000Y-11000000D03*
D15*
X31040000Y-11000000D03*
X28500000Y-13540000D03*
X31040000Y-13540000D03*
X28500000Y-16080000D03*
X31040000Y-16080000D03*
X28500000Y-18620000D03*
X31040000Y-18620000D03*
X28500000Y-21160000D03*
X31040000Y-21160000D03*
%TD*%
D24*
%TO.C,U18*%
X14525000Y-89595000D03*
X14525000Y-90865000D03*
X14525000Y-92135000D03*
X14525000Y-93405000D03*
X19475000Y-93405000D03*
X19475000Y-92135000D03*
X19475000Y-90865000D03*
X19475000Y-89595000D03*
%TD*%
D12*
%TO.C,R1*%
X69175000Y-11200000D03*
X70825000Y-11200000D03*
%TD*%
D25*
%TO.C,C56*%
X22525000Y-94000000D03*
X25475000Y-94000000D03*
%TD*%
D26*
%TO.C,RN8*%
X93100000Y-53800000D03*
D27*
X93100000Y-54600000D03*
X93100000Y-55400000D03*
D26*
X93100000Y-56200000D03*
X94900000Y-56200000D03*
D27*
X94900000Y-55400000D03*
X94900000Y-54600000D03*
D26*
X94900000Y-53800000D03*
%TD*%
D12*
%TO.C,R33*%
X62175000Y-63500000D03*
X63825000Y-63500000D03*
%TD*%
D28*
%TO.C,TP1*%
X16000000Y-52500000D03*
%TD*%
D19*
%TO.C,C42*%
X21000000Y-66775000D03*
X21000000Y-65225000D03*
%TD*%
D29*
%TO.C,R29*%
X93537500Y-64000000D03*
X96462500Y-64000000D03*
%TD*%
D12*
%TO.C,R14*%
X87675000Y-22000000D03*
X89325000Y-22000000D03*
%TD*%
D19*
%TO.C,C49*%
X85500000Y-59275000D03*
X85500000Y-57725000D03*
%TD*%
D30*
%TO.C,H3*%
X1100000Y-71000000D03*
X1802944Y-69302944D03*
X1802944Y-72697056D03*
X3500000Y-68600000D03*
D31*
X3500000Y-71000000D03*
D30*
X3500000Y-73400000D03*
X5197056Y-69302944D03*
X5197056Y-72697056D03*
X5900000Y-71000000D03*
%TD*%
D12*
%TO.C,R27*%
X97675000Y-53500000D03*
X99325000Y-53500000D03*
%TD*%
D19*
%TO.C,C10*%
X31000000Y-48775000D03*
X31000000Y-47225000D03*
%TD*%
D32*
%TO.C,SW2*%
X44850000Y-6100000D03*
X51150000Y-6100000D03*
X44850000Y-9900000D03*
X51150000Y-9900000D03*
%TD*%
D33*
%TO.C,D9*%
X87362500Y-71550000D03*
X87362500Y-72500000D03*
X87362500Y-73450000D03*
X89637500Y-73450000D03*
X89637500Y-72500000D03*
X89637500Y-71550000D03*
%TD*%
D34*
%TO.C,D4*%
X92212500Y-13000000D03*
X93787500Y-13000000D03*
%TD*%
D14*
%TO.C,J5*%
X105000000Y-15460000D03*
D15*
X105000000Y-18000000D03*
X105000000Y-20540000D03*
%TD*%
D13*
%TO.C,R6*%
X29000000Y-51825000D03*
X29000000Y-50175000D03*
%TD*%
D35*
%TO.C,C6*%
X39200000Y-31475000D03*
X39200000Y-28525000D03*
%TD*%
D12*
%TO.C,R15*%
X87675000Y-25000000D03*
X89325000Y-25000000D03*
%TD*%
D13*
%TO.C,R21*%
X51500000Y-19325000D03*
X51500000Y-17675000D03*
%TD*%
D33*
%TO.C,U13*%
X87862500Y-62550000D03*
X87862500Y-63500000D03*
X87862500Y-64450000D03*
X90137500Y-64450000D03*
X90137500Y-62550000D03*
%TD*%
D17*
%TO.C,C31*%
X39050000Y-24000000D03*
X40950000Y-24000000D03*
%TD*%
D30*
%TO.C,H2*%
X104100000Y-3500000D03*
X104802944Y-1802944D03*
X104802944Y-5197056D03*
X106500000Y-1100000D03*
D31*
X106500000Y-3500000D03*
D30*
X106500000Y-5900000D03*
X108197056Y-1802944D03*
X108197056Y-5197056D03*
X108900000Y-3500000D03*
%TD*%
D11*
%TO.C,C12*%
X32225000Y-55000000D03*
X33775000Y-55000000D03*
%TD*%
D16*
%TO.C,C38*%
X37175000Y-41400000D03*
X35625000Y-41400000D03*
%TD*%
D11*
%TO.C,C25*%
X68425000Y-37750000D03*
X69975000Y-37750000D03*
%TD*%
D25*
%TO.C,C2*%
X27525000Y-25200000D03*
X30475000Y-25200000D03*
%TD*%
D36*
%TO.C,U2*%
X26137500Y-30950000D03*
X26137500Y-30000000D03*
X26137500Y-29050000D03*
X23862500Y-29050000D03*
X23862500Y-30000000D03*
X23862500Y-30950000D03*
%TD*%
D11*
%TO.C,C26*%
X68425000Y-31250000D03*
X69975000Y-31250000D03*
%TD*%
D37*
%TO.C,U14*%
X58350000Y-61837500D03*
X59000000Y-61837500D03*
X59650000Y-61837500D03*
X59650000Y-60162500D03*
X58350000Y-60162500D03*
%TD*%
D38*
%TO.C,J6*%
X10680000Y-81275000D03*
D15*
X10680000Y-78735000D03*
X13220000Y-81275000D03*
X13220000Y-78735000D03*
X15760000Y-81275000D03*
X15760000Y-78735000D03*
X18300000Y-81275000D03*
X18300000Y-78735000D03*
X20840000Y-81275000D03*
X20840000Y-78735000D03*
X23380000Y-81275000D03*
X23380000Y-78735000D03*
X25920000Y-81275000D03*
X25920000Y-78735000D03*
X28460000Y-81275000D03*
X28460000Y-78735000D03*
X31000000Y-81275000D03*
X31000000Y-78735000D03*
X33540000Y-81275000D03*
X33540000Y-78735000D03*
X36080000Y-81275000D03*
X36080000Y-78735000D03*
X38620000Y-81275000D03*
X38620000Y-78735000D03*
X41160000Y-81275000D03*
X41160000Y-78735000D03*
X43700000Y-81275000D03*
X43700000Y-78735000D03*
X46240000Y-81275000D03*
X46240000Y-78735000D03*
X48780000Y-81275000D03*
X48780000Y-78735000D03*
X51320000Y-81275000D03*
X51320000Y-78735000D03*
%TD*%
D39*
%TO.C,C20*%
X47250000Y-53425000D03*
X47250000Y-54975000D03*
%TD*%
D34*
%TO.C,D6*%
X92212500Y-19000000D03*
X93787500Y-19000000D03*
%TD*%
D25*
%TO.C,C55*%
X22525000Y-89000000D03*
X25475000Y-89000000D03*
%TD*%
D11*
%TO.C,C33*%
X35725000Y-47500000D03*
X37275000Y-47500000D03*
%TD*%
D13*
%TO.C,R36*%
X24000000Y-5825000D03*
X24000000Y-4175000D03*
%TD*%
D30*
%TO.C,H6*%
X104100000Y-93500000D03*
X104802944Y-91802944D03*
X104802944Y-95197056D03*
X106500000Y-91100000D03*
D31*
X106500000Y-93500000D03*
D30*
X106500000Y-95900000D03*
X108197056Y-91802944D03*
X108197056Y-95197056D03*
X108900000Y-93500000D03*
%TD*%
D14*
%TO.C,J17*%
X3500000Y-9500000D03*
D15*
X3500000Y-12040000D03*
X3500000Y-14580000D03*
X3500000Y-17120000D03*
%TD*%
D33*
%TO.C,D15*%
X37362500Y-88550000D03*
X37362500Y-89500000D03*
X37362500Y-90450000D03*
X39637500Y-90450000D03*
X39637500Y-89500000D03*
X39637500Y-88550000D03*
%TD*%
D12*
%TO.C,R12*%
X87675000Y-16000000D03*
X89325000Y-16000000D03*
%TD*%
D39*
%TO.C,C22*%
X58750000Y-53425000D03*
X58750000Y-54975000D03*
%TD*%
D40*
%TO.C,U4*%
X12850000Y-55700000D03*
X12850000Y-58000000D03*
D41*
X19150000Y-58000000D03*
D40*
X12850000Y-60300000D03*
%TD*%
D19*
%TO.C,C29*%
X46250000Y-26575000D03*
X46250000Y-25025000D03*
%TD*%
D13*
%TO.C,R9*%
X76000000Y-24825000D03*
X76000000Y-23175000D03*
%TD*%
D11*
%TO.C,C47*%
X69725000Y-20500000D03*
X71275000Y-20500000D03*
%TD*%
D42*
%TO.C,D14*%
X86000000Y-67500000D03*
X90000000Y-67500000D03*
%TD*%
D43*
%TO.C,C13*%
X10300000Y-46000000D03*
X17700000Y-46000000D03*
%TD*%
D24*
%TO.C,U11*%
X72025000Y-58095000D03*
X72025000Y-59365000D03*
X72025000Y-60635000D03*
X72025000Y-61905000D03*
X76975000Y-61905000D03*
X76975000Y-60635000D03*
X76975000Y-59365000D03*
X76975000Y-58095000D03*
%TD*%
D18*
%TO.C,C14*%
X8500000Y-58950000D03*
X8500000Y-57050000D03*
%TD*%
D13*
%TO.C,R34*%
X26000000Y-5325000D03*
X26000000Y-3675000D03*
%TD*%
%TO.C,R7*%
X31500000Y-52325000D03*
X31500000Y-50675000D03*
%TD*%
D44*
%TO.C,Q1*%
X97062500Y-55550000D03*
X97062500Y-57450000D03*
X98937500Y-56500000D03*
%TD*%
D28*
%TO.C,TP7*%
X40500000Y-57000000D03*
%TD*%
D33*
%TO.C,U12*%
X87862500Y-58550000D03*
X87862500Y-59500000D03*
X87862500Y-60450000D03*
X90137500Y-60450000D03*
X90137500Y-58550000D03*
%TD*%
D12*
%TO.C,R3*%
X20475000Y-26900000D03*
X22125000Y-26900000D03*
%TD*%
D11*
%TO.C,C24*%
X68425000Y-43250000D03*
X69975000Y-43250000D03*
%TD*%
D26*
%TO.C,RN7*%
X89100000Y-53800000D03*
D27*
X89100000Y-54600000D03*
X89100000Y-55400000D03*
D26*
X89100000Y-56200000D03*
X90900000Y-56200000D03*
D27*
X90900000Y-55400000D03*
X90900000Y-54600000D03*
D26*
X90900000Y-53800000D03*
%TD*%
D13*
%TO.C,R23*%
X61500000Y-25325000D03*
X61500000Y-23675000D03*
%TD*%
D24*
%TO.C,U10*%
X79525000Y-48190000D03*
X79525000Y-49460000D03*
X79525000Y-50730000D03*
X79525000Y-52000000D03*
X79525000Y-53270000D03*
X79525000Y-54540000D03*
X79525000Y-55810000D03*
X84475000Y-55810000D03*
X84475000Y-54540000D03*
X84475000Y-53270000D03*
X84475000Y-52000000D03*
X84475000Y-50730000D03*
X84475000Y-49460000D03*
X84475000Y-48190000D03*
%TD*%
D19*
%TO.C,C16*%
X25500000Y-57775000D03*
X25500000Y-56225000D03*
%TD*%
D45*
%TO.C,JP3*%
X66350000Y-73000000D03*
D46*
X67650000Y-73000000D03*
%TD*%
D11*
%TO.C,C51*%
X62725000Y-58500000D03*
X64275000Y-58500000D03*
%TD*%
%TO.C,C37*%
X37225000Y-13500000D03*
X38775000Y-13500000D03*
%TD*%
D26*
%TO.C,RN6*%
X79100000Y-69800000D03*
D27*
X79100000Y-70600000D03*
X79100000Y-71400000D03*
D26*
X79100000Y-72200000D03*
X80900000Y-72200000D03*
D27*
X80900000Y-71400000D03*
X80900000Y-70600000D03*
D26*
X80900000Y-69800000D03*
%TD*%
D47*
%TO.C,F2*%
X5600000Y-62000000D03*
X8400000Y-62000000D03*
%TD*%
D48*
%TO.C,L1*%
X28925000Y-30000000D03*
X33075000Y-30000000D03*
%TD*%
D14*
%TO.C,J16*%
X55000000Y-19500000D03*
D15*
X55000000Y-16960000D03*
X57540000Y-19500000D03*
X57540000Y-16960000D03*
X60080000Y-19500000D03*
X60080000Y-16960000D03*
X62620000Y-19500000D03*
X62620000Y-16960000D03*
X65160000Y-19500000D03*
X65160000Y-16960000D03*
%TD*%
D35*
%TO.C,C5*%
X36600000Y-31475000D03*
X36600000Y-28525000D03*
%TD*%
D49*
%TO.C,R4*%
X22125000Y-29000000D03*
X20475000Y-29000000D03*
%TD*%
D19*
%TO.C,C9*%
X23500000Y-50275000D03*
X23500000Y-48725000D03*
%TD*%
D33*
%TO.C,U1*%
X70862500Y-15050000D03*
X70862500Y-16000000D03*
X70862500Y-16950000D03*
X73137500Y-16950000D03*
X73137500Y-16000000D03*
X73137500Y-15050000D03*
%TD*%
D12*
%TO.C,R13*%
X87675000Y-19000000D03*
X89325000Y-19000000D03*
%TD*%
D13*
%TO.C,R35*%
X28000000Y-3325000D03*
X28000000Y-1675000D03*
%TD*%
D28*
%TO.C,TP6*%
X40075200Y-48250000D03*
%TD*%
D13*
%TO.C,R20*%
X41500000Y-15825000D03*
X41500000Y-14175000D03*
%TD*%
D11*
%TO.C,C4*%
X24225000Y-32800000D03*
X25775000Y-32800000D03*
%TD*%
D50*
%TO.C,J2*%
X14000000Y-14045000D03*
D51*
X14000000Y-8045000D03*
D52*
X9300000Y-11045000D03*
%TD*%
D28*
%TO.C,TP4*%
X26000000Y-41000000D03*
%TD*%
D18*
%TO.C,C15*%
X23000000Y-57950000D03*
X23000000Y-56050000D03*
%TD*%
D26*
%TO.C,RN3*%
X49100000Y-70800000D03*
D27*
X49100000Y-71600000D03*
X49100000Y-72400000D03*
D26*
X49100000Y-73200000D03*
X50900000Y-73200000D03*
D27*
X50900000Y-72400000D03*
X50900000Y-71600000D03*
D26*
X50900000Y-70800000D03*
%TD*%
D33*
%TO.C,D16*%
X77362500Y-88550000D03*
X77362500Y-89500000D03*
X77362500Y-90450000D03*
X79637500Y-90450000D03*
X79637500Y-89500000D03*
X79637500Y-88550000D03*
%TD*%
D53*
%TO.C,Y1*%
X38950000Y-41500000D03*
X38950000Y-43700000D03*
X40650000Y-43700000D03*
X40650000Y-41500000D03*
%TD*%
D54*
%TO.C,RN10*%
X98300000Y-94900000D03*
D55*
X99100000Y-94900000D03*
X99900000Y-94900000D03*
D54*
X100700000Y-94900000D03*
X100700000Y-93100000D03*
D55*
X99900000Y-93100000D03*
X99100000Y-93100000D03*
D54*
X98300000Y-93100000D03*
%TD*%
D28*
%TO.C,TP8*%
X34000000Y-60000000D03*
%TD*%
D34*
%TO.C,D5*%
X92212500Y-16000000D03*
X93787500Y-16000000D03*
%TD*%
D39*
%TO.C,C21*%
X53750000Y-53425000D03*
X53750000Y-54975000D03*
%TD*%
D18*
%TO.C,C43*%
X60000000Y-66950000D03*
X60000000Y-65050000D03*
%TD*%
D24*
%TO.C,U9*%
X79525000Y-34190000D03*
X79525000Y-35460000D03*
X79525000Y-36730000D03*
X79525000Y-38000000D03*
X79525000Y-39270000D03*
X79525000Y-40540000D03*
X79525000Y-41810000D03*
X84475000Y-41810000D03*
X84475000Y-40540000D03*
X84475000Y-39270000D03*
X84475000Y-38000000D03*
X84475000Y-36730000D03*
X84475000Y-35460000D03*
X84475000Y-34190000D03*
%TD*%
D28*
%TO.C,TP3*%
X26000000Y-44000000D03*
%TD*%
D14*
%TO.C,J12*%
X21000000Y-9000000D03*
D15*
X23540000Y-9000000D03*
X21000000Y-11540000D03*
X23540000Y-11540000D03*
X21000000Y-14080000D03*
X23540000Y-14080000D03*
X21000000Y-16620000D03*
X23540000Y-16620000D03*
%TD*%
D14*
%TO.C,J15*%
X9500000Y-88500000D03*
D15*
X9500000Y-91040000D03*
%TD*%
D13*
%TO.C,R25*%
X63500000Y-25325000D03*
X63500000Y-23675000D03*
%TD*%
D34*
%TO.C,D7*%
X92212500Y-22000000D03*
X93787500Y-22000000D03*
%TD*%
D56*
%TO.C,U5*%
X44337500Y-31250000D03*
X44337500Y-31750000D03*
X44337500Y-32250000D03*
X44337500Y-32750000D03*
X44337500Y-33250000D03*
X44337500Y-33750000D03*
X44337500Y-34250000D03*
X44337500Y-34750000D03*
X44337500Y-35250000D03*
X44337500Y-35750000D03*
X44337500Y-36250000D03*
X44337500Y-36750000D03*
X44337500Y-37250000D03*
X44337500Y-37750000D03*
X44337500Y-38250000D03*
X44337500Y-38750000D03*
X44337500Y-39250000D03*
X44337500Y-39750000D03*
X44337500Y-40250000D03*
X44337500Y-40750000D03*
X44337500Y-41250000D03*
X44337500Y-41750000D03*
X44337500Y-42250000D03*
X44337500Y-42750000D03*
X44337500Y-43250000D03*
X44337500Y-43750000D03*
X44337500Y-44250000D03*
X44337500Y-44750000D03*
X44337500Y-45250000D03*
X44337500Y-45750000D03*
X44337500Y-46250000D03*
X44337500Y-46750000D03*
X44337500Y-47250000D03*
X44337500Y-47750000D03*
X44337500Y-48250000D03*
X44337500Y-48750000D03*
D57*
X46250000Y-50662500D03*
X46750000Y-50662500D03*
X47250000Y-50662500D03*
X47750000Y-50662500D03*
X48250000Y-50662500D03*
X48750000Y-50662500D03*
X49250000Y-50662500D03*
X49750000Y-50662500D03*
X50250000Y-50662500D03*
X50750000Y-50662500D03*
X51250000Y-50662500D03*
X51750000Y-50662500D03*
X52250000Y-50662500D03*
X52750000Y-50662500D03*
X53250000Y-50662500D03*
X53750000Y-50662500D03*
X54250000Y-50662500D03*
X54750000Y-50662500D03*
X55250000Y-50662500D03*
X55750000Y-50662500D03*
X56250000Y-50662500D03*
X56750000Y-50662500D03*
X57250000Y-50662500D03*
X57750000Y-50662500D03*
X58250000Y-50662500D03*
X58750000Y-50662500D03*
X59250000Y-50662500D03*
X59750000Y-50662500D03*
X60250000Y-50662500D03*
X60750000Y-50662500D03*
X61250000Y-50662500D03*
X61750000Y-50662500D03*
X62250000Y-50662500D03*
X62750000Y-50662500D03*
X63250000Y-50662500D03*
X63750000Y-50662500D03*
D56*
X65662500Y-48750000D03*
X65662500Y-48250000D03*
X65662500Y-47750000D03*
X65662500Y-47250000D03*
X65662500Y-46750000D03*
X65662500Y-46250000D03*
X65662500Y-45750000D03*
X65662500Y-45250000D03*
X65662500Y-44750000D03*
X65662500Y-44250000D03*
X65662500Y-43750000D03*
X65662500Y-43250000D03*
X65662500Y-42750000D03*
X65662500Y-42250000D03*
X65662500Y-41750000D03*
X65662500Y-41250000D03*
X65662500Y-40750000D03*
X65662500Y-40250000D03*
X65662500Y-39750000D03*
X65662500Y-39250000D03*
X65662500Y-38750000D03*
X65662500Y-38250000D03*
X65662500Y-37750000D03*
X65662500Y-37250000D03*
X65662500Y-36750000D03*
X65662500Y-36250000D03*
X65662500Y-35750000D03*
X65662500Y-35250000D03*
X65662500Y-34750000D03*
X65662500Y-34250000D03*
X65662500Y-33750000D03*
X65662500Y-33250000D03*
X65662500Y-32750000D03*
X65662500Y-32250000D03*
X65662500Y-31750000D03*
X65662500Y-31250000D03*
D57*
X63750000Y-29337500D03*
X63250000Y-29337500D03*
X62750000Y-29337500D03*
X62250000Y-29337500D03*
X61750000Y-29337500D03*
X61250000Y-29337500D03*
X60750000Y-29337500D03*
X60250000Y-29337500D03*
X59750000Y-29337500D03*
X59250000Y-29337500D03*
X58750000Y-29337500D03*
X58250000Y-29337500D03*
X57750000Y-29337500D03*
X57250000Y-29337500D03*
X56750000Y-29337500D03*
X56250000Y-29337500D03*
X55750000Y-29337500D03*
X55250000Y-29337500D03*
X54750000Y-29337500D03*
X54250000Y-29337500D03*
X53750000Y-29337500D03*
X53250000Y-29337500D03*
X52750000Y-29337500D03*
X52250000Y-29337500D03*
X51750000Y-29337500D03*
X51250000Y-29337500D03*
X50750000Y-29337500D03*
X50250000Y-29337500D03*
X49750000Y-29337500D03*
X49250000Y-29337500D03*
X48750000Y-29337500D03*
X48250000Y-29337500D03*
X47750000Y-29337500D03*
X47250000Y-29337500D03*
X46750000Y-29337500D03*
X46250000Y-29337500D03*
%TD*%
D13*
%TO.C,R22*%
X55500000Y-26825000D03*
X55500000Y-25175000D03*
%TD*%
D12*
%TO.C,R39*%
X84675000Y-94000000D03*
X86325000Y-94000000D03*
%TD*%
D32*
%TO.C,SW3*%
X87350000Y-31600000D03*
X93650000Y-31600000D03*
X87350000Y-35400000D03*
X93650000Y-35400000D03*
%TD*%
D38*
%TO.C,J14*%
X47000000Y-91800000D03*
D15*
X47000000Y-89260000D03*
X49540000Y-91800000D03*
X49540000Y-89260000D03*
X52080000Y-91800000D03*
X52080000Y-89260000D03*
X54620000Y-91800000D03*
X54620000Y-89260000D03*
X57160000Y-91800000D03*
X57160000Y-89260000D03*
X59700000Y-91800000D03*
X59700000Y-89260000D03*
X62240000Y-91800000D03*
X62240000Y-89260000D03*
X64780000Y-91800000D03*
X64780000Y-89260000D03*
X67320000Y-91800000D03*
X67320000Y-89260000D03*
X69860000Y-91800000D03*
X69860000Y-89260000D03*
%TD*%
D58*
%TO.C,F1*%
X88000000Y-8137500D03*
X88000000Y-3862500D03*
%TD*%
D19*
%TO.C,C27*%
X57750000Y-26575000D03*
X57750000Y-25025000D03*
%TD*%
D12*
%TO.C,R11*%
X87675000Y-13000000D03*
X89325000Y-13000000D03*
%TD*%
D28*
%TO.C,TP5*%
X40000000Y-54000000D03*
%TD*%
D11*
%TO.C,C44*%
X81225000Y-31000000D03*
X82775000Y-31000000D03*
%TD*%
D26*
%TO.C,RN5*%
X27600000Y-69300000D03*
D27*
X27600000Y-70100000D03*
X27600000Y-70900000D03*
D26*
X27600000Y-71700000D03*
X29400000Y-71700000D03*
D27*
X29400000Y-70900000D03*
X29400000Y-70100000D03*
D26*
X29400000Y-69300000D03*
%TD*%
D59*
%TO.C,D2*%
X7600000Y-21000000D03*
X14400000Y-21000000D03*
%TD*%
D30*
%TO.C,H1*%
X1100000Y-3500000D03*
X1802944Y-1802944D03*
X1802944Y-5197056D03*
X3500000Y-1100000D03*
D31*
X3500000Y-3500000D03*
D30*
X3500000Y-5900000D03*
X5197056Y-1802944D03*
X5197056Y-5197056D03*
X5900000Y-3500000D03*
%TD*%
D23*
%TO.C,U6*%
X34190000Y-68475000D03*
X35460000Y-68475000D03*
X36730000Y-68475000D03*
X38000000Y-68475000D03*
X39270000Y-68475000D03*
X40540000Y-68475000D03*
X41810000Y-68475000D03*
X41810000Y-63525000D03*
X40540000Y-63525000D03*
X39270000Y-63525000D03*
X38000000Y-63525000D03*
X36730000Y-63525000D03*
X35460000Y-63525000D03*
X34190000Y-63525000D03*
%TD*%
D19*
%TO.C,C28*%
X52750000Y-26575000D03*
X52750000Y-25025000D03*
%TD*%
D60*
%TO.C,D13*%
X106000000Y-55950000D03*
X106000000Y-53050000D03*
%TD*%
D39*
%TO.C,C23*%
X63750000Y-53425000D03*
X63750000Y-54975000D03*
%TD*%
D19*
%TO.C,C52*%
X96500000Y-89275000D03*
X96500000Y-87725000D03*
%TD*%
D61*
%TO.C,J1*%
X69110000Y-2715000D03*
X74890000Y-2715000D03*
D62*
X68750000Y-1270000D03*
X69550000Y-1270000D03*
D63*
X70750000Y-1270000D03*
X71750000Y-1270000D03*
X72250000Y-1270000D03*
X73250000Y-1270000D03*
D62*
X74450000Y-1270000D03*
X75250000Y-1270000D03*
X75250000Y-1270000D03*
X74450000Y-1270000D03*
D63*
X73750000Y-1270000D03*
X72750000Y-1270000D03*
X71250000Y-1270000D03*
X70250000Y-1270000D03*
D62*
X69550000Y-1270000D03*
X68750000Y-1270000D03*
D64*
X67680000Y-2185000D03*
D65*
X67680000Y-6365000D03*
D64*
X76320000Y-2185000D03*
D65*
X76320000Y-6365000D03*
%TD*%
D66*
%TO.C,D3*%
X5000000Y-33000000D03*
X5000000Y-29000000D03*
%TD*%
D22*
%TO.C,D11*%
X98550000Y-72137500D03*
X99500000Y-72137500D03*
X100450000Y-72137500D03*
X100450000Y-69862500D03*
X99500000Y-69862500D03*
X98550000Y-69862500D03*
%TD*%
D19*
%TO.C,C7*%
X36600000Y-34775000D03*
X36600000Y-33225000D03*
%TD*%
D16*
%TO.C,C3*%
X25775000Y-27300000D03*
X24225000Y-27300000D03*
%TD*%
D14*
%TO.C,J13*%
X18500000Y-21000000D03*
D15*
X21040000Y-21000000D03*
X23580000Y-21000000D03*
%TD*%
D34*
%TO.C,FB1*%
X35712500Y-52500000D03*
X37287500Y-52500000D03*
%TD*%
D11*
%TO.C,C41*%
X51225000Y-60500000D03*
X52775000Y-60500000D03*
%TD*%
D67*
%TO.C,Q3*%
X98550000Y-63937500D03*
X100450000Y-63937500D03*
X99500000Y-62062500D03*
%TD*%
D45*
%TO.C,JP1*%
X18350000Y-73380000D03*
D46*
X19650000Y-73380000D03*
%TD*%
D12*
%TO.C,R38*%
X81175000Y-94000000D03*
X82825000Y-94000000D03*
%TD*%
D38*
%TO.C,J7*%
X70030000Y-81275000D03*
D15*
X70030000Y-78735000D03*
X72570000Y-81275000D03*
X72570000Y-78735000D03*
X75110000Y-81275000D03*
X75110000Y-78735000D03*
X77650000Y-81275000D03*
X77650000Y-78735000D03*
X80190000Y-81275000D03*
X80190000Y-78735000D03*
X82730000Y-81275000D03*
X82730000Y-78735000D03*
X85270000Y-81275000D03*
X85270000Y-78735000D03*
X87810000Y-81275000D03*
X87810000Y-78735000D03*
X90350000Y-81275000D03*
X90350000Y-78735000D03*
X92890000Y-81275000D03*
X92890000Y-78735000D03*
X95430000Y-81275000D03*
X95430000Y-78735000D03*
X97970000Y-81275000D03*
X97970000Y-78735000D03*
%TD*%
D13*
%TO.C,R2*%
X80000000Y-6825000D03*
X80000000Y-5175000D03*
%TD*%
D16*
%TO.C,C39*%
X37175000Y-43800000D03*
X35625000Y-43800000D03*
%TD*%
D28*
%TO.C,TP2*%
X34878800Y-57030000D03*
%TD*%
D29*
%TO.C,R26*%
X93537500Y-60000000D03*
X96462500Y-60000000D03*
%TD*%
D11*
%TO.C,C40*%
X37225000Y-60500000D03*
X38775000Y-60500000D03*
%TD*%
D30*
%TO.C,H5*%
X1100000Y-93500000D03*
X1802944Y-91802944D03*
X1802944Y-95197056D03*
X3500000Y-91100000D03*
D31*
X3500000Y-93500000D03*
D30*
X3500000Y-95900000D03*
X5197056Y-91802944D03*
X5197056Y-95197056D03*
X5900000Y-93500000D03*
%TD*%
D13*
%TO.C,R24*%
X50500000Y-25325000D03*
X50500000Y-23675000D03*
%TD*%
D34*
%TO.C,D8*%
X92212500Y-25000000D03*
X93787500Y-25000000D03*
%TD*%
D12*
%TO.C,R19*%
X37175000Y-15500000D03*
X38825000Y-15500000D03*
%TD*%
D68*
%TO.C,SW4*%
X96100000Y-26150000D03*
X96100000Y-19850000D03*
X99900000Y-26150000D03*
X99900000Y-19850000D03*
%TD*%
D60*
%TO.C,D1*%
X84000000Y-15450000D03*
X84000000Y-12550000D03*
%TD*%
D11*
%TO.C,C54*%
X10225000Y-94500000D03*
X11775000Y-94500000D03*
%TD*%
D13*
%TO.C,R37*%
X30000000Y-3325000D03*
X30000000Y-1675000D03*
%TD*%
D23*
%TO.C,U8*%
X10190000Y-70475000D03*
X11460000Y-70475000D03*
X12730000Y-70475000D03*
X14000000Y-70475000D03*
X15270000Y-70475000D03*
X16540000Y-70475000D03*
X17810000Y-70475000D03*
X17810000Y-65525000D03*
X16540000Y-65525000D03*
X15270000Y-65525000D03*
X14000000Y-65525000D03*
X12730000Y-65525000D03*
X11460000Y-65525000D03*
X10190000Y-65525000D03*
%TD*%
D16*
%TO.C,C18*%
X41575000Y-39250000D03*
X40025000Y-39250000D03*
%TD*%
D69*
%TO.C,D17*%
X29550000Y-42000000D03*
X32450000Y-42000000D03*
%TD*%
D13*
%TO.C,R31*%
X106500000Y-65825000D03*
X106500000Y-64175000D03*
%TD*%
D17*
%TO.C,C36*%
X71550000Y-32250000D03*
X73450000Y-32250000D03*
%TD*%
D43*
%TO.C,C1*%
X9800000Y-33500000D03*
X17200000Y-33500000D03*
%TD*%
D44*
%TO.C,Q2*%
X101562500Y-56550000D03*
X101562500Y-58450000D03*
X103437500Y-57500000D03*
%TD*%
D54*
%TO.C,RN9*%
X98300000Y-89900000D03*
D55*
X99100000Y-89900000D03*
X99900000Y-89900000D03*
D54*
X100700000Y-89900000D03*
X100700000Y-88100000D03*
D55*
X99900000Y-88100000D03*
X99100000Y-88100000D03*
D54*
X98300000Y-88100000D03*
%TD*%
D12*
%TO.C,R32*%
X99175000Y-66500000D03*
X100825000Y-66500000D03*
%TD*%
D32*
%TO.C,SW1*%
X34850000Y-6100000D03*
X41150000Y-6100000D03*
X34850000Y-9900000D03*
X41150000Y-9900000D03*
%TD*%
D12*
%TO.C,R8*%
X47175000Y-13500000D03*
X48825000Y-13500000D03*
%TD*%
D11*
%TO.C,C50*%
X84225000Y-64000000D03*
X85775000Y-64000000D03*
%TD*%
D19*
%TO.C,C46*%
X81500000Y-60775000D03*
X81500000Y-59225000D03*
%TD*%
D26*
%TO.C,RN4*%
X23600000Y-69300000D03*
D27*
X23600000Y-70100000D03*
X23600000Y-70900000D03*
D26*
X23600000Y-71700000D03*
X25400000Y-71700000D03*
D27*
X25400000Y-70900000D03*
X25400000Y-70100000D03*
D26*
X25400000Y-69300000D03*
%TD*%
D14*
%TO.C,J3*%
X1815000Y-48190000D03*
D15*
X1815000Y-50730000D03*
X1815000Y-53270000D03*
X1815000Y-55810000D03*
%TD*%
D26*
%TO.C,RN1*%
X34100000Y-70800000D03*
D27*
X34100000Y-71600000D03*
X34100000Y-72400000D03*
D26*
X34100000Y-73200000D03*
X35900000Y-73200000D03*
D27*
X35900000Y-72400000D03*
X35900000Y-71600000D03*
D26*
X35900000Y-70800000D03*
%TD*%
D67*
%TO.C,Q4*%
X102550000Y-63937500D03*
X104450000Y-63937500D03*
X103500000Y-62062500D03*
%TD*%
D13*
%TO.C,R17*%
X43000000Y-56825000D03*
X43000000Y-55175000D03*
%TD*%
D58*
%TO.C,F4*%
X3000000Y-26137500D03*
X3000000Y-21862500D03*
%TD*%
D12*
%TO.C,R30*%
X92675000Y-67500000D03*
X94325000Y-67500000D03*
%TD*%
D11*
%TO.C,C45*%
X81225000Y-45000000D03*
X82775000Y-45000000D03*
%TD*%
D33*
%TO.C,D12*%
X95862500Y-45050000D03*
X95862500Y-46000000D03*
X95862500Y-46950000D03*
X98137500Y-46950000D03*
X98137500Y-46000000D03*
X98137500Y-45050000D03*
%TD*%
D17*
%TO.C,C35*%
X66050000Y-55500000D03*
X67950000Y-55500000D03*
%TD*%
D26*
%TO.C,RN2*%
X40100000Y-70800000D03*
D27*
X40100000Y-71600000D03*
X40100000Y-72400000D03*
D26*
X40100000Y-73200000D03*
X41900000Y-73200000D03*
D27*
X41900000Y-72400000D03*
X41900000Y-71600000D03*
D26*
X41900000Y-70800000D03*
%TD*%
D70*
%TO.C,U16*%
X88637500Y-88575000D03*
X88637500Y-89225000D03*
X88637500Y-89875000D03*
X88637500Y-90525000D03*
X88637500Y-91175000D03*
X88637500Y-91825000D03*
X88637500Y-92475000D03*
X88637500Y-93125000D03*
X88637500Y-93775000D03*
X88637500Y-94425000D03*
X94362500Y-94425000D03*
X94362500Y-93775000D03*
X94362500Y-93125000D03*
X94362500Y-92475000D03*
X94362500Y-91825000D03*
X94362500Y-91175000D03*
X94362500Y-90525000D03*
X94362500Y-89875000D03*
X94362500Y-89225000D03*
X94362500Y-88575000D03*
%TD*%
D14*
%TO.C,J18*%
X25000000Y-37500000D03*
D15*
X27540000Y-37500000D03*
X30080000Y-37500000D03*
%TD*%
D71*
%TO.C,J4*%
X95365000Y-3460000D03*
D72*
X96635000Y-3460000D03*
X95365000Y-4730000D03*
X96635000Y-4730000D03*
X95365000Y-6000000D03*
X96635000Y-6000000D03*
X95365000Y-7270000D03*
X96635000Y-7270000D03*
X95365000Y-8540000D03*
X96635000Y-8540000D03*
%TD*%
D16*
%TO.C,C19*%
X41575000Y-45750000D03*
X40025000Y-45750000D03*
%TD*%
D73*
%TO.C,U17*%
X77662500Y-93350000D03*
X77662500Y-94000000D03*
X77662500Y-94650000D03*
X79337500Y-94650000D03*
X79337500Y-94000000D03*
X79337500Y-93350000D03*
%TD*%
D30*
%TO.C,H4*%
X104100000Y-71000000D03*
X104802944Y-69302944D03*
X104802944Y-72697056D03*
X106500000Y-68600000D03*
D31*
X106500000Y-71000000D03*
D30*
X106500000Y-73400000D03*
X108197056Y-69302944D03*
X108197056Y-72697056D03*
X108900000Y-71000000D03*
%TD*%
D14*
%TO.C,J8*%
X107785000Y-33650000D03*
D15*
X107785000Y-36190000D03*
X107785000Y-38730000D03*
X107785000Y-41270000D03*
X107785000Y-43810000D03*
X107785000Y-46350000D03*
%TD*%
D74*
%TO.C,JP2*%
X10200000Y-73380000D03*
D75*
X11500000Y-73380000D03*
D76*
X12800000Y-73380000D03*
%TD*%
M02*
