%TF.GenerationSoftware,KiCad,Pcbnew,10.0.6*%
%TF.CreationDate,2026-10-07T06:49:44+02:00*%
%TF.ProjectId,UFI_Headless,5546495f-4865-4616-946c-6573732e6b69,rev?*%
%TF.SameCoordinates,Original*%
%TF.FileFunction,Legend,Bot*%
%TF.FilePolarity,Positive*%
%FSLAX46Y46*%
G04 Gerber Fmt 4.6, Leading zero omitted, Abs format (unit mm)*
G04 Created by KiCad (PCBNEW 10.0.6) date 2026-10-07 06:49:44*
%MOMM*%
%LPD*%
G01*
G04 APERTURE LIST*
G04 Aperture macros list*
%AMRoundRect*
0 Rectangle with rounded corners*
0 $1 Rounding radius*
0 $2 $3 $4 $5 $6 $7 $8 $9 X,Y pos of 4 corners*
0 Add a 4 corners polygon primitive as box body*
4,1,4,$2,$3,$4,$5,$6,$7,$8,$9,$2,$3,0*
0 Add four circle primitives for the rounded corners*
1,1,$1+$1,$2,$3*
1,1,$1+$1,$4,$5*
1,1,$1+$1,$6,$7*
1,1,$1+$1,$8,$9*
0 Add four rect primitives between the rounded corners*
20,1,$1+$1,$2,$3,$4,$5,0*
20,1,$1+$1,$4,$5,$6,$7,0*
20,1,$1+$1,$6,$7,$8,$9,0*
20,1,$1+$1,$8,$9,$2,$3,0*%
G04 Aperture macros list end*
%ADD10C,0.120000*%
%ADD11C,0.180000*%
%ADD12R,1.700000X1.700000*%
%ADD13C,1.700000*%
%ADD14C,0.800000*%
%ADD15C,6.400000*%
%ADD16RoundRect,0.250000X0.600000X-0.600000X0.600000X0.600000X-0.600000X0.600000X-0.600000X-0.600000X0*%
%ADD17R,3.500000X3.500000*%
%ADD18RoundRect,0.750000X-1.000000X0.750000X-1.000000X-0.750000X1.000000X-0.750000X1.000000X0.750000X0*%
%ADD19RoundRect,0.875000X-0.875000X0.875000X-0.875000X-0.875000X0.875000X-0.875000X0.875000X0.875000X0*%
%ADD20C,0.650000*%
%ADD21O,1.000000X2.100000*%
%ADD22O,1.000000X1.600000*%
%ADD23R,1.000000X1.000000*%
%ADD24C,1.000000*%
G04 APERTURE END LIST*
D10*
X24023810Y-76213855D02*
X24023810Y-76785283D01*
X24023810Y-76785283D02*
X24061905Y-76899569D01*
X24061905Y-76899569D02*
X24138096Y-76975760D01*
X24138096Y-76975760D02*
X24252381Y-77013855D01*
X24252381Y-77013855D02*
X24328572Y-77013855D01*
X23642857Y-77013855D02*
X23642857Y-76213855D01*
X23642857Y-76213855D02*
X23338095Y-76213855D01*
X23338095Y-76213855D02*
X23261905Y-76251950D01*
X23261905Y-76251950D02*
X23223810Y-76290045D01*
X23223810Y-76290045D02*
X23185714Y-76366236D01*
X23185714Y-76366236D02*
X23185714Y-76480521D01*
X23185714Y-76480521D02*
X23223810Y-76556712D01*
X23223810Y-76556712D02*
X23261905Y-76594807D01*
X23261905Y-76594807D02*
X23338095Y-76632902D01*
X23338095Y-76632902D02*
X23642857Y-76632902D01*
X22880953Y-76290045D02*
X22842857Y-76251950D01*
X22842857Y-76251950D02*
X22766667Y-76213855D01*
X22766667Y-76213855D02*
X22576191Y-76213855D01*
X22576191Y-76213855D02*
X22500000Y-76251950D01*
X22500000Y-76251950D02*
X22461905Y-76290045D01*
X22461905Y-76290045D02*
X22423810Y-76366236D01*
X22423810Y-76366236D02*
X22423810Y-76442426D01*
X22423810Y-76442426D02*
X22461905Y-76556712D01*
X22461905Y-76556712D02*
X22919048Y-77013855D01*
X22919048Y-77013855D02*
X22423810Y-77013855D01*
X21052381Y-77013855D02*
X21509524Y-77013855D01*
X21280952Y-77013855D02*
X21280952Y-76213855D01*
X21280952Y-76213855D02*
X21357143Y-76328140D01*
X21357143Y-76328140D02*
X21433333Y-76404331D01*
X21433333Y-76404331D02*
X21509524Y-76442426D01*
X20709523Y-76709093D02*
X20100000Y-76709093D01*
X19757143Y-76290045D02*
X19719047Y-76251950D01*
X19719047Y-76251950D02*
X19642857Y-76213855D01*
X19642857Y-76213855D02*
X19452381Y-76213855D01*
X19452381Y-76213855D02*
X19376190Y-76251950D01*
X19376190Y-76251950D02*
X19338095Y-76290045D01*
X19338095Y-76290045D02*
X19300000Y-76366236D01*
X19300000Y-76366236D02*
X19300000Y-76442426D01*
X19300000Y-76442426D02*
X19338095Y-76556712D01*
X19338095Y-76556712D02*
X19795238Y-77013855D01*
X19795238Y-77013855D02*
X19300000Y-77013855D01*
X17928571Y-76251950D02*
X18004761Y-76213855D01*
X18004761Y-76213855D02*
X18119047Y-76213855D01*
X18119047Y-76213855D02*
X18233333Y-76251950D01*
X18233333Y-76251950D02*
X18309523Y-76328140D01*
X18309523Y-76328140D02*
X18347618Y-76404331D01*
X18347618Y-76404331D02*
X18385714Y-76556712D01*
X18385714Y-76556712D02*
X18385714Y-76670998D01*
X18385714Y-76670998D02*
X18347618Y-76823379D01*
X18347618Y-76823379D02*
X18309523Y-76899569D01*
X18309523Y-76899569D02*
X18233333Y-76975760D01*
X18233333Y-76975760D02*
X18119047Y-77013855D01*
X18119047Y-77013855D02*
X18042856Y-77013855D01*
X18042856Y-77013855D02*
X17928571Y-76975760D01*
X17928571Y-76975760D02*
X17890475Y-76937664D01*
X17890475Y-76937664D02*
X17890475Y-76670998D01*
X17890475Y-76670998D02*
X18042856Y-76670998D01*
X17547618Y-77013855D02*
X17547618Y-76213855D01*
X17547618Y-76213855D02*
X17090475Y-77013855D01*
X17090475Y-77013855D02*
X17090475Y-76213855D01*
X16709523Y-77013855D02*
X16709523Y-76213855D01*
X16709523Y-76213855D02*
X16519047Y-76213855D01*
X16519047Y-76213855D02*
X16404761Y-76251950D01*
X16404761Y-76251950D02*
X16328571Y-76328140D01*
X16328571Y-76328140D02*
X16290476Y-76404331D01*
X16290476Y-76404331D02*
X16252380Y-76556712D01*
X16252380Y-76556712D02*
X16252380Y-76670998D01*
X16252380Y-76670998D02*
X16290476Y-76823379D01*
X16290476Y-76823379D02*
X16328571Y-76899569D01*
X16328571Y-76899569D02*
X16404761Y-76975760D01*
X16404761Y-76975760D02*
X16519047Y-77013855D01*
X16519047Y-77013855D02*
X16709523Y-77013855D01*
X14728571Y-76175760D02*
X15414285Y-77204331D01*
X13890476Y-76290045D02*
X13852380Y-76251950D01*
X13852380Y-76251950D02*
X13776190Y-76213855D01*
X13776190Y-76213855D02*
X13585714Y-76213855D01*
X13585714Y-76213855D02*
X13509523Y-76251950D01*
X13509523Y-76251950D02*
X13471428Y-76290045D01*
X13471428Y-76290045D02*
X13433333Y-76366236D01*
X13433333Y-76366236D02*
X13433333Y-76442426D01*
X13433333Y-76442426D02*
X13471428Y-76556712D01*
X13471428Y-76556712D02*
X13928571Y-77013855D01*
X13928571Y-77013855D02*
X13433333Y-77013855D01*
X13090475Y-76709093D02*
X12480952Y-76709093D01*
X12176190Y-76213855D02*
X11680952Y-76213855D01*
X11680952Y-76213855D02*
X11947618Y-76518617D01*
X11947618Y-76518617D02*
X11833333Y-76518617D01*
X11833333Y-76518617D02*
X11757142Y-76556712D01*
X11757142Y-76556712D02*
X11719047Y-76594807D01*
X11719047Y-76594807D02*
X11680952Y-76670998D01*
X11680952Y-76670998D02*
X11680952Y-76861474D01*
X11680952Y-76861474D02*
X11719047Y-76937664D01*
X11719047Y-76937664D02*
X11757142Y-76975760D01*
X11757142Y-76975760D02*
X11833333Y-77013855D01*
X11833333Y-77013855D02*
X12061904Y-77013855D01*
X12061904Y-77013855D02*
X12138095Y-76975760D01*
X12138095Y-76975760D02*
X12176190Y-76937664D01*
X10728570Y-76709093D02*
X10119047Y-76709093D01*
X10423808Y-77013855D02*
X10423808Y-76404331D01*
X9357142Y-76213855D02*
X9738094Y-76213855D01*
X9738094Y-76213855D02*
X9776190Y-76594807D01*
X9776190Y-76594807D02*
X9738094Y-76556712D01*
X9738094Y-76556712D02*
X9661904Y-76518617D01*
X9661904Y-76518617D02*
X9471428Y-76518617D01*
X9471428Y-76518617D02*
X9395237Y-76556712D01*
X9395237Y-76556712D02*
X9357142Y-76594807D01*
X9357142Y-76594807D02*
X9319047Y-76670998D01*
X9319047Y-76670998D02*
X9319047Y-76861474D01*
X9319047Y-76861474D02*
X9357142Y-76937664D01*
X9357142Y-76937664D02*
X9395237Y-76975760D01*
X9395237Y-76975760D02*
X9471428Y-77013855D01*
X9471428Y-77013855D02*
X9661904Y-77013855D01*
X9661904Y-77013855D02*
X9738094Y-76975760D01*
X9738094Y-76975760D02*
X9776190Y-76937664D01*
X9090475Y-76213855D02*
X8823808Y-77013855D01*
X8823808Y-77013855D02*
X8557142Y-76213855D01*
X7452380Y-77318617D02*
X7490475Y-77280521D01*
X7490475Y-77280521D02*
X7566666Y-77166236D01*
X7566666Y-77166236D02*
X7604761Y-77090045D01*
X7604761Y-77090045D02*
X7642856Y-76975760D01*
X7642856Y-76975760D02*
X7680951Y-76785283D01*
X7680951Y-76785283D02*
X7680951Y-76632902D01*
X7680951Y-76632902D02*
X7642856Y-76442426D01*
X7642856Y-76442426D02*
X7604761Y-76328140D01*
X7604761Y-76328140D02*
X7566666Y-76251950D01*
X7566666Y-76251950D02*
X7490475Y-76137664D01*
X7490475Y-76137664D02*
X7452380Y-76099569D01*
X7147618Y-77013855D02*
X7147618Y-76213855D01*
X7147618Y-76213855D02*
X6842856Y-76213855D01*
X6842856Y-76213855D02*
X6766666Y-76251950D01*
X6766666Y-76251950D02*
X6728571Y-76290045D01*
X6728571Y-76290045D02*
X6690475Y-76366236D01*
X6690475Y-76366236D02*
X6690475Y-76480521D01*
X6690475Y-76480521D02*
X6728571Y-76556712D01*
X6728571Y-76556712D02*
X6766666Y-76594807D01*
X6766666Y-76594807D02*
X6842856Y-76632902D01*
X6842856Y-76632902D02*
X7147618Y-76632902D01*
X6385714Y-76975760D02*
X6271428Y-77013855D01*
X6271428Y-77013855D02*
X6080952Y-77013855D01*
X6080952Y-77013855D02*
X6004761Y-76975760D01*
X6004761Y-76975760D02*
X5966666Y-76937664D01*
X5966666Y-76937664D02*
X5928571Y-76861474D01*
X5928571Y-76861474D02*
X5928571Y-76785283D01*
X5928571Y-76785283D02*
X5966666Y-76709093D01*
X5966666Y-76709093D02*
X6004761Y-76670998D01*
X6004761Y-76670998D02*
X6080952Y-76632902D01*
X6080952Y-76632902D02*
X6233333Y-76594807D01*
X6233333Y-76594807D02*
X6309523Y-76556712D01*
X6309523Y-76556712D02*
X6347618Y-76518617D01*
X6347618Y-76518617D02*
X6385714Y-76442426D01*
X6385714Y-76442426D02*
X6385714Y-76366236D01*
X6385714Y-76366236D02*
X6347618Y-76290045D01*
X6347618Y-76290045D02*
X6309523Y-76251950D01*
X6309523Y-76251950D02*
X6233333Y-76213855D01*
X6233333Y-76213855D02*
X6042856Y-76213855D01*
X6042856Y-76213855D02*
X5928571Y-76251950D01*
X5014285Y-76175760D02*
X5699999Y-77204331D01*
X4785714Y-76290045D02*
X4747618Y-76251950D01*
X4747618Y-76251950D02*
X4671428Y-76213855D01*
X4671428Y-76213855D02*
X4480952Y-76213855D01*
X4480952Y-76213855D02*
X4404761Y-76251950D01*
X4404761Y-76251950D02*
X4366666Y-76290045D01*
X4366666Y-76290045D02*
X4328571Y-76366236D01*
X4328571Y-76366236D02*
X4328571Y-76442426D01*
X4328571Y-76442426D02*
X4366666Y-76556712D01*
X4366666Y-76556712D02*
X4823809Y-77013855D01*
X4823809Y-77013855D02*
X4328571Y-77013855D01*
X3261904Y-77013855D02*
X3338094Y-76975760D01*
X3338094Y-76975760D02*
X3376189Y-76937664D01*
X3376189Y-76937664D02*
X3414285Y-76861474D01*
X3414285Y-76861474D02*
X3414285Y-76632902D01*
X3414285Y-76632902D02*
X3376189Y-76556712D01*
X3376189Y-76556712D02*
X3338094Y-76518617D01*
X3338094Y-76518617D02*
X3261904Y-76480521D01*
X3261904Y-76480521D02*
X3147618Y-76480521D01*
X3147618Y-76480521D02*
X3071427Y-76518617D01*
X3071427Y-76518617D02*
X3033332Y-76556712D01*
X3033332Y-76556712D02*
X2995237Y-76632902D01*
X2995237Y-76632902D02*
X2995237Y-76861474D01*
X2995237Y-76861474D02*
X3033332Y-76937664D01*
X3033332Y-76937664D02*
X3071427Y-76975760D01*
X3071427Y-76975760D02*
X3147618Y-77013855D01*
X3147618Y-77013855D02*
X3261904Y-77013855D01*
X2652379Y-76480521D02*
X2652379Y-77013855D01*
X2652379Y-76556712D02*
X2614284Y-76518617D01*
X2614284Y-76518617D02*
X2538094Y-76480521D01*
X2538094Y-76480521D02*
X2423808Y-76480521D01*
X2423808Y-76480521D02*
X2347617Y-76518617D01*
X2347617Y-76518617D02*
X2309522Y-76594807D01*
X2309522Y-76594807D02*
X2309522Y-77013855D01*
X1814284Y-77013855D02*
X1890474Y-76975760D01*
X1890474Y-76975760D02*
X1928569Y-76899569D01*
X1928569Y-76899569D02*
X1928569Y-76213855D01*
X1585712Y-76480521D02*
X1395236Y-77013855D01*
X1204759Y-76480521D02*
X1395236Y-77013855D01*
X1395236Y-77013855D02*
X1471426Y-77204331D01*
X1471426Y-77204331D02*
X1509521Y-77242426D01*
X1509521Y-77242426D02*
X1585712Y-77280521D01*
X976188Y-77318617D02*
X938093Y-77280521D01*
X938093Y-77280521D02*
X861902Y-77166236D01*
X861902Y-77166236D02*
X823807Y-77090045D01*
X823807Y-77090045D02*
X785712Y-76975760D01*
X785712Y-76975760D02*
X747616Y-76785283D01*
X747616Y-76785283D02*
X747616Y-76632902D01*
X747616Y-76632902D02*
X785712Y-76442426D01*
X785712Y-76442426D02*
X823807Y-76328140D01*
X823807Y-76328140D02*
X861902Y-76251950D01*
X861902Y-76251950D02*
X938093Y-76137664D01*
X938093Y-76137664D02*
X976188Y-76099569D01*
X26145238Y-73213855D02*
X26145238Y-73785283D01*
X26145238Y-73785283D02*
X26183333Y-73899569D01*
X26183333Y-73899569D02*
X26259524Y-73975760D01*
X26259524Y-73975760D02*
X26373809Y-74013855D01*
X26373809Y-74013855D02*
X26450000Y-74013855D01*
X25764285Y-74013855D02*
X25764285Y-73213855D01*
X25764285Y-73213855D02*
X25459523Y-73213855D01*
X25459523Y-73213855D02*
X25383333Y-73251950D01*
X25383333Y-73251950D02*
X25345238Y-73290045D01*
X25345238Y-73290045D02*
X25307142Y-73366236D01*
X25307142Y-73366236D02*
X25307142Y-73480521D01*
X25307142Y-73480521D02*
X25345238Y-73556712D01*
X25345238Y-73556712D02*
X25383333Y-73594807D01*
X25383333Y-73594807D02*
X25459523Y-73632902D01*
X25459523Y-73632902D02*
X25764285Y-73632902D01*
X24545238Y-74013855D02*
X25002381Y-74013855D01*
X24773809Y-74013855D02*
X24773809Y-73213855D01*
X24773809Y-73213855D02*
X24850000Y-73328140D01*
X24850000Y-73328140D02*
X24926190Y-73404331D01*
X24926190Y-73404331D02*
X25002381Y-73442426D01*
X23592856Y-74013855D02*
X23592856Y-73213855D01*
X23592856Y-73518617D02*
X23516666Y-73480521D01*
X23516666Y-73480521D02*
X23364285Y-73480521D01*
X23364285Y-73480521D02*
X23288094Y-73518617D01*
X23288094Y-73518617D02*
X23249999Y-73556712D01*
X23249999Y-73556712D02*
X23211904Y-73632902D01*
X23211904Y-73632902D02*
X23211904Y-73861474D01*
X23211904Y-73861474D02*
X23249999Y-73937664D01*
X23249999Y-73937664D02*
X23288094Y-73975760D01*
X23288094Y-73975760D02*
X23364285Y-74013855D01*
X23364285Y-74013855D02*
X23516666Y-74013855D01*
X23516666Y-74013855D02*
X23592856Y-73975760D01*
X22869046Y-74013855D02*
X22869046Y-73480521D01*
X22869046Y-73632902D02*
X22830951Y-73556712D01*
X22830951Y-73556712D02*
X22792856Y-73518617D01*
X22792856Y-73518617D02*
X22716665Y-73480521D01*
X22716665Y-73480521D02*
X22640475Y-73480521D01*
X22373808Y-74013855D02*
X22373808Y-73480521D01*
X22373808Y-73213855D02*
X22411904Y-73251950D01*
X22411904Y-73251950D02*
X22373808Y-73290045D01*
X22373808Y-73290045D02*
X22335713Y-73251950D01*
X22335713Y-73251950D02*
X22373808Y-73213855D01*
X22373808Y-73213855D02*
X22373808Y-73290045D01*
X21649999Y-74013855D02*
X21649999Y-73213855D01*
X21649999Y-73975760D02*
X21726190Y-74013855D01*
X21726190Y-74013855D02*
X21878571Y-74013855D01*
X21878571Y-74013855D02*
X21954761Y-73975760D01*
X21954761Y-73975760D02*
X21992856Y-73937664D01*
X21992856Y-73937664D02*
X22030952Y-73861474D01*
X22030952Y-73861474D02*
X22030952Y-73632902D01*
X22030952Y-73632902D02*
X21992856Y-73556712D01*
X21992856Y-73556712D02*
X21954761Y-73518617D01*
X21954761Y-73518617D02*
X21878571Y-73480521D01*
X21878571Y-73480521D02*
X21726190Y-73480521D01*
X21726190Y-73480521D02*
X21649999Y-73518617D01*
X20926189Y-73480521D02*
X20926189Y-74128140D01*
X20926189Y-74128140D02*
X20964284Y-74204331D01*
X20964284Y-74204331D02*
X21002380Y-74242426D01*
X21002380Y-74242426D02*
X21078570Y-74280521D01*
X21078570Y-74280521D02*
X21192856Y-74280521D01*
X21192856Y-74280521D02*
X21269046Y-74242426D01*
X20926189Y-73975760D02*
X21002380Y-74013855D01*
X21002380Y-74013855D02*
X21154761Y-74013855D01*
X21154761Y-74013855D02*
X21230951Y-73975760D01*
X21230951Y-73975760D02*
X21269046Y-73937664D01*
X21269046Y-73937664D02*
X21307142Y-73861474D01*
X21307142Y-73861474D02*
X21307142Y-73632902D01*
X21307142Y-73632902D02*
X21269046Y-73556712D01*
X21269046Y-73556712D02*
X21230951Y-73518617D01*
X21230951Y-73518617D02*
X21154761Y-73480521D01*
X21154761Y-73480521D02*
X21002380Y-73480521D01*
X21002380Y-73480521D02*
X20926189Y-73518617D01*
X20240474Y-73975760D02*
X20316665Y-74013855D01*
X20316665Y-74013855D02*
X20469046Y-74013855D01*
X20469046Y-74013855D02*
X20545236Y-73975760D01*
X20545236Y-73975760D02*
X20583332Y-73899569D01*
X20583332Y-73899569D02*
X20583332Y-73594807D01*
X20583332Y-73594807D02*
X20545236Y-73518617D01*
X20545236Y-73518617D02*
X20469046Y-73480521D01*
X20469046Y-73480521D02*
X20316665Y-73480521D01*
X20316665Y-73480521D02*
X20240474Y-73518617D01*
X20240474Y-73518617D02*
X20202379Y-73594807D01*
X20202379Y-73594807D02*
X20202379Y-73670998D01*
X20202379Y-73670998D02*
X20583332Y-73747188D01*
X19859522Y-73937664D02*
X19821427Y-73975760D01*
X19821427Y-73975760D02*
X19859522Y-74013855D01*
X19859522Y-74013855D02*
X19897618Y-73975760D01*
X19897618Y-73975760D02*
X19859522Y-73937664D01*
X19859522Y-73937664D02*
X19859522Y-74013855D01*
X19859522Y-73518617D02*
X19821427Y-73556712D01*
X19821427Y-73556712D02*
X19859522Y-73594807D01*
X19859522Y-73594807D02*
X19897618Y-73556712D01*
X19897618Y-73556712D02*
X19859522Y-73518617D01*
X19859522Y-73518617D02*
X19859522Y-73594807D01*
X18640475Y-73213855D02*
X18640475Y-73785283D01*
X18640475Y-73785283D02*
X18678570Y-73899569D01*
X18678570Y-73899569D02*
X18754761Y-73975760D01*
X18754761Y-73975760D02*
X18869046Y-74013855D01*
X18869046Y-74013855D02*
X18945237Y-74013855D01*
X17916665Y-73213855D02*
X18069046Y-73213855D01*
X18069046Y-73213855D02*
X18145237Y-73251950D01*
X18145237Y-73251950D02*
X18183332Y-73290045D01*
X18183332Y-73290045D02*
X18259522Y-73404331D01*
X18259522Y-73404331D02*
X18297618Y-73556712D01*
X18297618Y-73556712D02*
X18297618Y-73861474D01*
X18297618Y-73861474D02*
X18259522Y-73937664D01*
X18259522Y-73937664D02*
X18221427Y-73975760D01*
X18221427Y-73975760D02*
X18145237Y-74013855D01*
X18145237Y-74013855D02*
X17992856Y-74013855D01*
X17992856Y-74013855D02*
X17916665Y-73975760D01*
X17916665Y-73975760D02*
X17878570Y-73937664D01*
X17878570Y-73937664D02*
X17840475Y-73861474D01*
X17840475Y-73861474D02*
X17840475Y-73670998D01*
X17840475Y-73670998D02*
X17878570Y-73594807D01*
X17878570Y-73594807D02*
X17916665Y-73556712D01*
X17916665Y-73556712D02*
X17992856Y-73518617D01*
X17992856Y-73518617D02*
X18145237Y-73518617D01*
X18145237Y-73518617D02*
X18221427Y-73556712D01*
X18221427Y-73556712D02*
X18259522Y-73594807D01*
X18259522Y-73594807D02*
X18297618Y-73670998D01*
X17497617Y-73937664D02*
X17459522Y-73975760D01*
X17459522Y-73975760D02*
X17497617Y-74013855D01*
X17497617Y-74013855D02*
X17535713Y-73975760D01*
X17535713Y-73975760D02*
X17497617Y-73937664D01*
X17497617Y-73937664D02*
X17497617Y-74013855D01*
X16773808Y-73213855D02*
X16926189Y-73213855D01*
X16926189Y-73213855D02*
X17002380Y-73251950D01*
X17002380Y-73251950D02*
X17040475Y-73290045D01*
X17040475Y-73290045D02*
X17116665Y-73404331D01*
X17116665Y-73404331D02*
X17154761Y-73556712D01*
X17154761Y-73556712D02*
X17154761Y-73861474D01*
X17154761Y-73861474D02*
X17116665Y-73937664D01*
X17116665Y-73937664D02*
X17078570Y-73975760D01*
X17078570Y-73975760D02*
X17002380Y-74013855D01*
X17002380Y-74013855D02*
X16849999Y-74013855D01*
X16849999Y-74013855D02*
X16773808Y-73975760D01*
X16773808Y-73975760D02*
X16735713Y-73937664D01*
X16735713Y-73937664D02*
X16697618Y-73861474D01*
X16697618Y-73861474D02*
X16697618Y-73670998D01*
X16697618Y-73670998D02*
X16735713Y-73594807D01*
X16735713Y-73594807D02*
X16773808Y-73556712D01*
X16773808Y-73556712D02*
X16849999Y-73518617D01*
X16849999Y-73518617D02*
X17002380Y-73518617D01*
X17002380Y-73518617D02*
X17078570Y-73556712D01*
X17078570Y-73556712D02*
X17116665Y-73594807D01*
X17116665Y-73594807D02*
X17154761Y-73670998D01*
X16354760Y-73594807D02*
X15745237Y-73594807D01*
X15745237Y-73823379D02*
X16354760Y-73823379D01*
X15364284Y-74013855D02*
X15364284Y-73213855D01*
X15364284Y-73213855D02*
X15173808Y-73213855D01*
X15173808Y-73213855D02*
X15059522Y-73251950D01*
X15059522Y-73251950D02*
X14983332Y-73328140D01*
X14983332Y-73328140D02*
X14945237Y-73404331D01*
X14945237Y-73404331D02*
X14907141Y-73556712D01*
X14907141Y-73556712D02*
X14907141Y-73670998D01*
X14907141Y-73670998D02*
X14945237Y-73823379D01*
X14945237Y-73823379D02*
X14983332Y-73899569D01*
X14983332Y-73899569D02*
X15059522Y-73975760D01*
X15059522Y-73975760D02*
X15173808Y-74013855D01*
X15173808Y-74013855D02*
X15364284Y-74013855D01*
X14107141Y-74013855D02*
X14373808Y-73632902D01*
X14564284Y-74013855D02*
X14564284Y-73213855D01*
X14564284Y-73213855D02*
X14259522Y-73213855D01*
X14259522Y-73213855D02*
X14183332Y-73251950D01*
X14183332Y-73251950D02*
X14145237Y-73290045D01*
X14145237Y-73290045D02*
X14107141Y-73366236D01*
X14107141Y-73366236D02*
X14107141Y-73480521D01*
X14107141Y-73480521D02*
X14145237Y-73556712D01*
X14145237Y-73556712D02*
X14183332Y-73594807D01*
X14183332Y-73594807D02*
X14259522Y-73632902D01*
X14259522Y-73632902D02*
X14564284Y-73632902D01*
X13802380Y-73785283D02*
X13421427Y-73785283D01*
X13878570Y-74013855D02*
X13611903Y-73213855D01*
X13611903Y-73213855D02*
X13345237Y-74013855D01*
X13192856Y-73213855D02*
X12735713Y-73213855D01*
X12964285Y-74013855D02*
X12964285Y-73213855D01*
X12469046Y-73594807D02*
X12202380Y-73594807D01*
X12088094Y-74013855D02*
X12469046Y-74013855D01*
X12469046Y-74013855D02*
X12469046Y-73213855D01*
X12469046Y-73213855D02*
X12088094Y-73213855D01*
D11*
X62971428Y-23345782D02*
X62971428Y-24317211D01*
X62971428Y-24317211D02*
X62914285Y-24431497D01*
X62914285Y-24431497D02*
X62857143Y-24488640D01*
X62857143Y-24488640D02*
X62742857Y-24545782D01*
X62742857Y-24545782D02*
X62514285Y-24545782D01*
X62514285Y-24545782D02*
X62400000Y-24488640D01*
X62400000Y-24488640D02*
X62342857Y-24431497D01*
X62342857Y-24431497D02*
X62285714Y-24317211D01*
X62285714Y-24317211D02*
X62285714Y-23345782D01*
X61314285Y-23917211D02*
X61714285Y-23917211D01*
X61714285Y-24545782D02*
X61714285Y-23345782D01*
X61714285Y-23345782D02*
X61142857Y-23345782D01*
X60685714Y-24545782D02*
X60685714Y-23345782D01*
X59199999Y-24545782D02*
X59199999Y-23345782D01*
X59199999Y-23917211D02*
X58514285Y-23917211D01*
X58514285Y-24545782D02*
X58514285Y-23345782D01*
X57485713Y-24488640D02*
X57599999Y-24545782D01*
X57599999Y-24545782D02*
X57828571Y-24545782D01*
X57828571Y-24545782D02*
X57942856Y-24488640D01*
X57942856Y-24488640D02*
X57999999Y-24374354D01*
X57999999Y-24374354D02*
X57999999Y-23917211D01*
X57999999Y-23917211D02*
X57942856Y-23802925D01*
X57942856Y-23802925D02*
X57828571Y-23745782D01*
X57828571Y-23745782D02*
X57599999Y-23745782D01*
X57599999Y-23745782D02*
X57485713Y-23802925D01*
X57485713Y-23802925D02*
X57428571Y-23917211D01*
X57428571Y-23917211D02*
X57428571Y-24031497D01*
X57428571Y-24031497D02*
X57999999Y-24145782D01*
X56400000Y-24545782D02*
X56400000Y-23917211D01*
X56400000Y-23917211D02*
X56457142Y-23802925D01*
X56457142Y-23802925D02*
X56571428Y-23745782D01*
X56571428Y-23745782D02*
X56800000Y-23745782D01*
X56800000Y-23745782D02*
X56914285Y-23802925D01*
X56400000Y-24488640D02*
X56514285Y-24545782D01*
X56514285Y-24545782D02*
X56800000Y-24545782D01*
X56800000Y-24545782D02*
X56914285Y-24488640D01*
X56914285Y-24488640D02*
X56971428Y-24374354D01*
X56971428Y-24374354D02*
X56971428Y-24260068D01*
X56971428Y-24260068D02*
X56914285Y-24145782D01*
X56914285Y-24145782D02*
X56800000Y-24088640D01*
X56800000Y-24088640D02*
X56514285Y-24088640D01*
X56514285Y-24088640D02*
X56400000Y-24031497D01*
X55314286Y-24545782D02*
X55314286Y-23345782D01*
X55314286Y-24488640D02*
X55428571Y-24545782D01*
X55428571Y-24545782D02*
X55657143Y-24545782D01*
X55657143Y-24545782D02*
X55771428Y-24488640D01*
X55771428Y-24488640D02*
X55828571Y-24431497D01*
X55828571Y-24431497D02*
X55885714Y-24317211D01*
X55885714Y-24317211D02*
X55885714Y-23974354D01*
X55885714Y-23974354D02*
X55828571Y-23860068D01*
X55828571Y-23860068D02*
X55771428Y-23802925D01*
X55771428Y-23802925D02*
X55657143Y-23745782D01*
X55657143Y-23745782D02*
X55428571Y-23745782D01*
X55428571Y-23745782D02*
X55314286Y-23802925D01*
X54571429Y-24545782D02*
X54685714Y-24488640D01*
X54685714Y-24488640D02*
X54742857Y-24374354D01*
X54742857Y-24374354D02*
X54742857Y-23345782D01*
X53657143Y-24488640D02*
X53771429Y-24545782D01*
X53771429Y-24545782D02*
X54000001Y-24545782D01*
X54000001Y-24545782D02*
X54114286Y-24488640D01*
X54114286Y-24488640D02*
X54171429Y-24374354D01*
X54171429Y-24374354D02*
X54171429Y-23917211D01*
X54171429Y-23917211D02*
X54114286Y-23802925D01*
X54114286Y-23802925D02*
X54000001Y-23745782D01*
X54000001Y-23745782D02*
X53771429Y-23745782D01*
X53771429Y-23745782D02*
X53657143Y-23802925D01*
X53657143Y-23802925D02*
X53600001Y-23917211D01*
X53600001Y-23917211D02*
X53600001Y-24031497D01*
X53600001Y-24031497D02*
X54171429Y-24145782D01*
X53142858Y-24488640D02*
X53028572Y-24545782D01*
X53028572Y-24545782D02*
X52800001Y-24545782D01*
X52800001Y-24545782D02*
X52685715Y-24488640D01*
X52685715Y-24488640D02*
X52628572Y-24374354D01*
X52628572Y-24374354D02*
X52628572Y-24317211D01*
X52628572Y-24317211D02*
X52685715Y-24202925D01*
X52685715Y-24202925D02*
X52800001Y-24145782D01*
X52800001Y-24145782D02*
X52971430Y-24145782D01*
X52971430Y-24145782D02*
X53085715Y-24088640D01*
X53085715Y-24088640D02*
X53142858Y-23974354D01*
X53142858Y-23974354D02*
X53142858Y-23917211D01*
X53142858Y-23917211D02*
X53085715Y-23802925D01*
X53085715Y-23802925D02*
X52971430Y-23745782D01*
X52971430Y-23745782D02*
X52800001Y-23745782D01*
X52800001Y-23745782D02*
X52685715Y-23802925D01*
X52171429Y-24488640D02*
X52057143Y-24545782D01*
X52057143Y-24545782D02*
X51828572Y-24545782D01*
X51828572Y-24545782D02*
X51714286Y-24488640D01*
X51714286Y-24488640D02*
X51657143Y-24374354D01*
X51657143Y-24374354D02*
X51657143Y-24317211D01*
X51657143Y-24317211D02*
X51714286Y-24202925D01*
X51714286Y-24202925D02*
X51828572Y-24145782D01*
X51828572Y-24145782D02*
X52000001Y-24145782D01*
X52000001Y-24145782D02*
X52114286Y-24088640D01*
X52114286Y-24088640D02*
X52171429Y-23974354D01*
X52171429Y-23974354D02*
X52171429Y-23917211D01*
X52171429Y-23917211D02*
X52114286Y-23802925D01*
X52114286Y-23802925D02*
X52000001Y-23745782D01*
X52000001Y-23745782D02*
X51828572Y-23745782D01*
X51828572Y-23745782D02*
X51714286Y-23802925D01*
X50342857Y-23745782D02*
X50057143Y-24545782D01*
X50057143Y-24545782D02*
X49771428Y-23745782D01*
X49085714Y-23345782D02*
X48971428Y-23345782D01*
X48971428Y-23345782D02*
X48857142Y-23402925D01*
X48857142Y-23402925D02*
X48800000Y-23460068D01*
X48800000Y-23460068D02*
X48742857Y-23574354D01*
X48742857Y-23574354D02*
X48685714Y-23802925D01*
X48685714Y-23802925D02*
X48685714Y-24088640D01*
X48685714Y-24088640D02*
X48742857Y-24317211D01*
X48742857Y-24317211D02*
X48800000Y-24431497D01*
X48800000Y-24431497D02*
X48857142Y-24488640D01*
X48857142Y-24488640D02*
X48971428Y-24545782D01*
X48971428Y-24545782D02*
X49085714Y-24545782D01*
X49085714Y-24545782D02*
X49200000Y-24488640D01*
X49200000Y-24488640D02*
X49257142Y-24431497D01*
X49257142Y-24431497D02*
X49314285Y-24317211D01*
X49314285Y-24317211D02*
X49371428Y-24088640D01*
X49371428Y-24088640D02*
X49371428Y-23802925D01*
X49371428Y-23802925D02*
X49314285Y-23574354D01*
X49314285Y-23574354D02*
X49257142Y-23460068D01*
X49257142Y-23460068D02*
X49200000Y-23402925D01*
X49200000Y-23402925D02*
X49085714Y-23345782D01*
X48171428Y-24431497D02*
X48114285Y-24488640D01*
X48114285Y-24488640D02*
X48171428Y-24545782D01*
X48171428Y-24545782D02*
X48228571Y-24488640D01*
X48228571Y-24488640D02*
X48171428Y-24431497D01*
X48171428Y-24431497D02*
X48171428Y-24545782D01*
X46971428Y-24545782D02*
X47657142Y-24545782D01*
X47314285Y-24545782D02*
X47314285Y-23345782D01*
X47314285Y-23345782D02*
X47428571Y-23517211D01*
X47428571Y-23517211D02*
X47542856Y-23631497D01*
X47542856Y-23631497D02*
X47657142Y-23688640D01*
%LPC*%
D12*
%TO.C,J11*%
X59500000Y-73500000D03*
D13*
X62040000Y-73500000D03*
%TD*%
D12*
%TO.C,J9*%
X28500000Y-11000000D03*
D13*
X31040000Y-11000000D03*
X28500000Y-13540000D03*
X31040000Y-13540000D03*
X28500000Y-16080000D03*
X31040000Y-16080000D03*
X28500000Y-18620000D03*
X31040000Y-18620000D03*
X28500000Y-21160000D03*
X31040000Y-21160000D03*
%TD*%
D14*
%TO.C,H3*%
X1100000Y-71000000D03*
X1802944Y-69302944D03*
X1802944Y-72697056D03*
X3500000Y-68600000D03*
D15*
X3500000Y-71000000D03*
D14*
X3500000Y-73400000D03*
X5197056Y-69302944D03*
X5197056Y-72697056D03*
X5900000Y-71000000D03*
%TD*%
D12*
%TO.C,J5*%
X105000000Y-15460000D03*
D13*
X105000000Y-18000000D03*
X105000000Y-20540000D03*
%TD*%
D14*
%TO.C,H2*%
X104100000Y-3500000D03*
X104802944Y-1802944D03*
X104802944Y-5197056D03*
X106500000Y-1100000D03*
D15*
X106500000Y-3500000D03*
D14*
X106500000Y-5900000D03*
X108197056Y-1802944D03*
X108197056Y-5197056D03*
X108900000Y-3500000D03*
%TD*%
D16*
%TO.C,J6*%
X10680000Y-81275000D03*
D13*
X10680000Y-78735000D03*
X13220000Y-81275000D03*
X13220000Y-78735000D03*
X15760000Y-81275000D03*
X15760000Y-78735000D03*
X18300000Y-81275000D03*
X18300000Y-78735000D03*
X20840000Y-81275000D03*
X20840000Y-78735000D03*
X23380000Y-81275000D03*
X23380000Y-78735000D03*
X25920000Y-81275000D03*
X25920000Y-78735000D03*
X28460000Y-81275000D03*
X28460000Y-78735000D03*
X31000000Y-81275000D03*
X31000000Y-78735000D03*
X33540000Y-81275000D03*
X33540000Y-78735000D03*
X36080000Y-81275000D03*
X36080000Y-78735000D03*
X38620000Y-81275000D03*
X38620000Y-78735000D03*
X41160000Y-81275000D03*
X41160000Y-78735000D03*
X43700000Y-81275000D03*
X43700000Y-78735000D03*
X46240000Y-81275000D03*
X46240000Y-78735000D03*
X48780000Y-81275000D03*
X48780000Y-78735000D03*
X51320000Y-81275000D03*
X51320000Y-78735000D03*
%TD*%
D17*
%TO.C,J2*%
X14000000Y-14045000D03*
D18*
X14000000Y-8045000D03*
D19*
X9300000Y-11045000D03*
%TD*%
D12*
%TO.C,J12*%
X21000000Y-9000000D03*
D13*
X23540000Y-9000000D03*
X21000000Y-11540000D03*
X23540000Y-11540000D03*
X21000000Y-14080000D03*
X23540000Y-14080000D03*
X21000000Y-16620000D03*
X23540000Y-16620000D03*
%TD*%
D14*
%TO.C,H1*%
X1100000Y-3500000D03*
X1802944Y-1802944D03*
X1802944Y-5197056D03*
X3500000Y-1100000D03*
D15*
X3500000Y-3500000D03*
D14*
X3500000Y-5900000D03*
X5197056Y-1802944D03*
X5197056Y-5197056D03*
X5900000Y-3500000D03*
%TD*%
D20*
%TO.C,J1*%
X69110000Y-2715000D03*
X74890000Y-2715000D03*
D21*
X67680000Y-2185000D03*
D22*
X67680000Y-6365000D03*
D21*
X76320000Y-2185000D03*
D22*
X76320000Y-6365000D03*
%TD*%
D16*
%TO.C,J7*%
X70030000Y-81275000D03*
D13*
X70030000Y-78735000D03*
X72570000Y-81275000D03*
X72570000Y-78735000D03*
X75110000Y-81275000D03*
X75110000Y-78735000D03*
X77650000Y-81275000D03*
X77650000Y-78735000D03*
X80190000Y-81275000D03*
X80190000Y-78735000D03*
X82730000Y-81275000D03*
X82730000Y-78735000D03*
X85270000Y-81275000D03*
X85270000Y-78735000D03*
X87810000Y-81275000D03*
X87810000Y-78735000D03*
X90350000Y-81275000D03*
X90350000Y-78735000D03*
X92890000Y-81275000D03*
X92890000Y-78735000D03*
X95430000Y-81275000D03*
X95430000Y-78735000D03*
X97970000Y-81275000D03*
X97970000Y-78735000D03*
%TD*%
D12*
%TO.C,J3*%
X1815000Y-48190000D03*
D13*
X1815000Y-50730000D03*
X1815000Y-53270000D03*
X1815000Y-55810000D03*
%TD*%
D23*
%TO.C,J4*%
X95365000Y-3460000D03*
D24*
X96635000Y-3460000D03*
X95365000Y-4730000D03*
X96635000Y-4730000D03*
X95365000Y-6000000D03*
X96635000Y-6000000D03*
X95365000Y-7270000D03*
X96635000Y-7270000D03*
X95365000Y-8540000D03*
X96635000Y-8540000D03*
%TD*%
D14*
%TO.C,H4*%
X104100000Y-71000000D03*
X104802944Y-69302944D03*
X104802944Y-72697056D03*
X106500000Y-68600000D03*
D15*
X106500000Y-71000000D03*
D14*
X106500000Y-73400000D03*
X108197056Y-69302944D03*
X108197056Y-72697056D03*
X108900000Y-71000000D03*
%TD*%
D12*
%TO.C,J8*%
X107785000Y-33650000D03*
D13*
X107785000Y-36190000D03*
X107785000Y-38730000D03*
X107785000Y-41270000D03*
X107785000Y-43810000D03*
X107785000Y-46350000D03*
%TD*%
%LPD*%
M02*
