%TF.GenerationSoftware,KiCad,Pcbnew,10.0.6*%
%TF.CreationDate,2026-10-07T19:37:11+02:00*%
%TF.ProjectId,UFI_Headless,5546495f-4865-4616-946c-6573732e6b69,rev?*%
%TF.SameCoordinates,Original*%
%TF.FileFunction,Paste,Top*%
%TF.FilePolarity,Positive*%
%FSLAX46Y46*%
G04 Gerber Fmt 4.6, Leading zero omitted, Abs format (unit mm)*
G04 Created by KiCad (PCBNEW 10.0.6) date 2026-10-07 19:37:11*
%MOMM*%
%LPD*%
G01*
G04 APERTURE LIST*
G04 Aperture macros list*
%AMRoundRect*
0 Rectangle with rounded corners*
0 $1 Rounding radius*
0 $2 $3 $4 $5 $6 $7 $8 $9 X,Y pos of 4 corners*
0 Add a 4 corners polygon primitive as box body*
4,1,4,$2,$3,$4,$5,$6,$7,$8,$9,$2,$3,0*
0 Add four circle primitives for the rounded corners*
1,1,$1+$1,$2,$3*
1,1,$1+$1,$4,$5*
1,1,$1+$1,$6,$7*
1,1,$1+$1,$8,$9*
0 Add four rect primitives between the rounded corners*
20,1,$1+$1,$2,$3,$4,$5,0*
20,1,$1+$1,$4,$5,$6,$7,0*
20,1,$1+$1,$6,$7,$8,$9,0*
20,1,$1+$1,$8,$9,$2,$3,0*%
G04 Aperture macros list end*
%ADD10RoundRect,0.250000X-0.312500X-1.450000X0.312500X-1.450000X0.312500X1.450000X-0.312500X1.450000X0*%
%ADD11RoundRect,0.225000X-0.225000X-0.250000X0.225000X-0.250000X0.225000X0.250000X-0.225000X0.250000X0*%
%ADD12RoundRect,0.200000X-0.200000X-0.275000X0.200000X-0.275000X0.200000X0.275000X-0.200000X0.275000X0*%
%ADD13RoundRect,0.200000X0.275000X-0.200000X0.275000X0.200000X-0.275000X0.200000X-0.275000X-0.200000X0*%
%ADD14RoundRect,0.225000X0.225000X0.250000X-0.225000X0.250000X-0.225000X-0.250000X0.225000X-0.250000X0*%
%ADD15RoundRect,0.250000X-0.250000X-0.475000X0.250000X-0.475000X0.250000X0.475000X-0.250000X0.475000X0*%
%ADD16RoundRect,0.250000X0.475000X-0.250000X0.475000X0.250000X-0.475000X0.250000X-0.475000X-0.250000X0*%
%ADD17RoundRect,0.225000X0.250000X-0.225000X0.250000X0.225000X-0.250000X0.225000X-0.250000X-0.225000X0*%
%ADD18RoundRect,0.050000X-0.285000X-0.100000X0.285000X-0.100000X0.285000X0.100000X-0.285000X0.100000X0*%
%ADD19R,1.700000X0.850000*%
%ADD20RoundRect,0.150000X0.150000X-0.512500X0.150000X0.512500X-0.150000X0.512500X-0.150000X-0.512500X0*%
%ADD21RoundRect,0.150000X0.150000X-0.825000X0.150000X0.825000X-0.150000X0.825000X-0.150000X-0.825000X0*%
%ADD22RoundRect,0.150000X-0.825000X-0.150000X0.825000X-0.150000X0.825000X0.150000X-0.825000X0.150000X0*%
%ADD23RoundRect,0.250000X-0.325000X-0.650000X0.325000X-0.650000X0.325000X0.650000X-0.325000X0.650000X0*%
%ADD24R,0.800000X0.500000*%
%ADD25R,0.800000X0.400000*%
%ADD26RoundRect,0.250000X-0.312500X-0.625000X0.312500X-0.625000X0.312500X0.625000X-0.312500X0.625000X0*%
%ADD27R,1.700000X1.000000*%
%ADD28RoundRect,0.150000X-0.512500X-0.150000X0.512500X-0.150000X0.512500X0.150000X-0.512500X0.150000X0*%
%ADD29RoundRect,0.218750X-0.218750X-0.256250X0.218750X-0.256250X0.218750X0.256250X-0.218750X0.256250X0*%
%ADD30RoundRect,0.250000X0.650000X-0.325000X0.650000X0.325000X-0.650000X0.325000X-0.650000X-0.325000X0*%
%ADD31RoundRect,0.150000X0.512500X0.150000X-0.512500X0.150000X-0.512500X-0.150000X0.512500X-0.150000X0*%
%ADD32RoundRect,0.087500X0.087500X-0.425000X0.087500X0.425000X-0.087500X0.425000X-0.087500X-0.425000X0*%
%ADD33RoundRect,0.225000X-0.250000X0.225000X-0.250000X-0.225000X0.250000X-0.225000X0.250000X0.225000X0*%
%ADD34RoundRect,0.375000X-0.625000X-0.375000X0.625000X-0.375000X0.625000X0.375000X-0.625000X0.375000X0*%
%ADD35RoundRect,0.500000X-0.500000X-1.400000X0.500000X-1.400000X0.500000X1.400000X-0.500000X1.400000X0*%
%ADD36RoundRect,0.250000X-1.000000X-0.650000X1.000000X-0.650000X1.000000X0.650000X-1.000000X0.650000X0*%
%ADD37RoundRect,0.250000X-1.950000X-1.000000X1.950000X-1.000000X1.950000X1.000000X-1.950000X1.000000X0*%
%ADD38RoundRect,0.150000X-0.587500X-0.150000X0.587500X-0.150000X0.587500X0.150000X-0.587500X0.150000X0*%
%ADD39RoundRect,0.250000X-0.375000X-0.625000X0.375000X-0.625000X0.375000X0.625000X-0.375000X0.625000X0*%
%ADD40R,2.350000X5.100000*%
%ADD41RoundRect,0.200000X0.200000X0.275000X-0.200000X0.275000X-0.200000X-0.275000X0.200000X-0.275000X0*%
%ADD42RoundRect,0.250000X-0.350000X0.450000X-0.350000X-0.450000X0.350000X-0.450000X0.350000X0.450000X0*%
%ADD43R,0.500000X0.800000*%
%ADD44R,0.400000X0.800000*%
%ADD45RoundRect,0.075000X-0.662500X-0.075000X0.662500X-0.075000X0.662500X0.075000X-0.662500X0.075000X0*%
%ADD46RoundRect,0.075000X-0.075000X-0.662500X0.075000X-0.662500X0.075000X0.662500X-0.075000X0.662500X0*%
%ADD47RoundRect,0.250000X1.450000X-0.312500X1.450000X0.312500X-1.450000X0.312500X-1.450000X-0.312500X0*%
%ADD48RoundRect,0.250000X1.000000X-1.400000X1.000000X1.400000X-1.000000X1.400000X-1.000000X-1.400000X0*%
%ADD49RoundRect,0.250000X0.450000X-0.400000X0.450000X0.400000X-0.450000X0.400000X-0.450000X-0.400000X0*%
%ADD50RoundRect,0.150000X-0.150000X-0.575000X0.150000X-0.575000X0.150000X0.575000X-0.150000X0.575000X0*%
%ADD51RoundRect,0.075000X-0.075000X-0.650000X0.075000X-0.650000X0.075000X0.650000X-0.075000X0.650000X0*%
%ADD52RoundRect,0.250000X0.650000X-1.000000X0.650000X1.000000X-0.650000X1.000000X-0.650000X-1.000000X0*%
%ADD53RoundRect,0.150000X0.150000X-0.587500X0.150000X0.587500X-0.150000X0.587500X-0.150000X-0.587500X0*%
%ADD54R,1.000000X1.700000*%
%ADD55RoundRect,0.250000X-0.400000X-0.450000X0.400000X-0.450000X0.400000X0.450000X-0.400000X0.450000X0*%
%ADD56RoundRect,0.100000X-0.637500X-0.100000X0.637500X-0.100000X0.637500X0.100000X-0.637500X0.100000X0*%
%ADD57RoundRect,0.087500X-0.425000X-0.087500X0.425000X-0.087500X0.425000X0.087500X-0.425000X0.087500X0*%
G04 APERTURE END LIST*
D10*
%TO.C,F3*%
X5862500Y-53500000D03*
X10137500Y-53500000D03*
%TD*%
D11*
%TO.C,C53*%
X81725000Y-89000000D03*
X83275000Y-89000000D03*
%TD*%
D12*
%TO.C,R16*%
X71175000Y-54000000D03*
X72825000Y-54000000D03*
%TD*%
D11*
%TO.C,C34*%
X35725000Y-50000000D03*
X37275000Y-50000000D03*
%TD*%
D13*
%TO.C,R5*%
X27000000Y-51825000D03*
X27000000Y-50175000D03*
%TD*%
D12*
%TO.C,R18*%
X43175000Y-59000000D03*
X44825000Y-59000000D03*
%TD*%
D14*
%TO.C,C17*%
X41575000Y-33750000D03*
X40025000Y-33750000D03*
%TD*%
D15*
%TO.C,C11*%
X28050000Y-55000000D03*
X29950000Y-55000000D03*
%TD*%
D16*
%TO.C,C48*%
X66000000Y-25450000D03*
X66000000Y-23550000D03*
%TD*%
D11*
%TO.C,C30*%
X71725000Y-37750000D03*
X73275000Y-37750000D03*
%TD*%
D17*
%TO.C,C8*%
X23500000Y-46775000D03*
X23500000Y-45225000D03*
%TD*%
D18*
%TO.C,U3*%
X26260000Y-46250000D03*
X26260000Y-46750000D03*
X26260000Y-47250000D03*
X26260000Y-47750000D03*
X27740000Y-47750000D03*
X27740000Y-47250000D03*
X27740000Y-46750000D03*
X27740000Y-46250000D03*
%TD*%
D19*
%TO.C,U15*%
X54250000Y-7995000D03*
X54250000Y-9265000D03*
X54250000Y-10535000D03*
X54250000Y-11805000D03*
X61650000Y-11805000D03*
X61650000Y-10535000D03*
X61650000Y-9265000D03*
X61650000Y-7995000D03*
%TD*%
D13*
%TO.C,R28*%
X106000000Y-59825000D03*
X106000000Y-58175000D03*
%TD*%
D20*
%TO.C,D10*%
X94550000Y-72137500D03*
X95500000Y-72137500D03*
X96450000Y-72137500D03*
X96450000Y-69862500D03*
X95500000Y-69862500D03*
X94550000Y-69862500D03*
%TD*%
D13*
%TO.C,R10*%
X79000000Y-24825000D03*
X79000000Y-23175000D03*
%TD*%
D21*
%TO.C,U7*%
X48190000Y-68475000D03*
X49460000Y-68475000D03*
X50730000Y-68475000D03*
X52000000Y-68475000D03*
X53270000Y-68475000D03*
X54540000Y-68475000D03*
X55810000Y-68475000D03*
X55810000Y-63525000D03*
X54540000Y-63525000D03*
X53270000Y-63525000D03*
X52000000Y-63525000D03*
X50730000Y-63525000D03*
X49460000Y-63525000D03*
X48190000Y-63525000D03*
%TD*%
D15*
%TO.C,C32*%
X69050000Y-24000000D03*
X70950000Y-24000000D03*
%TD*%
D22*
%TO.C,U18*%
X14525000Y-89595000D03*
X14525000Y-90865000D03*
X14525000Y-92135000D03*
X14525000Y-93405000D03*
X19475000Y-93405000D03*
X19475000Y-92135000D03*
X19475000Y-90865000D03*
X19475000Y-89595000D03*
%TD*%
D12*
%TO.C,R1*%
X69175000Y-11200000D03*
X70825000Y-11200000D03*
%TD*%
D23*
%TO.C,C56*%
X22525000Y-94000000D03*
X25475000Y-94000000D03*
%TD*%
D24*
%TO.C,RN8*%
X93100000Y-53800000D03*
D25*
X93100000Y-54600000D03*
X93100000Y-55400000D03*
D24*
X93100000Y-56200000D03*
X94900000Y-56200000D03*
D25*
X94900000Y-55400000D03*
X94900000Y-54600000D03*
D24*
X94900000Y-53800000D03*
%TD*%
D12*
%TO.C,R33*%
X62175000Y-63500000D03*
X63825000Y-63500000D03*
%TD*%
D17*
%TO.C,C42*%
X21000000Y-66775000D03*
X21000000Y-65225000D03*
%TD*%
D26*
%TO.C,R29*%
X93537500Y-64000000D03*
X96462500Y-64000000D03*
%TD*%
D12*
%TO.C,R14*%
X87675000Y-22000000D03*
X89325000Y-22000000D03*
%TD*%
D17*
%TO.C,C49*%
X85500000Y-59275000D03*
X85500000Y-57725000D03*
%TD*%
D12*
%TO.C,R27*%
X97675000Y-53500000D03*
X99325000Y-53500000D03*
%TD*%
D17*
%TO.C,C10*%
X31000000Y-48775000D03*
X31000000Y-47225000D03*
%TD*%
D27*
%TO.C,SW2*%
X44850000Y-6100000D03*
X51150000Y-6100000D03*
X44850000Y-9900000D03*
X51150000Y-9900000D03*
%TD*%
D28*
%TO.C,D9*%
X87362500Y-71550000D03*
X87362500Y-72500000D03*
X87362500Y-73450000D03*
X89637500Y-73450000D03*
X89637500Y-72500000D03*
X89637500Y-71550000D03*
%TD*%
D29*
%TO.C,D4*%
X92212500Y-13000000D03*
X93787500Y-13000000D03*
%TD*%
D13*
%TO.C,R6*%
X29000000Y-51825000D03*
X29000000Y-50175000D03*
%TD*%
D30*
%TO.C,C6*%
X39200000Y-31475000D03*
X39200000Y-28525000D03*
%TD*%
D12*
%TO.C,R15*%
X87675000Y-25000000D03*
X89325000Y-25000000D03*
%TD*%
D13*
%TO.C,R21*%
X51500000Y-19325000D03*
X51500000Y-17675000D03*
%TD*%
D28*
%TO.C,U13*%
X87862500Y-62550000D03*
X87862500Y-63500000D03*
X87862500Y-64450000D03*
X90137500Y-64450000D03*
X90137500Y-62550000D03*
%TD*%
D15*
%TO.C,C31*%
X39050000Y-24000000D03*
X40950000Y-24000000D03*
%TD*%
D11*
%TO.C,C12*%
X32225000Y-55000000D03*
X33775000Y-55000000D03*
%TD*%
D14*
%TO.C,C38*%
X37175000Y-41400000D03*
X35625000Y-41400000D03*
%TD*%
D11*
%TO.C,C25*%
X68425000Y-37750000D03*
X69975000Y-37750000D03*
%TD*%
D23*
%TO.C,C2*%
X27525000Y-25200000D03*
X30475000Y-25200000D03*
%TD*%
D31*
%TO.C,U2*%
X26137500Y-30950000D03*
X26137500Y-30000000D03*
X26137500Y-29050000D03*
X23862500Y-29050000D03*
X23862500Y-30000000D03*
X23862500Y-30950000D03*
%TD*%
D11*
%TO.C,C26*%
X68425000Y-31250000D03*
X69975000Y-31250000D03*
%TD*%
D32*
%TO.C,U14*%
X58350000Y-61837500D03*
X59000000Y-61837500D03*
X59650000Y-61837500D03*
X59650000Y-60162500D03*
X58350000Y-60162500D03*
%TD*%
D33*
%TO.C,C20*%
X47250000Y-53425000D03*
X47250000Y-54975000D03*
%TD*%
D29*
%TO.C,D6*%
X92212500Y-19000000D03*
X93787500Y-19000000D03*
%TD*%
D23*
%TO.C,C55*%
X22525000Y-89000000D03*
X25475000Y-89000000D03*
%TD*%
D11*
%TO.C,C33*%
X35725000Y-47500000D03*
X37275000Y-47500000D03*
%TD*%
D13*
%TO.C,R36*%
X24000000Y-5825000D03*
X24000000Y-4175000D03*
%TD*%
D28*
%TO.C,D15*%
X37362500Y-88550000D03*
X37362500Y-89500000D03*
X37362500Y-90450000D03*
X39637500Y-90450000D03*
X39637500Y-89500000D03*
X39637500Y-88550000D03*
%TD*%
D12*
%TO.C,R12*%
X87675000Y-16000000D03*
X89325000Y-16000000D03*
%TD*%
D33*
%TO.C,C22*%
X58750000Y-53425000D03*
X58750000Y-54975000D03*
%TD*%
D34*
%TO.C,U4*%
X12850000Y-55700000D03*
X12850000Y-58000000D03*
D35*
X19150000Y-58000000D03*
D34*
X12850000Y-60300000D03*
%TD*%
D17*
%TO.C,C29*%
X46250000Y-26575000D03*
X46250000Y-25025000D03*
%TD*%
D13*
%TO.C,R9*%
X76000000Y-24825000D03*
X76000000Y-23175000D03*
%TD*%
D11*
%TO.C,C47*%
X69725000Y-20500000D03*
X71275000Y-20500000D03*
%TD*%
D36*
%TO.C,D14*%
X86000000Y-67500000D03*
X90000000Y-67500000D03*
%TD*%
D37*
%TO.C,C13*%
X10300000Y-46000000D03*
X17700000Y-46000000D03*
%TD*%
D22*
%TO.C,U11*%
X72025000Y-58095000D03*
X72025000Y-59365000D03*
X72025000Y-60635000D03*
X72025000Y-61905000D03*
X76975000Y-61905000D03*
X76975000Y-60635000D03*
X76975000Y-59365000D03*
X76975000Y-58095000D03*
%TD*%
D16*
%TO.C,C14*%
X8500000Y-58950000D03*
X8500000Y-57050000D03*
%TD*%
D13*
%TO.C,R34*%
X26000000Y-5325000D03*
X26000000Y-3675000D03*
%TD*%
%TO.C,R7*%
X31500000Y-52325000D03*
X31500000Y-50675000D03*
%TD*%
D38*
%TO.C,Q1*%
X97062500Y-55550000D03*
X97062500Y-57450000D03*
X98937500Y-56500000D03*
%TD*%
D28*
%TO.C,U12*%
X87862500Y-58550000D03*
X87862500Y-59500000D03*
X87862500Y-60450000D03*
X90137500Y-60450000D03*
X90137500Y-58550000D03*
%TD*%
D12*
%TO.C,R3*%
X20475000Y-26900000D03*
X22125000Y-26900000D03*
%TD*%
D11*
%TO.C,C24*%
X68425000Y-43250000D03*
X69975000Y-43250000D03*
%TD*%
D24*
%TO.C,RN7*%
X89100000Y-53800000D03*
D25*
X89100000Y-54600000D03*
X89100000Y-55400000D03*
D24*
X89100000Y-56200000D03*
X90900000Y-56200000D03*
D25*
X90900000Y-55400000D03*
X90900000Y-54600000D03*
D24*
X90900000Y-53800000D03*
%TD*%
D13*
%TO.C,R23*%
X61500000Y-25325000D03*
X61500000Y-23675000D03*
%TD*%
D22*
%TO.C,U10*%
X79525000Y-48190000D03*
X79525000Y-49460000D03*
X79525000Y-50730000D03*
X79525000Y-52000000D03*
X79525000Y-53270000D03*
X79525000Y-54540000D03*
X79525000Y-55810000D03*
X84475000Y-55810000D03*
X84475000Y-54540000D03*
X84475000Y-53270000D03*
X84475000Y-52000000D03*
X84475000Y-50730000D03*
X84475000Y-49460000D03*
X84475000Y-48190000D03*
%TD*%
D17*
%TO.C,C16*%
X25500000Y-57775000D03*
X25500000Y-56225000D03*
%TD*%
D11*
%TO.C,C51*%
X62725000Y-58500000D03*
X64275000Y-58500000D03*
%TD*%
%TO.C,C37*%
X37225000Y-13500000D03*
X38775000Y-13500000D03*
%TD*%
D24*
%TO.C,RN6*%
X79100000Y-69800000D03*
D25*
X79100000Y-70600000D03*
X79100000Y-71400000D03*
D24*
X79100000Y-72200000D03*
X80900000Y-72200000D03*
D25*
X80900000Y-71400000D03*
X80900000Y-70600000D03*
D24*
X80900000Y-69800000D03*
%TD*%
D39*
%TO.C,F2*%
X5600000Y-62000000D03*
X8400000Y-62000000D03*
%TD*%
D40*
%TO.C,L1*%
X28925000Y-30000000D03*
X33075000Y-30000000D03*
%TD*%
D30*
%TO.C,C5*%
X36600000Y-31475000D03*
X36600000Y-28525000D03*
%TD*%
D41*
%TO.C,R4*%
X22125000Y-29000000D03*
X20475000Y-29000000D03*
%TD*%
D17*
%TO.C,C9*%
X23500000Y-50275000D03*
X23500000Y-48725000D03*
%TD*%
D28*
%TO.C,U1*%
X70862500Y-15050000D03*
X70862500Y-16000000D03*
X70862500Y-16950000D03*
X73137500Y-16950000D03*
X73137500Y-16000000D03*
X73137500Y-15050000D03*
%TD*%
D12*
%TO.C,R13*%
X87675000Y-19000000D03*
X89325000Y-19000000D03*
%TD*%
D13*
%TO.C,R35*%
X28000000Y-3325000D03*
X28000000Y-1675000D03*
%TD*%
%TO.C,R20*%
X41500000Y-15825000D03*
X41500000Y-14175000D03*
%TD*%
D11*
%TO.C,C4*%
X24225000Y-32800000D03*
X25775000Y-32800000D03*
%TD*%
D16*
%TO.C,C15*%
X23000000Y-57950000D03*
X23000000Y-56050000D03*
%TD*%
D24*
%TO.C,RN3*%
X49100000Y-70800000D03*
D25*
X49100000Y-71600000D03*
X49100000Y-72400000D03*
D24*
X49100000Y-73200000D03*
X50900000Y-73200000D03*
D25*
X50900000Y-72400000D03*
X50900000Y-71600000D03*
D24*
X50900000Y-70800000D03*
%TD*%
D28*
%TO.C,D16*%
X77362500Y-88550000D03*
X77362500Y-89500000D03*
X77362500Y-90450000D03*
X79637500Y-90450000D03*
X79637500Y-89500000D03*
X79637500Y-88550000D03*
%TD*%
D42*
%TO.C,Y1*%
X38950000Y-41500000D03*
X38950000Y-43700000D03*
X40650000Y-43700000D03*
X40650000Y-41500000D03*
%TD*%
D43*
%TO.C,RN10*%
X98300000Y-94900000D03*
D44*
X99100000Y-94900000D03*
X99900000Y-94900000D03*
D43*
X100700000Y-94900000D03*
X100700000Y-93100000D03*
D44*
X99900000Y-93100000D03*
X99100000Y-93100000D03*
D43*
X98300000Y-93100000D03*
%TD*%
D29*
%TO.C,D5*%
X92212500Y-16000000D03*
X93787500Y-16000000D03*
%TD*%
D33*
%TO.C,C21*%
X53750000Y-53425000D03*
X53750000Y-54975000D03*
%TD*%
D16*
%TO.C,C43*%
X60000000Y-66950000D03*
X60000000Y-65050000D03*
%TD*%
D22*
%TO.C,U9*%
X79525000Y-34190000D03*
X79525000Y-35460000D03*
X79525000Y-36730000D03*
X79525000Y-38000000D03*
X79525000Y-39270000D03*
X79525000Y-40540000D03*
X79525000Y-41810000D03*
X84475000Y-41810000D03*
X84475000Y-40540000D03*
X84475000Y-39270000D03*
X84475000Y-38000000D03*
X84475000Y-36730000D03*
X84475000Y-35460000D03*
X84475000Y-34190000D03*
%TD*%
D13*
%TO.C,R25*%
X63500000Y-25325000D03*
X63500000Y-23675000D03*
%TD*%
D29*
%TO.C,D7*%
X92212500Y-22000000D03*
X93787500Y-22000000D03*
%TD*%
D45*
%TO.C,U5*%
X44337500Y-31250000D03*
X44337500Y-31750000D03*
X44337500Y-32250000D03*
X44337500Y-32750000D03*
X44337500Y-33250000D03*
X44337500Y-33750000D03*
X44337500Y-34250000D03*
X44337500Y-34750000D03*
X44337500Y-35250000D03*
X44337500Y-35750000D03*
X44337500Y-36250000D03*
X44337500Y-36750000D03*
X44337500Y-37250000D03*
X44337500Y-37750000D03*
X44337500Y-38250000D03*
X44337500Y-38750000D03*
X44337500Y-39250000D03*
X44337500Y-39750000D03*
X44337500Y-40250000D03*
X44337500Y-40750000D03*
X44337500Y-41250000D03*
X44337500Y-41750000D03*
X44337500Y-42250000D03*
X44337500Y-42750000D03*
X44337500Y-43250000D03*
X44337500Y-43750000D03*
X44337500Y-44250000D03*
X44337500Y-44750000D03*
X44337500Y-45250000D03*
X44337500Y-45750000D03*
X44337500Y-46250000D03*
X44337500Y-46750000D03*
X44337500Y-47250000D03*
X44337500Y-47750000D03*
X44337500Y-48250000D03*
X44337500Y-48750000D03*
D46*
X46250000Y-50662500D03*
X46750000Y-50662500D03*
X47250000Y-50662500D03*
X47750000Y-50662500D03*
X48250000Y-50662500D03*
X48750000Y-50662500D03*
X49250000Y-50662500D03*
X49750000Y-50662500D03*
X50250000Y-50662500D03*
X50750000Y-50662500D03*
X51250000Y-50662500D03*
X51750000Y-50662500D03*
X52250000Y-50662500D03*
X52750000Y-50662500D03*
X53250000Y-50662500D03*
X53750000Y-50662500D03*
X54250000Y-50662500D03*
X54750000Y-50662500D03*
X55250000Y-50662500D03*
X55750000Y-50662500D03*
X56250000Y-50662500D03*
X56750000Y-50662500D03*
X57250000Y-50662500D03*
X57750000Y-50662500D03*
X58250000Y-50662500D03*
X58750000Y-50662500D03*
X59250000Y-50662500D03*
X59750000Y-50662500D03*
X60250000Y-50662500D03*
X60750000Y-50662500D03*
X61250000Y-50662500D03*
X61750000Y-50662500D03*
X62250000Y-50662500D03*
X62750000Y-50662500D03*
X63250000Y-50662500D03*
X63750000Y-50662500D03*
D45*
X65662500Y-48750000D03*
X65662500Y-48250000D03*
X65662500Y-47750000D03*
X65662500Y-47250000D03*
X65662500Y-46750000D03*
X65662500Y-46250000D03*
X65662500Y-45750000D03*
X65662500Y-45250000D03*
X65662500Y-44750000D03*
X65662500Y-44250000D03*
X65662500Y-43750000D03*
X65662500Y-43250000D03*
X65662500Y-42750000D03*
X65662500Y-42250000D03*
X65662500Y-41750000D03*
X65662500Y-41250000D03*
X65662500Y-40750000D03*
X65662500Y-40250000D03*
X65662500Y-39750000D03*
X65662500Y-39250000D03*
X65662500Y-38750000D03*
X65662500Y-38250000D03*
X65662500Y-37750000D03*
X65662500Y-37250000D03*
X65662500Y-36750000D03*
X65662500Y-36250000D03*
X65662500Y-35750000D03*
X65662500Y-35250000D03*
X65662500Y-34750000D03*
X65662500Y-34250000D03*
X65662500Y-33750000D03*
X65662500Y-33250000D03*
X65662500Y-32750000D03*
X65662500Y-32250000D03*
X65662500Y-31750000D03*
X65662500Y-31250000D03*
D46*
X63750000Y-29337500D03*
X63250000Y-29337500D03*
X62750000Y-29337500D03*
X62250000Y-29337500D03*
X61750000Y-29337500D03*
X61250000Y-29337500D03*
X60750000Y-29337500D03*
X60250000Y-29337500D03*
X59750000Y-29337500D03*
X59250000Y-29337500D03*
X58750000Y-29337500D03*
X58250000Y-29337500D03*
X57750000Y-29337500D03*
X57250000Y-29337500D03*
X56750000Y-29337500D03*
X56250000Y-29337500D03*
X55750000Y-29337500D03*
X55250000Y-29337500D03*
X54750000Y-29337500D03*
X54250000Y-29337500D03*
X53750000Y-29337500D03*
X53250000Y-29337500D03*
X52750000Y-29337500D03*
X52250000Y-29337500D03*
X51750000Y-29337500D03*
X51250000Y-29337500D03*
X50750000Y-29337500D03*
X50250000Y-29337500D03*
X49750000Y-29337500D03*
X49250000Y-29337500D03*
X48750000Y-29337500D03*
X48250000Y-29337500D03*
X47750000Y-29337500D03*
X47250000Y-29337500D03*
X46750000Y-29337500D03*
X46250000Y-29337500D03*
%TD*%
D13*
%TO.C,R22*%
X55500000Y-26825000D03*
X55500000Y-25175000D03*
%TD*%
D12*
%TO.C,R39*%
X84675000Y-94000000D03*
X86325000Y-94000000D03*
%TD*%
D27*
%TO.C,SW3*%
X87350000Y-31600000D03*
X93650000Y-31600000D03*
X87350000Y-35400000D03*
X93650000Y-35400000D03*
%TD*%
D47*
%TO.C,F1*%
X88000000Y-8137500D03*
X88000000Y-3862500D03*
%TD*%
D17*
%TO.C,C27*%
X57750000Y-26575000D03*
X57750000Y-25025000D03*
%TD*%
D12*
%TO.C,R11*%
X87675000Y-13000000D03*
X89325000Y-13000000D03*
%TD*%
D11*
%TO.C,C44*%
X81225000Y-31000000D03*
X82775000Y-31000000D03*
%TD*%
D24*
%TO.C,RN5*%
X27600000Y-69300000D03*
D25*
X27600000Y-70100000D03*
X27600000Y-70900000D03*
D24*
X27600000Y-71700000D03*
X29400000Y-71700000D03*
D25*
X29400000Y-70900000D03*
X29400000Y-70100000D03*
D24*
X29400000Y-69300000D03*
%TD*%
D48*
%TO.C,D2*%
X7600000Y-21000000D03*
X14400000Y-21000000D03*
%TD*%
D21*
%TO.C,U6*%
X34190000Y-68475000D03*
X35460000Y-68475000D03*
X36730000Y-68475000D03*
X38000000Y-68475000D03*
X39270000Y-68475000D03*
X40540000Y-68475000D03*
X41810000Y-68475000D03*
X41810000Y-63525000D03*
X40540000Y-63525000D03*
X39270000Y-63525000D03*
X38000000Y-63525000D03*
X36730000Y-63525000D03*
X35460000Y-63525000D03*
X34190000Y-63525000D03*
%TD*%
D17*
%TO.C,C28*%
X52750000Y-26575000D03*
X52750000Y-25025000D03*
%TD*%
D49*
%TO.C,D13*%
X106000000Y-55950000D03*
X106000000Y-53050000D03*
%TD*%
D33*
%TO.C,C23*%
X63750000Y-53425000D03*
X63750000Y-54975000D03*
%TD*%
D17*
%TO.C,C52*%
X96500000Y-89275000D03*
X96500000Y-87725000D03*
%TD*%
D50*
%TO.C,J1*%
X68750000Y-1270000D03*
X69550000Y-1270000D03*
D51*
X70750000Y-1270000D03*
X71750000Y-1270000D03*
X72250000Y-1270000D03*
X73250000Y-1270000D03*
D50*
X74450000Y-1270000D03*
X75250000Y-1270000D03*
X75250000Y-1270000D03*
X74450000Y-1270000D03*
D51*
X73750000Y-1270000D03*
X72750000Y-1270000D03*
X71250000Y-1270000D03*
X70250000Y-1270000D03*
D50*
X69550000Y-1270000D03*
X68750000Y-1270000D03*
%TD*%
D52*
%TO.C,D3*%
X5000000Y-33000000D03*
X5000000Y-29000000D03*
%TD*%
D20*
%TO.C,D11*%
X98550000Y-72137500D03*
X99500000Y-72137500D03*
X100450000Y-72137500D03*
X100450000Y-69862500D03*
X99500000Y-69862500D03*
X98550000Y-69862500D03*
%TD*%
D17*
%TO.C,C7*%
X36600000Y-34775000D03*
X36600000Y-33225000D03*
%TD*%
D14*
%TO.C,C3*%
X25775000Y-27300000D03*
X24225000Y-27300000D03*
%TD*%
D29*
%TO.C,FB1*%
X35712500Y-52500000D03*
X37287500Y-52500000D03*
%TD*%
D11*
%TO.C,C41*%
X51225000Y-60500000D03*
X52775000Y-60500000D03*
%TD*%
D53*
%TO.C,Q3*%
X98550000Y-63937500D03*
X100450000Y-63937500D03*
X99500000Y-62062500D03*
%TD*%
D12*
%TO.C,R38*%
X81175000Y-94000000D03*
X82825000Y-94000000D03*
%TD*%
D13*
%TO.C,R2*%
X80000000Y-6825000D03*
X80000000Y-5175000D03*
%TD*%
D14*
%TO.C,C39*%
X37175000Y-43800000D03*
X35625000Y-43800000D03*
%TD*%
D26*
%TO.C,R26*%
X93537500Y-60000000D03*
X96462500Y-60000000D03*
%TD*%
D11*
%TO.C,C40*%
X37225000Y-60500000D03*
X38775000Y-60500000D03*
%TD*%
D13*
%TO.C,R24*%
X50500000Y-25325000D03*
X50500000Y-23675000D03*
%TD*%
D29*
%TO.C,D8*%
X92212500Y-25000000D03*
X93787500Y-25000000D03*
%TD*%
D12*
%TO.C,R19*%
X37175000Y-15500000D03*
X38825000Y-15500000D03*
%TD*%
D54*
%TO.C,SW4*%
X96100000Y-26150000D03*
X96100000Y-19850000D03*
X99900000Y-26150000D03*
X99900000Y-19850000D03*
%TD*%
D49*
%TO.C,D1*%
X84000000Y-15450000D03*
X84000000Y-12550000D03*
%TD*%
D11*
%TO.C,C54*%
X10225000Y-94500000D03*
X11775000Y-94500000D03*
%TD*%
D13*
%TO.C,R37*%
X30000000Y-3325000D03*
X30000000Y-1675000D03*
%TD*%
D21*
%TO.C,U8*%
X10190000Y-70475000D03*
X11460000Y-70475000D03*
X12730000Y-70475000D03*
X14000000Y-70475000D03*
X15270000Y-70475000D03*
X16540000Y-70475000D03*
X17810000Y-70475000D03*
X17810000Y-65525000D03*
X16540000Y-65525000D03*
X15270000Y-65525000D03*
X14000000Y-65525000D03*
X12730000Y-65525000D03*
X11460000Y-65525000D03*
X10190000Y-65525000D03*
%TD*%
D14*
%TO.C,C18*%
X41575000Y-39250000D03*
X40025000Y-39250000D03*
%TD*%
D55*
%TO.C,D17*%
X29550000Y-42000000D03*
X32450000Y-42000000D03*
%TD*%
D13*
%TO.C,R31*%
X106500000Y-65825000D03*
X106500000Y-64175000D03*
%TD*%
D15*
%TO.C,C36*%
X71550000Y-32250000D03*
X73450000Y-32250000D03*
%TD*%
D37*
%TO.C,C1*%
X9800000Y-33500000D03*
X17200000Y-33500000D03*
%TD*%
D38*
%TO.C,Q2*%
X101562500Y-56550000D03*
X101562500Y-58450000D03*
X103437500Y-57500000D03*
%TD*%
D43*
%TO.C,RN9*%
X98300000Y-89900000D03*
D44*
X99100000Y-89900000D03*
X99900000Y-89900000D03*
D43*
X100700000Y-89900000D03*
X100700000Y-88100000D03*
D44*
X99900000Y-88100000D03*
X99100000Y-88100000D03*
D43*
X98300000Y-88100000D03*
%TD*%
D12*
%TO.C,R32*%
X99175000Y-66500000D03*
X100825000Y-66500000D03*
%TD*%
D27*
%TO.C,SW1*%
X34850000Y-6100000D03*
X41150000Y-6100000D03*
X34850000Y-9900000D03*
X41150000Y-9900000D03*
%TD*%
D12*
%TO.C,R8*%
X47175000Y-13500000D03*
X48825000Y-13500000D03*
%TD*%
D11*
%TO.C,C50*%
X84225000Y-64000000D03*
X85775000Y-64000000D03*
%TD*%
D17*
%TO.C,C46*%
X81500000Y-60775000D03*
X81500000Y-59225000D03*
%TD*%
D24*
%TO.C,RN4*%
X23600000Y-69300000D03*
D25*
X23600000Y-70100000D03*
X23600000Y-70900000D03*
D24*
X23600000Y-71700000D03*
X25400000Y-71700000D03*
D25*
X25400000Y-70900000D03*
X25400000Y-70100000D03*
D24*
X25400000Y-69300000D03*
%TD*%
%TO.C,RN1*%
X34100000Y-70800000D03*
D25*
X34100000Y-71600000D03*
X34100000Y-72400000D03*
D24*
X34100000Y-73200000D03*
X35900000Y-73200000D03*
D25*
X35900000Y-72400000D03*
X35900000Y-71600000D03*
D24*
X35900000Y-70800000D03*
%TD*%
D53*
%TO.C,Q4*%
X102550000Y-63937500D03*
X104450000Y-63937500D03*
X103500000Y-62062500D03*
%TD*%
D13*
%TO.C,R17*%
X43000000Y-56825000D03*
X43000000Y-55175000D03*
%TD*%
D47*
%TO.C,F4*%
X3000000Y-26137500D03*
X3000000Y-21862500D03*
%TD*%
D12*
%TO.C,R30*%
X92675000Y-67500000D03*
X94325000Y-67500000D03*
%TD*%
D11*
%TO.C,C45*%
X81225000Y-45000000D03*
X82775000Y-45000000D03*
%TD*%
D28*
%TO.C,D12*%
X95862500Y-45050000D03*
X95862500Y-46000000D03*
X95862500Y-46950000D03*
X98137500Y-46950000D03*
X98137500Y-46000000D03*
X98137500Y-45050000D03*
%TD*%
D15*
%TO.C,C35*%
X66050000Y-55500000D03*
X67950000Y-55500000D03*
%TD*%
D24*
%TO.C,RN2*%
X40100000Y-70800000D03*
D25*
X40100000Y-71600000D03*
X40100000Y-72400000D03*
D24*
X40100000Y-73200000D03*
X41900000Y-73200000D03*
D25*
X41900000Y-72400000D03*
X41900000Y-71600000D03*
D24*
X41900000Y-70800000D03*
%TD*%
D56*
%TO.C,U16*%
X88637500Y-88575000D03*
X88637500Y-89225000D03*
X88637500Y-89875000D03*
X88637500Y-90525000D03*
X88637500Y-91175000D03*
X88637500Y-91825000D03*
X88637500Y-92475000D03*
X88637500Y-93125000D03*
X88637500Y-93775000D03*
X88637500Y-94425000D03*
X94362500Y-94425000D03*
X94362500Y-93775000D03*
X94362500Y-93125000D03*
X94362500Y-92475000D03*
X94362500Y-91825000D03*
X94362500Y-91175000D03*
X94362500Y-90525000D03*
X94362500Y-89875000D03*
X94362500Y-89225000D03*
X94362500Y-88575000D03*
%TD*%
D14*
%TO.C,C19*%
X41575000Y-45750000D03*
X40025000Y-45750000D03*
%TD*%
D57*
%TO.C,U17*%
X77662500Y-93350000D03*
X77662500Y-94000000D03*
X77662500Y-94650000D03*
X79337500Y-94650000D03*
X79337500Y-94000000D03*
X79337500Y-93350000D03*
%TD*%
M02*
