M48
; DRILL file KiCad 10.0.6 date 2026-10-05T18:46:50
; FORMAT={-:-/ absolute / metric / decimal}
; #@! TF.CreationDate,2026-10-05T18:46:50+02:00
; #@! TF.GenerationSoftware,Kicad,Pcbnew,10.0.6
; #@! TF.FileFunction,Plated,1,4,PTH
FMAT,2
METRIC
; #@! TA.AperFunction,Plated,PTH,ViaDrill
T1C0.250
; #@! TA.AperFunction,Plated,PTH,ViaDrill
T2C0.300
; #@! TA.AperFunction,Plated,PTH,ViaDrill
T3C0.400
; #@! TA.AperFunction,Plated,PTH,ComponentDrill
T4C0.500
; #@! TA.AperFunction,Plated,PTH,ComponentDrill
T5C0.600
; #@! TA.AperFunction,Plated,PTH,ComponentDrill
T6C0.650
; #@! TA.AperFunction,Plated,PTH,ComponentDrill
T7C1.000
; #@! TA.AperFunction,Plated,PTH,ComponentDrill
T8C1.200
; #@! TA.AperFunction,Plated,PTH,ComponentDrill
T9C2.400
; #@! TA.AperFunction,Plated,PTH,ComponentDrill
T10C3.200
%
G90
G05
T1
X38.525Y-47.5
X39.525Y-60.5
X42.56Y-68.475
X46.075Y-38.75
X46.075Y-46.25
X46.75Y-48.925
X53.25Y-31.075
X53.25Y-48.925
X58.25Y-31.075
X58.25Y-48.925
X63.925Y-31.75
X63.925Y-38.25
X63.925Y-43.75
X71.25Y-2.75
X71.612Y-16.0
X72.25Y-2.75
X74.2Y-32.25
T2
X1.95Y-9.95
X1.95Y-13.95
X1.95Y-17.95
X1.95Y-21.95
X1.95Y-25.95
X1.95Y-29.95
X1.95Y-33.95
X1.95Y-37.95
X1.95Y-41.95
X1.95Y-45.95
X1.95Y-57.95
X1.95Y-61.95
X1.95Y-65.95
X1.95Y-77.95
X1.95Y-81.95
X3.95Y-7.95
X3.95Y-11.95
X3.95Y-15.95
X3.95Y-19.95
X3.95Y-23.95
X3.95Y-35.95
X3.95Y-39.95
X3.95Y-43.95
X3.95Y-51.95
X3.95Y-55.95
X3.95Y-59.95
X3.95Y-63.95
X3.95Y-75.95
X3.95Y-79.95
X5.95Y-9.95
X5.95Y-13.95
X5.95Y-17.95
X5.95Y-25.95
X5.95Y-37.95
X5.95Y-41.95
X5.95Y-45.95
X5.95Y-49.95
X5.95Y-53.95
X5.95Y-61.95
X5.95Y-65.95
X7.95Y-39.95
X7.95Y-51.95
X7.95Y-55.95
X7.95Y-63.95
X7.95Y-67.95
X7.95Y-71.95
X9.95Y-25.95
X9.95Y-37.95
X9.95Y-53.95
X9.95Y-61.95
X9.95Y-73.95
X11.95Y-39.95
X11.95Y-51.95
X12.592Y-68.226
X13.877Y-66.98
X13.95Y-25.95
X13.95Y-37.95
X13.95Y-61.95
X14.261Y-68.901
X15.897Y-66.754
X15.95Y-23.95
X15.95Y-39.95
X15.95Y-51.95
X17.868Y-38.949
X17.95Y-17.95
X17.95Y-25.95
X17.95Y-37.95
X19.146Y-69.68
X19.444Y-65.788
X19.95Y-3.95
X19.95Y-7.95
X19.95Y-11.95
X19.95Y-15.95
X19.95Y-23.95
X19.95Y-39.95
X19.95Y-51.95
X19.95Y-63.95
X19.95Y-71.95
X20.054Y-66.412
X21.172Y-69.359
X21.447Y-53.383
X21.95Y-1.95
X21.95Y-5.95
X21.95Y-9.95
X21.95Y-13.95
X21.95Y-17.95
X21.95Y-25.95
X21.95Y-29.95
X21.95Y-33.95
X21.95Y-41.95
X21.95Y-45.95
X21.95Y-49.95
X21.95Y-61.95
X21.95Y-73.95
X22.72Y-67.314
X22.72Y-71.7
X23.95Y-3.95
X23.95Y-7.95
X23.95Y-11.95
X23.95Y-15.95
X23.95Y-19.95
X23.95Y-23.95
X23.95Y-27.95
X23.95Y-31.95
X23.95Y-43.95
X23.95Y-51.95
X23.95Y-59.95
X23.95Y-63.95
X24.951Y-25.774
X25.543Y-28.267
X25.95Y-1.95
X25.95Y-5.95
X25.95Y-9.95
X25.95Y-13.95
X25.95Y-17.95
X25.95Y-21.95
X25.95Y-33.95
X25.95Y-41.95
X27.95Y-3.95
X27.95Y-7.95
X27.95Y-11.95
X27.95Y-15.95
X27.95Y-19.95
X27.95Y-23.95
X27.95Y-43.95
X27.95Y-59.95
X27.95Y-63.95
X28.351Y-73.2
X29.153Y-67.951
X29.914Y-47.377
X29.95Y-1.95
X29.95Y-5.95
X29.95Y-9.95
X29.95Y-13.95
X29.95Y-17.95
X29.95Y-21.95
X29.95Y-25.95
X29.95Y-41.95
X29.95Y-45.95
X31.496Y-72.4
X31.533Y-71.492
X31.792Y-68.236
X31.95Y-59.95
X31.95Y-63.95
X31.951Y-74.428
X32.433Y-50.609
X32.66Y-68.623
X32.725Y-71.6
X33.95Y-1.95
X33.95Y-13.95
X33.95Y-17.95
X33.95Y-21.95
X33.95Y-25.95
X33.95Y-29.95
X33.95Y-45.95
X34.273Y-67.034
X35.95Y-11.95
X35.95Y-15.95
X35.95Y-19.95
X35.95Y-23.95
X35.95Y-27.95
X35.95Y-31.95
X35.95Y-55.95
X36.122Y-48.445
X36.32Y-13.612
X36.905Y-59.13
X37.033Y-41.229
X37.033Y-43.77
X37.033Y-66.472
X37.303Y-71.014
X37.95Y-1.95
X37.95Y-17.95
X37.95Y-21.95
X37.95Y-25.95
X37.95Y-29.95
X37.95Y-33.95
X37.95Y-37.95
X38.648Y-62.064
X38.79Y-71.746
X38.791Y-64.97
X38.839Y-43.25
X39.421Y-61.511
X39.429Y-57.559
X39.675Y-65.697
X39.928Y-69.944
X39.95Y-11.95
X39.95Y-15.95
X39.95Y-19.95
X39.95Y-27.95
X39.95Y-31.95
X39.95Y-35.95
X39.95Y-51.95
X39.95Y-55.95
X40.771Y-65.371
X40.952Y-73.2
X41.95Y-1.95
X41.95Y-13.95
X41.95Y-17.95
X41.95Y-29.95
X42.194Y-35.496
X42.745Y-36.25
X42.782Y-70.8
X43.062Y-37.135
X43.95Y-23.95
X43.95Y-27.95
X43.95Y-51.95
X43.95Y-55.95
X43.95Y-63.95
X45.534Y-36.75
X45.534Y-53.991
X45.95Y-1.95
X45.95Y-13.95
X45.95Y-17.95
X45.95Y-21.95
X45.95Y-65.95
X46.283Y-69.898
X46.615Y-62.616
X47.166Y-67.115
X47.95Y-15.95
X47.95Y-19.95
X47.95Y-23.95
X47.95Y-27.95
X47.95Y-31.95
X47.95Y-35.95
X47.95Y-43.95
X47.95Y-55.95
X48.129Y-59.298
X48.219Y-71.828
X48.25Y-51.862
X48.619Y-58.695
X48.619Y-61.69
X49.17Y-51.853
X49.17Y-64.983
X49.25Y-12.036
X49.25Y-28.127
X49.95Y-1.95
X49.95Y-33.95
X49.95Y-45.95
X49.95Y-53.95
X50.57Y-65.879
X50.873Y-40.25
X50.873Y-54.2
X51.219Y-69.837
X51.773Y-41.499
X51.95Y-31.95
X51.95Y-35.95
X51.95Y-43.95
X51.95Y-47.95
X52.132Y-12.632
X52.132Y-28.133
X52.44Y-57.756
X52.991Y-59.298
X53.369Y-56.92
X53.746Y-62.153
X53.803Y-72.106
X53.95Y-1.95
X53.95Y-5.95
X53.95Y-9.95
X53.95Y-13.95
X53.95Y-17.95
X53.95Y-21.95
X53.95Y-33.95
X53.95Y-41.95
X53.95Y-45.95
X53.95Y-73.95
X54.095Y-49.197
X54.27Y-69.915
X54.538Y-52.46
X55.0Y-37.75
X55.0Y-48.416
X55.34Y-64.913
X55.901Y-20.016
X55.901Y-49.469
X55.939Y-51.858
X55.95Y-7.95
X55.95Y-15.95
X56.642Y-63.526
X57.107Y-49.441
X57.502Y-58.695
X57.684Y-13.53
X57.95Y-1.95
X57.95Y-5.95
X57.95Y-9.95
X57.95Y-65.95
X57.95Y-69.95
X59.218Y-30.529
X59.218Y-36.462
X59.382Y-52.583
X59.429Y-49.446
X59.934Y-51.865
X59.95Y-7.95
X59.95Y-15.95
X59.95Y-27.95
X59.95Y-43.95
X59.95Y-59.95
X59.95Y-71.95
X59.95Y-75.95
X60.22Y-49.457
X60.296Y-58.143
X60.485Y-30.554
X60.485Y-39.154
X61.009Y-49.461
X61.524Y-30.573
X61.524Y-35.162
X61.75Y-51.865
X61.75Y-62.269
X61.95Y-1.95
X61.95Y-5.95
X61.95Y-9.95
X61.95Y-17.95
X61.95Y-21.95
X61.95Y-25.95
X61.95Y-37.95
X61.95Y-45.95
X61.95Y-65.95
X61.95Y-69.95
X62.439Y-39.995
X62.65Y-31.039
X63.048Y-55.723
X63.187Y-40.551
X63.25Y-49.442
X63.699Y-39.731
X63.95Y-7.95
X63.95Y-15.95
X63.95Y-59.95
X63.95Y-63.95
X63.95Y-71.95
X63.95Y-75.95
X64.219Y-41.093
X65.418Y-51.471
X65.95Y-1.95
X65.95Y-5.95
X65.95Y-9.95
X65.95Y-17.95
X65.95Y-21.95
X65.95Y-25.95
X65.95Y-61.95
X65.95Y-65.95
X65.95Y-69.95
X66.428Y-53.642
X66.872Y-15.301
X66.872Y-33.252
X67.135Y-34.015
X67.323Y-46.802
X67.453Y-36.373
X67.523Y-17.737
X67.95Y-59.95
X67.95Y-63.95
X67.95Y-71.95
X67.975Y-46.25
X68.538Y-40.63
X68.551Y-41.75
X68.939Y-28.813
X69.55Y-1.6
X69.746Y-16.202
X69.95Y-9.95
X69.95Y-33.95
X69.95Y-49.95
X69.95Y-61.95
X69.95Y-65.95
X69.95Y-69.95
X70.144Y-2.463
X70.144Y-7.417
X70.573Y-35.162
X70.573Y-48.416
X71.95Y-43.95
X71.95Y-47.95
X71.95Y-55.95
X71.95Y-59.95
X71.95Y-63.95
X71.95Y-71.95
X72.604Y-20.988
X72.75Y-3.45
X72.823Y-17.928
X72.969Y-41.316
X73.95Y-21.95
X73.95Y-41.95
X73.95Y-45.95
X73.95Y-61.95
X73.95Y-65.95
X73.95Y-69.95
X74.45Y-1.6
X75.365Y-18.48
X75.365Y-22.411
X75.365Y-34.61
X75.936Y-28.261
X75.95Y-19.95
X75.95Y-39.95
X75.95Y-43.95
X75.95Y-47.95
X75.95Y-55.95
X75.95Y-63.95
X75.95Y-71.95
X76.357Y-34.19
X77.518Y-38.0
X77.518Y-50.465
X77.883Y-3.969
X77.883Y-6.793
X77.95Y-1.95
X77.95Y-9.95
X77.95Y-21.95
X77.95Y-57.95
X77.95Y-65.95
X77.95Y-69.95
X79.95Y-19.95
X79.95Y-23.95
X79.95Y-27.95
X79.95Y-31.95
X79.95Y-43.95
X79.95Y-59.95
X79.963Y-69.9
X80.0Y-71.322
X80.963Y-48.19
X80.965Y-35.46
X81.247Y-39.154
X81.589Y-43.171
X81.589Y-52.345
X81.95Y-1.95
X81.95Y-5.95
X81.95Y-9.95
X81.95Y-57.95
X81.95Y-61.95
X82.0Y-39.887
X82.389Y-53.288
X82.552Y-22.382
X82.552Y-28.813
X83.95Y-19.95
X83.95Y-23.95
X83.95Y-27.95
X83.95Y-31.95
X83.95Y-43.95
X83.95Y-59.95
X83.95Y-71.95
X84.044Y-68.239
X84.715Y-69.247
X85.899Y-13.53
X85.95Y-1.95
X85.95Y-5.95
X85.95Y-9.95
X85.95Y-45.95
X85.95Y-57.95
X85.95Y-65.95
X87.381Y-52.899
X87.95Y-27.95
X87.95Y-31.95
X87.95Y-35.95
X87.95Y-43.95
X87.95Y-47.95
X87.95Y-63.95
X87.95Y-67.95
X89.95Y-1.95
X89.95Y-9.95
X89.95Y-33.95
X89.95Y-61.95
X89.95Y-65.95
X89.95Y-69.95
X90.0Y-56.287
X91.95Y-3.95
X91.95Y-7.95
X91.95Y-27.95
X91.95Y-59.95
X91.95Y-63.95
X91.95Y-67.95
X91.95Y-71.95
X93.95Y-1.95
X93.95Y-9.95
X93.95Y-57.95
X93.95Y-61.95
X93.95Y-65.95
X93.95Y-69.95
X93.95Y-73.95
X94.0Y-53.9
X94.673Y-41.81
X95.95Y-11.95
X95.95Y-19.95
X95.95Y-23.95
X95.95Y-27.95
X95.95Y-55.95
X95.95Y-59.95
X95.95Y-63.95
X95.95Y-67.95
X95.95Y-71.95
X97.395Y-29.365
X97.948Y-30.222
X97.95Y-1.95
X97.95Y-53.95
X97.95Y-57.95
X97.95Y-61.95
X97.95Y-65.95
X97.95Y-69.95
X97.95Y-73.95
X99.95Y-3.95
X99.95Y-7.95
X99.95Y-11.95
X99.95Y-19.95
X99.95Y-23.95
X99.95Y-27.95
X99.95Y-51.95
X99.95Y-55.95
X99.95Y-59.95
X99.95Y-63.95
X99.95Y-67.95
X99.95Y-71.95
X101.95Y-1.95
X101.95Y-5.95
X101.95Y-9.95
X101.95Y-13.95
X101.95Y-21.95
X101.95Y-25.95
X101.95Y-29.95
X101.95Y-49.95
X101.95Y-53.95
X101.95Y-57.95
X101.95Y-61.95
X101.95Y-65.95
X101.95Y-69.95
X101.95Y-73.95
X103.95Y-7.95
X103.95Y-11.95
X103.95Y-23.95
X103.95Y-27.95
X103.95Y-51.95
X103.95Y-55.95
X103.95Y-59.95
X103.95Y-63.95
X103.95Y-75.95
X103.95Y-79.95
X105.95Y-9.95
X105.95Y-25.95
X105.95Y-29.95
X105.95Y-49.95
X105.95Y-53.95
X105.95Y-57.95
X105.95Y-61.95
X105.95Y-65.95
X105.95Y-77.95
X105.95Y-81.95
X107.95Y-7.95
X107.95Y-11.95
X107.95Y-15.95
X107.95Y-19.95
X107.95Y-23.95
X107.95Y-27.95
X107.95Y-51.95
X107.95Y-55.95
X107.95Y-59.95
X107.95Y-63.95
X107.95Y-75.95
X107.95Y-79.95
T3
X3.16Y-34.216
X24.669Y-38.0
X27.451Y-27.116
X27.939Y-52.694
X27.939Y-56.66
X28.809Y-46.78
X29.04Y-54.035
X32.51Y-4.456
X32.51Y-48.572
X74.021Y-8.274
X82.73Y-71.632
X82.926Y-35.46
X88.285Y-24.068
T4
X1.1Y-3.5
X1.1Y-71.0
X1.803Y-1.803
X1.803Y-5.197
X1.803Y-69.303
X1.803Y-72.697
X3.5Y-1.1
X3.5Y-5.9
X3.5Y-68.6
X3.5Y-73.4
X5.197Y-1.803
X5.197Y-5.197
X5.197Y-69.303
X5.197Y-72.697
X5.9Y-3.5
X5.9Y-71.0
X104.1Y-3.5
X104.1Y-71.0
X104.803Y-1.803
X104.803Y-5.197
X104.803Y-69.303
X104.803Y-72.697
X106.5Y-1.1
X106.5Y-5.9
X106.5Y-68.6
X106.5Y-73.4
X108.197Y-1.803
X108.197Y-5.197
X108.197Y-69.303
X108.197Y-72.697
X108.9Y-3.5
X108.9Y-71.0
T6
X95.365Y-3.46
X95.365Y-4.73
X95.365Y-6.0
X95.365Y-7.27
X95.365Y-8.54
X96.635Y-3.46
X96.635Y-4.73
X96.635Y-6.0
X96.635Y-7.27
X96.635Y-8.54
T7
X1.815Y-48.19
X1.815Y-50.73
X1.815Y-53.27
X1.815Y-55.81
X10.68Y-78.735
X10.68Y-81.275
X13.22Y-78.735
X13.22Y-81.275
X15.76Y-78.735
X15.76Y-81.275
X18.3Y-78.735
X18.3Y-81.275
X20.84Y-78.735
X20.84Y-81.275
X23.38Y-78.735
X23.38Y-81.275
X25.92Y-78.735
X25.92Y-81.275
X28.46Y-78.735
X28.46Y-81.275
X31.0Y-78.735
X31.0Y-81.275
X33.54Y-78.735
X33.54Y-81.275
X36.08Y-78.735
X36.08Y-81.275
X38.62Y-78.735
X38.62Y-81.275
X41.16Y-78.735
X41.16Y-81.275
X43.7Y-78.735
X43.7Y-81.275
X46.24Y-78.735
X46.24Y-81.275
X48.78Y-78.735
X48.78Y-81.275
X51.32Y-78.735
X51.32Y-81.275
X70.03Y-78.735
X70.03Y-81.275
X72.57Y-78.735
X72.57Y-81.275
X75.11Y-78.735
X75.11Y-81.275
X77.65Y-78.735
X77.65Y-81.275
X80.19Y-78.735
X80.19Y-81.275
X82.73Y-78.735
X82.73Y-81.275
X85.27Y-78.735
X85.27Y-81.275
X87.81Y-78.735
X87.81Y-81.275
X90.35Y-78.735
X90.35Y-81.275
X92.89Y-78.735
X92.89Y-81.275
X95.43Y-78.735
X95.43Y-81.275
X97.97Y-78.735
X97.97Y-81.275
X105.0Y-15.46
X105.0Y-18.0
X105.0Y-20.54
T8
X95.875Y-42.54
X97.455Y-37.46
X100.955Y-34.92
X100.955Y-42.54
X104.455Y-37.46
X106.035Y-42.54
T9
X94.605Y-33.65
X107.305Y-33.65
T10
X3.5Y-3.5
X3.5Y-71.0
X106.5Y-3.5
X106.5Y-71.0
T5
X67.68Y-1.635G85X67.68Y-2.735
G05
X67.68Y-6.065G85X67.68Y-6.665
G05
X76.32Y-1.635G85X76.32Y-2.735
G05
X76.32Y-6.065G85X76.32Y-6.665
G05
T7
X9.3Y-10.045G85X9.3Y-12.045
G05
X15.0Y-8.045G85X13.0Y-8.045
G05
X15.0Y-14.045G85X13.0Y-14.045
G05
M30
