M48
; DRILL file KiCad 10.0.6 date 2026-10-07T06:17:55
; FORMAT={-:-/ absolute / metric / decimal}
; #@! TF.CreationDate,2026-10-07T06:17:55+02:00
; #@! TF.GenerationSoftware,Kicad,Pcbnew,10.0.6
; #@! TF.FileFunction,Plated,1,4,PTH
FMAT,2
METRIC
; #@! TA.AperFunction,Plated,PTH,ViaDrill
T1C0.230
; #@! TA.AperFunction,Plated,PTH,ViaDrill
T2C0.250
; #@! TA.AperFunction,Plated,PTH,ViaDrill
T3C0.300
; #@! TA.AperFunction,Plated,PTH,ViaDrill
T4C0.350
; #@! TA.AperFunction,Plated,PTH,ViaDrill
T5C0.400
; #@! TA.AperFunction,Plated,PTH,ComponentDrill
T6C0.500
; #@! TA.AperFunction,Plated,PTH,ComponentDrill
T7C0.600
; #@! TA.AperFunction,Plated,PTH,ComponentDrill
T8C0.650
; #@! TA.AperFunction,Plated,PTH,ComponentDrill
T9C1.000
; #@! TA.AperFunction,Plated,PTH,ComponentDrill
T10C3.200
%
G90
G05
T1
X18.56Y-70.475
X23.2Y-27.3
X30.0Y-46.475
X38.2Y-47.4
X39.775Y-13.5
X42.503Y-68.188
X44.075Y-59.0
X46.075Y-38.75
X46.075Y-46.25
X46.75Y-48.925
X53.25Y-31.075
X53.25Y-48.925
X58.25Y-31.075
X58.25Y-48.925
X58.845Y-65.528
X63.925Y-31.75
X63.925Y-38.25
X63.925Y-43.75
X70.725Y-31.25
X71.25Y-2.75
X72.25Y-2.75
X91.75Y-67.5
X99.5Y-73.2
T2
X69.9Y-2.4
X74.1Y-2.4
T3
X1.95Y-9.95
X1.95Y-13.95
X1.95Y-17.95
X1.95Y-21.95
X1.95Y-25.95
X1.95Y-29.95
X1.95Y-33.95
X1.95Y-37.95
X1.95Y-41.95
X1.95Y-45.95
X1.95Y-57.95
X1.95Y-61.95
X1.95Y-65.95
X1.95Y-77.95
X1.95Y-81.95
X3.95Y-7.95
X3.95Y-11.95
X3.95Y-15.95
X3.95Y-19.95
X3.95Y-23.95
X3.95Y-59.95
X3.95Y-63.95
X3.95Y-75.95
X3.95Y-79.95
X5.95Y-9.95
X5.95Y-13.95
X5.95Y-17.95
X5.95Y-25.95
X5.95Y-37.95
X5.95Y-41.95
X5.95Y-45.95
X5.95Y-49.95
X5.95Y-65.95
X7.95Y-27.95
X7.95Y-39.95
X7.95Y-63.95
X7.95Y-67.95
X7.95Y-71.95
X10.146Y-57.558
X11.95Y-27.95
X11.95Y-39.95
X13.47Y-71.779
X13.95Y-25.95
X13.95Y-61.95
X14.397Y-72.091
X15.472Y-38.949
X15.472Y-62.616
X15.95Y-23.95
X15.95Y-27.95
X16.159Y-57.041
X16.214Y-72.346
X17.919Y-60.914
X17.95Y-17.95
X17.95Y-21.95
X17.95Y-25.95
X17.966Y-74.963
X18.58Y-55.405
X18.58Y-65.317
X19.95Y-3.95
X19.95Y-7.95
X19.95Y-11.95
X19.95Y-15.95
X19.95Y-19.95
X19.95Y-23.95
X19.95Y-31.95
X19.95Y-35.95
X19.95Y-39.95
X19.95Y-51.95
X20.139Y-75.107
X20.211Y-72.346
X20.264Y-62.076
X20.264Y-69.079
X20.986Y-67.828
X21.406Y-68.527
X21.95Y-1.95
X21.95Y-5.95
X21.95Y-9.95
X21.95Y-13.95
X21.95Y-17.95
X21.95Y-21.95
X22.04Y-36.169
X22.04Y-71.506
X23.036Y-65.409
X23.95Y-3.95
X23.95Y-7.95
X23.95Y-11.95
X23.95Y-15.95
X23.95Y-19.95
X23.95Y-23.95
X23.95Y-39.95
X23.95Y-59.95
X24.229Y-74.426
X24.435Y-72.614
X25.092Y-66.91
X25.855Y-63.584
X25.855Y-72.412
X25.95Y-1.95
X25.95Y-5.95
X25.95Y-9.95
X25.95Y-13.95
X25.95Y-17.95
X25.95Y-21.95
X25.95Y-37.95
X27.337Y-33.746
X27.95Y-3.95
X27.95Y-7.95
X27.95Y-39.95
X27.95Y-43.95
X27.95Y-59.95
X28.101Y-48.963
X28.585Y-68.677
X29.95Y-1.95
X29.956Y-66.921
X30.032Y-47.408
X30.032Y-50.145
X30.255Y-70.8
X30.584Y-64.476
X31.95Y-3.95
X31.95Y-7.95
X31.95Y-23.95
X31.95Y-39.95
X31.95Y-43.95
X31.95Y-59.95
X31.95Y-63.95
X32.531Y-71.794
X32.8Y-68.092
X32.836Y-75.132
X33.061Y-72.604
X33.95Y-1.95
X33.95Y-25.95
X33.95Y-37.95
X33.95Y-45.95
X34.215Y-62.076
X34.369Y-74.282
X35.061Y-58.512
X35.95Y-3.95
X35.95Y-19.95
X35.95Y-39.95
X35.968Y-48.596
X36.08Y-75.252
X36.161Y-60.743
X36.181Y-64.806
X37.243Y-77.369
X37.601Y-36.807
X37.95Y-1.95
X37.95Y-21.95
X37.95Y-25.95
X37.95Y-29.95
X38.12Y-37.781
X38.257Y-70.651
X38.384Y-71.545
X38.557Y-57.883
X38.557Y-66.46
X38.776Y-54.0
X39.005Y-72.096
X39.238Y-66.928
X39.461Y-36.255
X39.95Y-3.95
X39.95Y-19.95
X39.964Y-15.282
X40.5Y-55.75
X40.671Y-66.604
X40.737Y-76.319
X40.957Y-72.639
X41.026Y-70.537
X41.351Y-31.28
X41.825Y-35.737
X41.95Y-1.95
X41.95Y-49.95
X41.95Y-53.95
X41.991Y-27.383
X42.604Y-63.203
X42.652Y-32.25
X43.157Y-72.639
X43.25Y-43.75
X43.434Y-62.476
X43.474Y-6.1
X43.474Y-12.73
X43.95Y-3.95
X44.221Y-50.783
X44.221Y-62.131
X44.323Y-30.63
X44.612Y-57.588
X44.742Y-16.506
X44.922Y-50.079
X45.124Y-55.516
X45.544Y-43.25
X45.647Y-30.298
X45.904Y-39.57
X45.936Y-48.558
X45.95Y-1.95
X45.95Y-13.95
X45.95Y-17.95
X45.95Y-21.95
X45.95Y-41.95
X46.213Y-53.983
X47.025Y-32.244
X47.175Y-37.165
X47.175Y-14.456
X47.175Y-28.129
X47.198Y-30.549
X47.247Y-62.292
X47.309Y-69.677
X47.435Y-68.254
X47.932Y-47.446
X47.95Y-3.95
X47.95Y-11.95
X47.95Y-15.95
X47.95Y-35.95
X48.195Y-52.33
X48.195Y-58.562
X48.219Y-71.552
X48.25Y-72.5
X48.302Y-30.558
X48.502Y-23.029
X48.75Y-54.75
X48.75Y-49.453
X48.75Y-66.51
X49.567Y-52.226
X49.567Y-54.971
X49.567Y-61.568
X49.649Y-24.561
X49.719Y-30.793
X49.765Y-27.383
X49.95Y-1.95
X49.95Y-17.95
X49.95Y-21.95
X49.95Y-33.95
X49.95Y-45.95
X50.408Y-57.883
X50.45Y-31.849
X50.52Y-59.705
X50.65Y-12.306
X51.545Y-67.062
X51.784Y-28.129
X51.846Y-7.995
X51.846Y-24.011
X51.95Y-3.95
X51.95Y-31.95
X51.95Y-35.95
X51.95Y-55.95
X52.5Y-30.5
X52.947Y-10.535
X53.128Y-65.95
X53.95Y-1.95
X53.95Y-13.95
X53.95Y-21.95
X53.95Y-45.95
X54.276Y-80.697
X54.282Y-30.957
X54.573Y-48.907
X54.63Y-61.954
X54.735Y-28.104
X54.839Y-13.542
X54.839Y-17.649
X55.024Y-82.77
X55.216Y-65.689
X55.397Y-23.394
X55.783Y-51.854
X55.887Y-27.73
X55.95Y-3.95
X55.95Y-35.95
X55.95Y-55.95
X55.95Y-71.95
X55.959Y-49.462
X56.148Y-9.858
X56.245Y-31.542
X56.264Y-40.354
X56.357Y-30.538
X56.454Y-5.84
X56.563Y-63.525
X56.616Y-51.998
X56.702Y-9.265
X56.702Y-22.841
X56.791Y-69.329
X57.253Y-49.471
X57.253Y-67.614
X57.254Y-16.952
X57.931Y-58.562
X57.95Y-1.95
X57.977Y-16.139
X58.002Y-37.75
X58.002Y-48.036
X58.5Y-28.0
X58.595Y-10.535
X58.595Y-25.8
X58.701Y-38.472
X59.0Y-30.75
X59.179Y-49.197
X59.271Y-44.198
X59.555Y-52.352
X59.778Y-53.114
X59.95Y-3.95
X59.95Y-19.95
X59.95Y-39.95
X59.95Y-55.95
X60.25Y-60.25
X60.25Y-28.101
X60.25Y-39.054
X60.458Y-62.743
X60.704Y-45.735
X60.75Y-49.466
X61.048Y-52.014
X61.048Y-65.942
X61.657Y-60.25
X61.802Y-51.857
X61.95Y-1.95
X61.95Y-13.95
X61.95Y-17.95
X61.95Y-21.95
X61.95Y-37.95
X61.95Y-65.95
X61.991Y-46.779
X62.666Y-41.575
X62.82Y-52.547
X62.94Y-49.009
X63.95Y-3.95
X63.95Y-7.95
X63.95Y-19.95
X63.95Y-59.95
X63.95Y-67.95
X63.95Y-71.95
X64.01Y-40.413
X64.279Y-51.833
X64.798Y-68.977
X64.798Y-71.099
X65.118Y-52.477
X65.208Y-10.582
X65.782Y-29.755
X65.806Y-53.172
X65.875Y-3.542
X65.95Y-1.95
X65.95Y-61.95
X65.95Y-65.95
X66.572Y-61.27
X66.873Y-45.473
X67.127Y-48.25
X67.398Y-32.729
X67.398Y-44.25
X67.464Y-77.765
X67.95Y-11.95
X67.95Y-67.95
X67.95Y-71.95
X67.991Y-19.336
X67.991Y-46.829
X68.502Y-58.728
X68.605Y-33.849
X68.85Y-60.1
X69.177Y-40.677
X69.177Y-55.218
X69.431Y-4.093
X69.895Y-33.28
X69.95Y-21.95
X69.95Y-25.95
X69.95Y-65.95
X70.03Y-73.686
X70.24Y-4.525
X70.347Y-3.244
X70.573Y-45.65
X70.573Y-59.365
X70.851Y-77.413
X70.862Y-17.737
X71.129Y-47.389
X71.95Y-39.95
X71.95Y-43.95
X71.95Y-47.95
X72.173Y-29.965
X72.75Y-3.45
X72.75Y-14.294
X73.311Y-29.91
X73.95Y-9.95
X73.95Y-13.95
X73.95Y-17.95
X73.95Y-21.95
X73.95Y-25.95
X73.95Y-65.95
X74.249Y-37.365
X74.428Y-42.283
X74.428Y-54.666
X74.882Y-28.07
X74.882Y-34.031
X75.174Y-54.0
X75.174Y-57.891
X75.206Y-41.803
X75.217Y-60.081
X75.773Y-27.49
X75.773Y-36.069
X75.95Y-11.95
X75.95Y-43.95
X75.95Y-47.95
X75.95Y-67.95
X75.95Y-71.95
X76.123Y-77.693
X77.003Y-40.789
X77.587Y-40.217
X77.588Y-50.647
X77.65Y-69.541
X77.95Y-9.95
X77.95Y-13.95
X77.95Y-17.95
X77.95Y-53.95
X78.322Y-20.016
X79.295Y-33.423
X79.295Y-47.422
X79.847Y-17.649
X79.847Y-46.25
X79.95Y-7.95
X79.95Y-11.95
X79.95Y-67.95
X79.963Y-69.9
X80.657Y-23.107
X80.731Y-41.176
X80.965Y-53.595
X81.209Y-32.192
X81.438Y-41.547
X81.848Y-16.952
X81.95Y-9.95
X81.95Y-21.95
X81.95Y-29.95
X82.09Y-40.559
X83.34Y-73.686
X83.922Y-76.425
X83.95Y-3.95
X83.95Y-7.95
X83.95Y-23.95
X83.95Y-27.95
X83.95Y-67.95
X84.648Y-46.859
X85.235Y-31.849
X85.95Y-9.95
X85.95Y-21.95
X85.95Y-25.95
X85.95Y-29.95
X85.95Y-45.95
X85.95Y-69.95
X85.953Y-13.907
X86.228Y-71.55
X86.676Y-60.392
X86.736Y-64.27
X86.747Y-62.186
X86.75Y-59.25
X87.067Y-55.659
X87.067Y-41.169
X87.95Y-27.95
X87.95Y-47.95
X88.52Y-71.55
X89.637Y-74.664
X89.95Y-9.95
X89.95Y-29.95
X89.95Y-41.95
X89.95Y-45.95
X90.0Y-53.9
X90.801Y-45.05
X90.859Y-73.384
X90.859Y-77.276
X91.471Y-65.914
X91.521Y-72.796
X91.782Y-69.862
X91.95Y-3.95
X91.95Y-7.95
X91.95Y-27.95
X91.95Y-47.95
X91.95Y-71.95
X92.89Y-69.236
X93.542Y-68.662
X93.95Y-9.95
X93.95Y-29.95
X93.95Y-41.95
X93.95Y-49.95
X93.95Y-61.95
X95.205Y-27.252
X95.43Y-71.013
X95.457Y-67.166
X95.95Y-11.95
X95.95Y-15.95
X95.95Y-31.95
X95.95Y-47.95
X95.95Y-51.95
X95.95Y-67.95
X96.608Y-38.522
X96.7Y-73.268
X96.807Y-62.442
X96.814Y-53.381
X96.895Y-39.743
X97.402Y-28.668
X97.484Y-59.224
X97.572Y-72.138
X97.95Y-1.95
X97.95Y-29.95
X97.95Y-33.95
X98.587Y-57.434
X98.995Y-29.233
X99.723Y-55.35
X99.723Y-57.997
X99.95Y-3.95
X99.95Y-7.95
X99.95Y-11.95
X99.95Y-15.95
X99.95Y-27.95
X99.95Y-31.95
X99.95Y-51.95
X99.95Y-59.95
X99.95Y-67.95
X101.704Y-64.813
X101.79Y-63.905
X101.95Y-1.95
X101.95Y-5.95
X101.95Y-9.95
X101.95Y-13.95
X101.95Y-21.95
X101.95Y-25.95
X101.95Y-29.95
X101.95Y-37.95
X101.95Y-41.95
X101.95Y-45.95
X101.95Y-53.95
X101.95Y-65.95
X101.95Y-69.95
X101.95Y-73.95
X103.95Y-7.95
X103.95Y-11.95
X103.95Y-23.95
X103.95Y-27.95
X103.95Y-31.95
X103.95Y-51.95
X103.95Y-59.95
X103.95Y-75.95
X103.95Y-79.95
X104.113Y-50.587
X104.736Y-62.062
X104.736Y-67.249
X105.95Y-9.95
X105.95Y-25.95
X105.95Y-29.95
X105.95Y-37.95
X105.95Y-41.95
X105.95Y-49.95
X105.95Y-61.95
X105.95Y-77.95
X105.95Y-81.95
X107.95Y-7.95
X107.95Y-11.95
X107.95Y-15.95
X107.95Y-19.95
X107.95Y-23.95
X107.95Y-27.95
X107.95Y-51.95
X107.95Y-55.95
X107.95Y-59.95
X107.95Y-75.95
X107.95Y-79.95
T4
X5.95Y-57.95
X10.318Y-63.062
X11.327Y-53.149
X14.315Y-56.808
X14.49Y-83.649
X19.95Y-27.95
X23.95Y-43.95
X33.95Y-41.95
X37.5Y-59.25
X39.95Y-59.95
X41.95Y-41.95
X42.0Y-60.5
X47.95Y-23.95
X47.95Y-55.95
X49.95Y-13.95
X53.95Y-25.95
X55.95Y-23.95
X61.95Y-61.95
X69.95Y-61.95
X71.298Y-64.606
X74.843Y-77.238
X75.95Y-55.95
X81.0Y-54.5
X81.95Y-13.95
X81.95Y-57.95
X83.95Y-31.95
X83.95Y-59.95
X89.95Y-25.95
X89.95Y-49.95
X91.58Y-55.0
X91.95Y-59.95
X93.95Y-45.95
X93.95Y-73.95
X107.95Y-63.95
T5
X3.16Y-34.216
X4.747Y-53.373
X9.466Y-71.727
X24.403Y-57.212
X25.194Y-45.078
X26.716Y-45.53
X27.387Y-53.25
X29.129Y-5.246
X29.129Y-47.408
X33.516Y-52.425
X33.516Y-56.624
X60.333Y-58.5
X80.892Y-6.061
X81.877Y-71.344
X82.552Y-62.616
X82.73Y-35.46
X84.947Y-5.246
X88.285Y-24.068
X91.363Y-58.646
X101.113Y-62.278
T6
X1.1Y-3.5
X1.1Y-71.0
X1.803Y-1.803
X1.803Y-5.197
X1.803Y-69.303
X1.803Y-72.697
X3.5Y-1.1
X3.5Y-5.9
X3.5Y-68.6
X3.5Y-73.4
X5.197Y-1.803
X5.197Y-5.197
X5.197Y-69.303
X5.197Y-72.697
X5.9Y-3.5
X5.9Y-71.0
X104.1Y-3.5
X104.1Y-71.0
X104.803Y-1.803
X104.803Y-5.197
X104.803Y-69.303
X104.803Y-72.697
X106.5Y-1.1
X106.5Y-5.9
X106.5Y-68.6
X106.5Y-73.4
X108.197Y-1.803
X108.197Y-5.197
X108.197Y-69.303
X108.197Y-72.697
X108.9Y-3.5
X108.9Y-71.0
T8
X95.365Y-3.46
X95.365Y-4.73
X95.365Y-6.0
X95.365Y-7.27
X95.365Y-8.54
X96.635Y-3.46
X96.635Y-4.73
X96.635Y-6.0
X96.635Y-7.27
X96.635Y-8.54
T9
X1.815Y-48.19
X1.815Y-50.73
X1.815Y-53.27
X1.815Y-55.81
X10.68Y-78.735
X10.68Y-81.275
X13.22Y-78.735
X13.22Y-81.275
X15.76Y-78.735
X15.76Y-81.275
X18.3Y-78.735
X18.3Y-81.275
X20.84Y-78.735
X20.84Y-81.275
X23.38Y-78.735
X23.38Y-81.275
X25.92Y-78.735
X25.92Y-81.275
X28.46Y-78.735
X28.46Y-81.275
X28.5Y-11.0
X28.5Y-13.54
X28.5Y-16.08
X28.5Y-18.62
X28.5Y-21.16
X31.0Y-78.735
X31.0Y-81.275
X31.04Y-11.0
X31.04Y-13.54
X31.04Y-16.08
X31.04Y-18.62
X31.04Y-21.16
X33.54Y-78.735
X33.54Y-81.275
X36.08Y-78.735
X36.08Y-81.275
X38.62Y-78.735
X38.62Y-81.275
X41.16Y-78.735
X41.16Y-81.275
X43.7Y-78.735
X43.7Y-81.275
X46.24Y-78.735
X46.24Y-81.275
X48.78Y-78.735
X48.78Y-81.275
X51.32Y-78.735
X51.32Y-81.275
X59.5Y-73.5
X62.04Y-73.5
X70.03Y-78.735
X70.03Y-81.275
X72.57Y-78.735
X72.57Y-81.275
X75.11Y-78.735
X75.11Y-81.275
X77.65Y-78.735
X77.65Y-81.275
X80.19Y-78.735
X80.19Y-81.275
X82.73Y-78.735
X82.73Y-81.275
X85.27Y-78.735
X85.27Y-81.275
X87.81Y-78.735
X87.81Y-81.275
X90.35Y-78.735
X90.35Y-81.275
X92.89Y-78.735
X92.89Y-81.275
X95.43Y-78.735
X95.43Y-81.275
X97.97Y-78.735
X97.97Y-81.275
X105.0Y-15.46
X105.0Y-18.0
X105.0Y-20.54
X107.785Y-33.65
X107.785Y-36.19
X107.785Y-38.73
X107.785Y-41.27
X107.785Y-43.81
X107.785Y-46.35
T10
X3.5Y-3.5
X3.5Y-71.0
X106.5Y-3.5
X106.5Y-71.0
T7
X67.68Y-1.635G85X67.68Y-2.735
G05
X67.68Y-6.065G85X67.68Y-6.665
G05
X76.32Y-1.635G85X76.32Y-2.735
G05
X76.32Y-6.065G85X76.32Y-6.665
G05
T9
X9.3Y-10.045G85X9.3Y-12.045
G05
X15.0Y-8.045G85X13.0Y-8.045
G05
X15.0Y-14.045G85X13.0Y-14.045
G05
M30
