%TF.GenerationSoftware,KiCad,Pcbnew,10.0.6*%
%TF.CreationDate,2026-10-05T21:51:06+02:00*%
%TF.ProjectId,UFI_Headless,5546495f-4865-4616-946c-6573732e6b69,rev?*%
%TF.SameCoordinates,Original*%
%TF.FileFunction,Soldermask,Bot*%
%TF.FilePolarity,Negative*%
%FSLAX46Y46*%
G04 Gerber Fmt 4.6, Leading zero omitted, Abs format (unit mm)*
G04 Created by KiCad (PCBNEW 10.0.6) date 2026-10-05 21:51:06*
%MOMM*%
%LPD*%
G01*
G04 APERTURE LIST*
G04 Aperture macros list*
%AMRoundRect*
0 Rectangle with rounded corners*
0 $1 Rounding radius*
0 $2 $3 $4 $5 $6 $7 $8 $9 X,Y pos of 4 corners*
0 Add a 4 corners polygon primitive as box body*
4,1,4,$2,$3,$4,$5,$6,$7,$8,$9,$2,$3,0*
0 Add four circle primitives for the rounded corners*
1,1,$1+$1,$2,$3*
1,1,$1+$1,$4,$5*
1,1,$1+$1,$6,$7*
1,1,$1+$1,$8,$9*
0 Add four rect primitives between the rounded corners*
20,1,$1+$1,$2,$3,$4,$5,0*
20,1,$1+$1,$4,$5,$6,$7,0*
20,1,$1+$1,$6,$7,$8,$9,0*
20,1,$1+$1,$8,$9,$2,$3,0*%
G04 Aperture macros list end*
%ADD10C,0.800000*%
%ADD11C,6.400000*%
%ADD12R,1.700000X1.700000*%
%ADD13C,1.700000*%
%ADD14RoundRect,0.250000X0.600000X-0.600000X0.600000X0.600000X-0.600000X0.600000X-0.600000X-0.600000X0*%
%ADD15R,3.500000X3.500000*%
%ADD16RoundRect,0.750000X-1.000000X0.750000X-1.000000X-0.750000X1.000000X-0.750000X1.000000X0.750000X0*%
%ADD17RoundRect,0.875000X-0.875000X0.875000X-0.875000X-0.875000X0.875000X-0.875000X0.875000X0.875000X0*%
%ADD18C,0.650000*%
%ADD19O,1.000000X2.100000*%
%ADD20O,1.000000X1.600000*%
%ADD21R,1.000000X1.000000*%
%ADD22C,1.000000*%
G04 APERTURE END LIST*
D10*
%TO.C,H3*%
X1100000Y-71000000D03*
X1802944Y-69302944D03*
X1802944Y-72697056D03*
X3500000Y-68600000D03*
D11*
X3500000Y-71000000D03*
D10*
X3500000Y-73400000D03*
X5197056Y-69302944D03*
X5197056Y-72697056D03*
X5900000Y-71000000D03*
%TD*%
D12*
%TO.C,J5*%
X105000000Y-15460000D03*
D13*
X105000000Y-18000000D03*
X105000000Y-20540000D03*
%TD*%
D10*
%TO.C,H2*%
X104100000Y-3500000D03*
X104802944Y-1802944D03*
X104802944Y-5197056D03*
X106500000Y-1100000D03*
D11*
X106500000Y-3500000D03*
D10*
X106500000Y-5900000D03*
X108197056Y-1802944D03*
X108197056Y-5197056D03*
X108900000Y-3500000D03*
%TD*%
D14*
%TO.C,J6*%
X10680000Y-81275000D03*
D13*
X10680000Y-78735000D03*
X13220000Y-81275000D03*
X13220000Y-78735000D03*
X15760000Y-81275000D03*
X15760000Y-78735000D03*
X18300000Y-81275000D03*
X18300000Y-78735000D03*
X20840000Y-81275000D03*
X20840000Y-78735000D03*
X23380000Y-81275000D03*
X23380000Y-78735000D03*
X25920000Y-81275000D03*
X25920000Y-78735000D03*
X28460000Y-81275000D03*
X28460000Y-78735000D03*
X31000000Y-81275000D03*
X31000000Y-78735000D03*
X33540000Y-81275000D03*
X33540000Y-78735000D03*
X36080000Y-81275000D03*
X36080000Y-78735000D03*
X38620000Y-81275000D03*
X38620000Y-78735000D03*
X41160000Y-81275000D03*
X41160000Y-78735000D03*
X43700000Y-81275000D03*
X43700000Y-78735000D03*
X46240000Y-81275000D03*
X46240000Y-78735000D03*
X48780000Y-81275000D03*
X48780000Y-78735000D03*
X51320000Y-81275000D03*
X51320000Y-78735000D03*
%TD*%
D15*
%TO.C,J2*%
X14000000Y-14045000D03*
D16*
X14000000Y-8045000D03*
D17*
X9300000Y-11045000D03*
%TD*%
D10*
%TO.C,H1*%
X1100000Y-3500000D03*
X1802944Y-1802944D03*
X1802944Y-5197056D03*
X3500000Y-1100000D03*
D11*
X3500000Y-3500000D03*
D10*
X3500000Y-5900000D03*
X5197056Y-1802944D03*
X5197056Y-5197056D03*
X5900000Y-3500000D03*
%TD*%
D18*
%TO.C,J1*%
X69110000Y-2715000D03*
X74890000Y-2715000D03*
D19*
X67680000Y-2185000D03*
D20*
X67680000Y-6365000D03*
D19*
X76320000Y-2185000D03*
D20*
X76320000Y-6365000D03*
%TD*%
D14*
%TO.C,J7*%
X70030000Y-81275000D03*
D13*
X70030000Y-78735000D03*
X72570000Y-81275000D03*
X72570000Y-78735000D03*
X75110000Y-81275000D03*
X75110000Y-78735000D03*
X77650000Y-81275000D03*
X77650000Y-78735000D03*
X80190000Y-81275000D03*
X80190000Y-78735000D03*
X82730000Y-81275000D03*
X82730000Y-78735000D03*
X85270000Y-81275000D03*
X85270000Y-78735000D03*
X87810000Y-81275000D03*
X87810000Y-78735000D03*
X90350000Y-81275000D03*
X90350000Y-78735000D03*
X92890000Y-81275000D03*
X92890000Y-78735000D03*
X95430000Y-81275000D03*
X95430000Y-78735000D03*
X97970000Y-81275000D03*
X97970000Y-78735000D03*
%TD*%
D12*
%TO.C,J3*%
X1815000Y-48190000D03*
D13*
X1815000Y-50730000D03*
X1815000Y-53270000D03*
X1815000Y-55810000D03*
%TD*%
D21*
%TO.C,J4*%
X95365000Y-3460000D03*
D22*
X96635000Y-3460000D03*
X95365000Y-4730000D03*
X96635000Y-4730000D03*
X95365000Y-6000000D03*
X96635000Y-6000000D03*
X95365000Y-7270000D03*
X96635000Y-7270000D03*
X95365000Y-8540000D03*
X96635000Y-8540000D03*
%TD*%
D10*
%TO.C,H4*%
X104100000Y-71000000D03*
X104802944Y-69302944D03*
X104802944Y-72697056D03*
X106500000Y-68600000D03*
D11*
X106500000Y-71000000D03*
D10*
X106500000Y-73400000D03*
X108197056Y-69302944D03*
X108197056Y-72697056D03*
X108900000Y-71000000D03*
%TD*%
D12*
%TO.C,J8*%
X107785000Y-33650000D03*
D13*
X107785000Y-36190000D03*
X107785000Y-38730000D03*
X107785000Y-41270000D03*
X107785000Y-43810000D03*
X107785000Y-46350000D03*
%TD*%
M02*
