M48
; DRILL file KiCad 10.0.6 date 2026-10-05T01:53:40
; FORMAT={-:-/ absolute / metric / decimal}
; #@! TF.CreationDate,2026-10-05T01:53:40+02:00
; #@! TF.GenerationSoftware,Kicad,Pcbnew,10.0.6
; #@! TF.FileFunction,Plated,1,2,PTH
FMAT,2
METRIC
; #@! TA.AperFunction,Plated,PTH,ViaDrill
T1C0.350
; #@! TA.AperFunction,Plated,PTH,ComponentDrill
T2C1.000
%
G90
G05
T1
X20.845Y-26.545
X27.755Y-38.508
T2
X10.0Y-10.0
X10.0Y-25.24
X12.54Y-10.0
X12.54Y-25.24
X15.08Y-10.0
X15.08Y-25.24
X17.0Y-43.0
X17.0Y-45.54
X17.62Y-10.0
X17.62Y-25.24
X19.54Y-43.0
X19.54Y-45.54
X20.16Y-10.0
X20.16Y-25.24
X22.08Y-43.0
X22.08Y-45.54
X22.7Y-10.0
X22.7Y-25.24
X24.62Y-43.0
X24.62Y-45.54
X25.24Y-10.0
X25.24Y-25.24
X27.16Y-43.0
X27.16Y-45.54
X27.78Y-10.0
X27.78Y-25.24
X29.7Y-43.0
X29.7Y-45.54
X30.32Y-10.0
X30.32Y-25.24
X32.24Y-43.0
X32.24Y-45.54
X32.86Y-10.0
X32.86Y-25.24
X34.78Y-43.0
X34.78Y-45.54
X35.4Y-10.0
X35.4Y-25.24
X37.32Y-43.0
X37.32Y-45.54
X37.94Y-10.0
X37.94Y-25.24
X39.86Y-43.0
X39.86Y-45.54
X40.48Y-10.0
X40.48Y-25.24
X42.4Y-43.0
X42.4Y-45.54
X43.02Y-10.0
X43.02Y-25.24
X44.94Y-43.0
X44.94Y-45.54
X45.56Y-10.0
X45.56Y-25.24
X47.48Y-43.0
X47.48Y-45.54
X48.1Y-10.0
X48.1Y-25.24
X50.02Y-43.0
X50.02Y-45.54
X50.64Y-10.0
X50.64Y-25.24
X52.56Y-43.0
X52.56Y-45.54
X53.18Y-10.0
X53.18Y-25.24
X55.1Y-43.0
X55.1Y-45.54
X55.72Y-10.0
X55.72Y-25.24
X57.64Y-43.0
X57.64Y-45.54
X58.26Y-10.0
X58.26Y-25.24
M30
