%TF.GenerationSoftware,KiCad,Pcbnew,10.0.6*%
%TF.CreationDate,2026-10-05T01:53:40+02:00*%
%TF.ProjectId,UFI_FluxAdapter_F1,5546495f-466c-4757-9841-646170746572,rev?*%
%TF.SameCoordinates,Original*%
%TF.FileFunction,Legend,Top*%
%TF.FilePolarity,Positive*%
%FSLAX46Y46*%
G04 Gerber Fmt 4.6, Leading zero omitted, Abs format (unit mm)*
G04 Created by KiCad (PCBNEW 10.0.6) date 2026-10-05 01:53:40*
%MOMM*%
%LPD*%
G01*
G04 APERTURE LIST*
G04 Aperture macros list*
%AMRoundRect*
0 Rectangle with rounded corners*
0 $1 Rounding radius*
0 $2 $3 $4 $5 $6 $7 $8 $9 X,Y pos of 4 corners*
0 Add a 4 corners polygon primitive as box body*
4,1,4,$2,$3,$4,$5,$6,$7,$8,$9,$2,$3,0*
0 Add four circle primitives for the rounded corners*
1,1,$1+$1,$2,$3*
1,1,$1+$1,$4,$5*
1,1,$1+$1,$6,$7*
1,1,$1+$1,$8,$9*
0 Add four rect primitives between the rounded corners*
20,1,$1+$1,$2,$3,$4,$5,0*
20,1,$1+$1,$4,$5,$6,$7,0*
20,1,$1+$1,$6,$7,$8,$9,0*
20,1,$1+$1,$8,$9,$2,$3,0*%
G04 Aperture macros list end*
%ADD10C,0.150000*%
%ADD11C,0.120000*%
%ADD12C,3.200000*%
%ADD13RoundRect,0.250000X0.600000X-0.600000X0.600000X0.600000X-0.600000X0.600000X-0.600000X-0.600000X0*%
%ADD14C,1.700000*%
%ADD15R,1.700000X1.700000*%
G04 APERTURE END LIST*
D10*
X10209523Y-6600390D02*
X10133333Y-6562295D01*
X10133333Y-6562295D02*
X10019047Y-6562295D01*
X10019047Y-6562295D02*
X9904761Y-6600390D01*
X9904761Y-6600390D02*
X9828571Y-6676580D01*
X9828571Y-6676580D02*
X9790476Y-6752771D01*
X9790476Y-6752771D02*
X9752380Y-6905152D01*
X9752380Y-6905152D02*
X9752380Y-7019438D01*
X9752380Y-7019438D02*
X9790476Y-7171819D01*
X9790476Y-7171819D02*
X9828571Y-7248009D01*
X9828571Y-7248009D02*
X9904761Y-7324200D01*
X9904761Y-7324200D02*
X10019047Y-7362295D01*
X10019047Y-7362295D02*
X10095238Y-7362295D01*
X10095238Y-7362295D02*
X10209523Y-7324200D01*
X10209523Y-7324200D02*
X10247619Y-7286104D01*
X10247619Y-7286104D02*
X10247619Y-7019438D01*
X10247619Y-7019438D02*
X10095238Y-7019438D01*
X9295237Y-28143247D02*
X9409523Y-28181342D01*
X9409523Y-28181342D02*
X9447618Y-28219438D01*
X9447618Y-28219438D02*
X9485714Y-28295628D01*
X9485714Y-28295628D02*
X9485714Y-28409914D01*
X9485714Y-28409914D02*
X9447618Y-28486104D01*
X9447618Y-28486104D02*
X9409523Y-28524200D01*
X9409523Y-28524200D02*
X9333333Y-28562295D01*
X9333333Y-28562295D02*
X9028571Y-28562295D01*
X9028571Y-28562295D02*
X9028571Y-27762295D01*
X9028571Y-27762295D02*
X9295237Y-27762295D01*
X9295237Y-27762295D02*
X9371428Y-27800390D01*
X9371428Y-27800390D02*
X9409523Y-27838485D01*
X9409523Y-27838485D02*
X9447618Y-27914676D01*
X9447618Y-27914676D02*
X9447618Y-27990866D01*
X9447618Y-27990866D02*
X9409523Y-28067057D01*
X9409523Y-28067057D02*
X9371428Y-28105152D01*
X9371428Y-28105152D02*
X9295237Y-28143247D01*
X9295237Y-28143247D02*
X9028571Y-28143247D01*
X10247618Y-28562295D02*
X9790475Y-28562295D01*
X10019047Y-28562295D02*
X10019047Y-27762295D01*
X10019047Y-27762295D02*
X9942856Y-27876580D01*
X9942856Y-27876580D02*
X9866666Y-27952771D01*
X9866666Y-27952771D02*
X9790475Y-27990866D01*
X10552380Y-27838485D02*
X10590476Y-27800390D01*
X10590476Y-27800390D02*
X10666666Y-27762295D01*
X10666666Y-27762295D02*
X10857142Y-27762295D01*
X10857142Y-27762295D02*
X10933333Y-27800390D01*
X10933333Y-27800390D02*
X10971428Y-27838485D01*
X10971428Y-27838485D02*
X11009523Y-27914676D01*
X11009523Y-27914676D02*
X11009523Y-27990866D01*
X11009523Y-27990866D02*
X10971428Y-28105152D01*
X10971428Y-28105152D02*
X10514285Y-28562295D01*
X10514285Y-28562295D02*
X11009523Y-28562295D01*
X57593333Y-6562295D02*
X57860000Y-7362295D01*
X57860000Y-7362295D02*
X58126666Y-6562295D01*
X58659999Y-6943247D02*
X58774285Y-6981342D01*
X58774285Y-6981342D02*
X58812380Y-7019438D01*
X58812380Y-7019438D02*
X58850476Y-7095628D01*
X58850476Y-7095628D02*
X58850476Y-7209914D01*
X58850476Y-7209914D02*
X58812380Y-7286104D01*
X58812380Y-7286104D02*
X58774285Y-7324200D01*
X58774285Y-7324200D02*
X58698095Y-7362295D01*
X58698095Y-7362295D02*
X58393333Y-7362295D01*
X58393333Y-7362295D02*
X58393333Y-6562295D01*
X58393333Y-6562295D02*
X58659999Y-6562295D01*
X58659999Y-6562295D02*
X58736190Y-6600390D01*
X58736190Y-6600390D02*
X58774285Y-6638485D01*
X58774285Y-6638485D02*
X58812380Y-6714676D01*
X58812380Y-6714676D02*
X58812380Y-6790866D01*
X58812380Y-6790866D02*
X58774285Y-6867057D01*
X58774285Y-6867057D02*
X58736190Y-6905152D01*
X58736190Y-6905152D02*
X58659999Y-6943247D01*
X58659999Y-6943247D02*
X58393333Y-6943247D01*
X57421904Y-27762295D02*
X57917142Y-27762295D01*
X57917142Y-27762295D02*
X57650476Y-28067057D01*
X57650476Y-28067057D02*
X57764761Y-28067057D01*
X57764761Y-28067057D02*
X57840952Y-28105152D01*
X57840952Y-28105152D02*
X57879047Y-28143247D01*
X57879047Y-28143247D02*
X57917142Y-28219438D01*
X57917142Y-28219438D02*
X57917142Y-28409914D01*
X57917142Y-28409914D02*
X57879047Y-28486104D01*
X57879047Y-28486104D02*
X57840952Y-28524200D01*
X57840952Y-28524200D02*
X57764761Y-28562295D01*
X57764761Y-28562295D02*
X57536190Y-28562295D01*
X57536190Y-28562295D02*
X57459999Y-28524200D01*
X57459999Y-28524200D02*
X57421904Y-28486104D01*
X58260000Y-28486104D02*
X58298095Y-28524200D01*
X58298095Y-28524200D02*
X58260000Y-28562295D01*
X58260000Y-28562295D02*
X58221904Y-28524200D01*
X58221904Y-28524200D02*
X58260000Y-28486104D01*
X58260000Y-28486104D02*
X58260000Y-28562295D01*
X58564761Y-27762295D02*
X59059999Y-27762295D01*
X59059999Y-27762295D02*
X58793333Y-28067057D01*
X58793333Y-28067057D02*
X58907618Y-28067057D01*
X58907618Y-28067057D02*
X58983809Y-28105152D01*
X58983809Y-28105152D02*
X59021904Y-28143247D01*
X59021904Y-28143247D02*
X59059999Y-28219438D01*
X59059999Y-28219438D02*
X59059999Y-28409914D01*
X59059999Y-28409914D02*
X59021904Y-28486104D01*
X59021904Y-28486104D02*
X58983809Y-28524200D01*
X58983809Y-28524200D02*
X58907618Y-28562295D01*
X58907618Y-28562295D02*
X58679047Y-28562295D01*
X58679047Y-28562295D02*
X58602856Y-28524200D01*
X58602856Y-28524200D02*
X58564761Y-28486104D01*
X20357141Y-50537128D02*
X20057141Y-50537128D01*
X20057141Y-51008557D02*
X20057141Y-50108557D01*
X20057141Y-50108557D02*
X20485713Y-50108557D01*
X20828570Y-51008557D02*
X20828570Y-50108557D01*
X20828570Y-50108557D02*
X21042856Y-50108557D01*
X21042856Y-50108557D02*
X21171427Y-50151414D01*
X21171427Y-50151414D02*
X21257142Y-50237128D01*
X21257142Y-50237128D02*
X21299999Y-50322842D01*
X21299999Y-50322842D02*
X21342856Y-50494271D01*
X21342856Y-50494271D02*
X21342856Y-50622842D01*
X21342856Y-50622842D02*
X21299999Y-50794271D01*
X21299999Y-50794271D02*
X21257142Y-50879985D01*
X21257142Y-50879985D02*
X21171427Y-50965700D01*
X21171427Y-50965700D02*
X21042856Y-51008557D01*
X21042856Y-51008557D02*
X20828570Y-51008557D01*
X21728570Y-51008557D02*
X21728570Y-50108557D01*
X21728570Y-50108557D02*
X21942856Y-50108557D01*
X21942856Y-50108557D02*
X22071427Y-50151414D01*
X22071427Y-50151414D02*
X22157142Y-50237128D01*
X22157142Y-50237128D02*
X22199999Y-50322842D01*
X22199999Y-50322842D02*
X22242856Y-50494271D01*
X22242856Y-50494271D02*
X22242856Y-50622842D01*
X22242856Y-50622842D02*
X22199999Y-50794271D01*
X22199999Y-50794271D02*
X22157142Y-50879985D01*
X22157142Y-50879985D02*
X22071427Y-50965700D01*
X22071427Y-50965700D02*
X21942856Y-51008557D01*
X21942856Y-51008557D02*
X21728570Y-51008557D01*
X23228570Y-50108557D02*
X23785713Y-50108557D01*
X23785713Y-50108557D02*
X23485713Y-50451414D01*
X23485713Y-50451414D02*
X23614284Y-50451414D01*
X23614284Y-50451414D02*
X23699999Y-50494271D01*
X23699999Y-50494271D02*
X23742856Y-50537128D01*
X23742856Y-50537128D02*
X23785713Y-50622842D01*
X23785713Y-50622842D02*
X23785713Y-50837128D01*
X23785713Y-50837128D02*
X23742856Y-50922842D01*
X23742856Y-50922842D02*
X23699999Y-50965700D01*
X23699999Y-50965700D02*
X23614284Y-51008557D01*
X23614284Y-51008557D02*
X23357141Y-51008557D01*
X23357141Y-51008557D02*
X23271427Y-50965700D01*
X23271427Y-50965700D02*
X23228570Y-50922842D01*
X24557142Y-50408557D02*
X24557142Y-51008557D01*
X24342856Y-50065700D02*
X24128570Y-50708557D01*
X24128570Y-50708557D02*
X24685713Y-50708557D01*
X25028570Y-50408557D02*
X25028570Y-51308557D01*
X25028570Y-50451414D02*
X25114285Y-50408557D01*
X25114285Y-50408557D02*
X25285713Y-50408557D01*
X25285713Y-50408557D02*
X25371427Y-50451414D01*
X25371427Y-50451414D02*
X25414285Y-50494271D01*
X25414285Y-50494271D02*
X25457142Y-50579985D01*
X25457142Y-50579985D02*
X25457142Y-50837128D01*
X25457142Y-50837128D02*
X25414285Y-50922842D01*
X25414285Y-50922842D02*
X25371427Y-50965700D01*
X25371427Y-50965700D02*
X25285713Y-51008557D01*
X25285713Y-51008557D02*
X25114285Y-51008557D01*
X25114285Y-51008557D02*
X25028570Y-50965700D01*
X25971428Y-51008557D02*
X25885713Y-50965700D01*
X25885713Y-50965700D02*
X25842856Y-50922842D01*
X25842856Y-50922842D02*
X25799999Y-50837128D01*
X25799999Y-50837128D02*
X25799999Y-50579985D01*
X25799999Y-50579985D02*
X25842856Y-50494271D01*
X25842856Y-50494271D02*
X25885713Y-50451414D01*
X25885713Y-50451414D02*
X25971428Y-50408557D01*
X25971428Y-50408557D02*
X26099999Y-50408557D01*
X26099999Y-50408557D02*
X26185713Y-50451414D01*
X26185713Y-50451414D02*
X26228571Y-50494271D01*
X26228571Y-50494271D02*
X26271428Y-50579985D01*
X26271428Y-50579985D02*
X26271428Y-50837128D01*
X26271428Y-50837128D02*
X26228571Y-50922842D01*
X26228571Y-50922842D02*
X26185713Y-50965700D01*
X26185713Y-50965700D02*
X26099999Y-51008557D01*
X26099999Y-51008557D02*
X25971428Y-51008557D01*
X26785714Y-51008557D02*
X26699999Y-50965700D01*
X26699999Y-50965700D02*
X26657142Y-50879985D01*
X26657142Y-50879985D02*
X26657142Y-50108557D01*
X28071428Y-51351414D02*
X28028571Y-51308557D01*
X28028571Y-51308557D02*
X27942857Y-51179985D01*
X27942857Y-51179985D02*
X27900000Y-51094271D01*
X27900000Y-51094271D02*
X27857142Y-50965700D01*
X27857142Y-50965700D02*
X27814285Y-50751414D01*
X27814285Y-50751414D02*
X27814285Y-50579985D01*
X27814285Y-50579985D02*
X27857142Y-50365700D01*
X27857142Y-50365700D02*
X27900000Y-50237128D01*
X27900000Y-50237128D02*
X27942857Y-50151414D01*
X27942857Y-50151414D02*
X28028571Y-50022842D01*
X28028571Y-50022842D02*
X28071428Y-49979985D01*
X28371428Y-50965700D02*
X28500000Y-51008557D01*
X28500000Y-51008557D02*
X28714285Y-51008557D01*
X28714285Y-51008557D02*
X28800000Y-50965700D01*
X28800000Y-50965700D02*
X28842857Y-50922842D01*
X28842857Y-50922842D02*
X28885714Y-50837128D01*
X28885714Y-50837128D02*
X28885714Y-50751414D01*
X28885714Y-50751414D02*
X28842857Y-50665700D01*
X28842857Y-50665700D02*
X28800000Y-50622842D01*
X28800000Y-50622842D02*
X28714285Y-50579985D01*
X28714285Y-50579985D02*
X28542857Y-50537128D01*
X28542857Y-50537128D02*
X28457142Y-50494271D01*
X28457142Y-50494271D02*
X28414285Y-50451414D01*
X28414285Y-50451414D02*
X28371428Y-50365700D01*
X28371428Y-50365700D02*
X28371428Y-50279985D01*
X28371428Y-50279985D02*
X28414285Y-50194271D01*
X28414285Y-50194271D02*
X28457142Y-50151414D01*
X28457142Y-50151414D02*
X28542857Y-50108557D01*
X28542857Y-50108557D02*
X28757142Y-50108557D01*
X28757142Y-50108557D02*
X28885714Y-50151414D01*
X29271428Y-51008557D02*
X29271428Y-50108557D01*
X29657143Y-51008557D02*
X29657143Y-50537128D01*
X29657143Y-50537128D02*
X29614285Y-50451414D01*
X29614285Y-50451414D02*
X29528571Y-50408557D01*
X29528571Y-50408557D02*
X29400000Y-50408557D01*
X29400000Y-50408557D02*
X29314285Y-50451414D01*
X29314285Y-50451414D02*
X29271428Y-50494271D01*
X30471429Y-50408557D02*
X30471429Y-51008557D01*
X30085714Y-50408557D02*
X30085714Y-50879985D01*
X30085714Y-50879985D02*
X30128571Y-50965700D01*
X30128571Y-50965700D02*
X30214286Y-51008557D01*
X30214286Y-51008557D02*
X30342857Y-51008557D01*
X30342857Y-51008557D02*
X30428571Y-50965700D01*
X30428571Y-50965700D02*
X30471429Y-50922842D01*
X31285715Y-50408557D02*
X31285715Y-51137128D01*
X31285715Y-51137128D02*
X31242857Y-51222842D01*
X31242857Y-51222842D02*
X31200000Y-51265700D01*
X31200000Y-51265700D02*
X31114286Y-51308557D01*
X31114286Y-51308557D02*
X30985715Y-51308557D01*
X30985715Y-51308557D02*
X30900000Y-51265700D01*
X31285715Y-50965700D02*
X31200000Y-51008557D01*
X31200000Y-51008557D02*
X31028572Y-51008557D01*
X31028572Y-51008557D02*
X30942857Y-50965700D01*
X30942857Y-50965700D02*
X30900000Y-50922842D01*
X30900000Y-50922842D02*
X30857143Y-50837128D01*
X30857143Y-50837128D02*
X30857143Y-50579985D01*
X30857143Y-50579985D02*
X30900000Y-50494271D01*
X30900000Y-50494271D02*
X30942857Y-50451414D01*
X30942857Y-50451414D02*
X31028572Y-50408557D01*
X31028572Y-50408557D02*
X31200000Y-50408557D01*
X31200000Y-50408557D02*
X31285715Y-50451414D01*
X32100001Y-51008557D02*
X32100001Y-50537128D01*
X32100001Y-50537128D02*
X32057143Y-50451414D01*
X32057143Y-50451414D02*
X31971429Y-50408557D01*
X31971429Y-50408557D02*
X31800001Y-50408557D01*
X31800001Y-50408557D02*
X31714286Y-50451414D01*
X32100001Y-50965700D02*
X32014286Y-51008557D01*
X32014286Y-51008557D02*
X31800001Y-51008557D01*
X31800001Y-51008557D02*
X31714286Y-50965700D01*
X31714286Y-50965700D02*
X31671429Y-50879985D01*
X31671429Y-50879985D02*
X31671429Y-50794271D01*
X31671429Y-50794271D02*
X31714286Y-50708557D01*
X31714286Y-50708557D02*
X31800001Y-50665700D01*
X31800001Y-50665700D02*
X32014286Y-50665700D01*
X32014286Y-50665700D02*
X32100001Y-50622842D01*
X32528572Y-51008557D02*
X32528572Y-50408557D01*
X32528572Y-50579985D02*
X32571429Y-50494271D01*
X32571429Y-50494271D02*
X32614287Y-50451414D01*
X32614287Y-50451414D02*
X32700001Y-50408557D01*
X32700001Y-50408557D02*
X32785715Y-50408557D01*
X32957144Y-50408557D02*
X33300001Y-50408557D01*
X33085715Y-50108557D02*
X33085715Y-50879985D01*
X33085715Y-50879985D02*
X33128572Y-50965700D01*
X33128572Y-50965700D02*
X33214287Y-51008557D01*
X33214287Y-51008557D02*
X33300001Y-51008557D01*
X33514287Y-51351414D02*
X33557144Y-51308557D01*
X33557144Y-51308557D02*
X33642858Y-51179985D01*
X33642858Y-51179985D02*
X33685716Y-51094271D01*
X33685716Y-51094271D02*
X33728573Y-50965700D01*
X33728573Y-50965700D02*
X33771430Y-50751414D01*
X33771430Y-50751414D02*
X33771430Y-50579985D01*
X33771430Y-50579985D02*
X33728573Y-50365700D01*
X33728573Y-50365700D02*
X33685716Y-50237128D01*
X33685716Y-50237128D02*
X33642858Y-50151414D01*
X33642858Y-50151414D02*
X33557144Y-50022842D01*
X33557144Y-50022842D02*
X33514287Y-49979985D01*
X34885715Y-50665700D02*
X35571430Y-50665700D01*
X36685715Y-51008557D02*
X36685715Y-50108557D01*
X36685715Y-50108557D02*
X37028572Y-50108557D01*
X37028572Y-50108557D02*
X37114287Y-50151414D01*
X37114287Y-50151414D02*
X37157144Y-50194271D01*
X37157144Y-50194271D02*
X37200001Y-50279985D01*
X37200001Y-50279985D02*
X37200001Y-50408557D01*
X37200001Y-50408557D02*
X37157144Y-50494271D01*
X37157144Y-50494271D02*
X37114287Y-50537128D01*
X37114287Y-50537128D02*
X37028572Y-50579985D01*
X37028572Y-50579985D02*
X36685715Y-50579985D01*
X37585715Y-51008557D02*
X37585715Y-50408557D01*
X37585715Y-50108557D02*
X37542858Y-50151414D01*
X37542858Y-50151414D02*
X37585715Y-50194271D01*
X37585715Y-50194271D02*
X37628572Y-50151414D01*
X37628572Y-50151414D02*
X37585715Y-50108557D01*
X37585715Y-50108557D02*
X37585715Y-50194271D01*
X38014286Y-50408557D02*
X38014286Y-51008557D01*
X38014286Y-50494271D02*
X38057143Y-50451414D01*
X38057143Y-50451414D02*
X38142858Y-50408557D01*
X38142858Y-50408557D02*
X38271429Y-50408557D01*
X38271429Y-50408557D02*
X38357143Y-50451414D01*
X38357143Y-50451414D02*
X38400001Y-50537128D01*
X38400001Y-50537128D02*
X38400001Y-51008557D01*
X39985715Y-51008557D02*
X39471429Y-51008557D01*
X39728572Y-51008557D02*
X39728572Y-50108557D01*
X39728572Y-50108557D02*
X39642858Y-50237128D01*
X39642858Y-50237128D02*
X39557143Y-50322842D01*
X39557143Y-50322842D02*
X39471429Y-50365700D01*
X18500002Y-17537128D02*
X18628574Y-17579985D01*
X18628574Y-17579985D02*
X18671431Y-17622842D01*
X18671431Y-17622842D02*
X18714288Y-17708557D01*
X18714288Y-17708557D02*
X18714288Y-17837128D01*
X18714288Y-17837128D02*
X18671431Y-17922842D01*
X18671431Y-17922842D02*
X18628574Y-17965700D01*
X18628574Y-17965700D02*
X18542859Y-18008557D01*
X18542859Y-18008557D02*
X18200002Y-18008557D01*
X18200002Y-18008557D02*
X18200002Y-17108557D01*
X18200002Y-17108557D02*
X18500002Y-17108557D01*
X18500002Y-17108557D02*
X18585717Y-17151414D01*
X18585717Y-17151414D02*
X18628574Y-17194271D01*
X18628574Y-17194271D02*
X18671431Y-17279985D01*
X18671431Y-17279985D02*
X18671431Y-17365700D01*
X18671431Y-17365700D02*
X18628574Y-17451414D01*
X18628574Y-17451414D02*
X18585717Y-17494271D01*
X18585717Y-17494271D02*
X18500002Y-17537128D01*
X18500002Y-17537128D02*
X18200002Y-17537128D01*
X19528574Y-18008557D02*
X19100002Y-18008557D01*
X19100002Y-18008557D02*
X19100002Y-17108557D01*
X19828573Y-17108557D02*
X19828573Y-17837128D01*
X19828573Y-17837128D02*
X19871430Y-17922842D01*
X19871430Y-17922842D02*
X19914288Y-17965700D01*
X19914288Y-17965700D02*
X20000002Y-18008557D01*
X20000002Y-18008557D02*
X20171430Y-18008557D01*
X20171430Y-18008557D02*
X20257145Y-17965700D01*
X20257145Y-17965700D02*
X20300002Y-17922842D01*
X20300002Y-17922842D02*
X20342859Y-17837128D01*
X20342859Y-17837128D02*
X20342859Y-17108557D01*
X20771430Y-17537128D02*
X21071430Y-17537128D01*
X21200002Y-18008557D02*
X20771430Y-18008557D01*
X20771430Y-18008557D02*
X20771430Y-17108557D01*
X20771430Y-17108557D02*
X21200002Y-17108557D01*
X22271430Y-18008557D02*
X22271430Y-17108557D01*
X22271430Y-17108557D02*
X22614287Y-17108557D01*
X22614287Y-17108557D02*
X22700002Y-17151414D01*
X22700002Y-17151414D02*
X22742859Y-17194271D01*
X22742859Y-17194271D02*
X22785716Y-17279985D01*
X22785716Y-17279985D02*
X22785716Y-17408557D01*
X22785716Y-17408557D02*
X22742859Y-17494271D01*
X22742859Y-17494271D02*
X22700002Y-17537128D01*
X22700002Y-17537128D02*
X22614287Y-17579985D01*
X22614287Y-17579985D02*
X22271430Y-17579985D01*
X23171430Y-18008557D02*
X23171430Y-17108557D01*
X24028573Y-18008557D02*
X23600001Y-18008557D01*
X23600001Y-18008557D02*
X23600001Y-17108557D01*
X24757144Y-18008557D02*
X24328572Y-18008557D01*
X24328572Y-18008557D02*
X24328572Y-17108557D01*
X25742857Y-17665700D02*
X26428572Y-17665700D01*
X27542857Y-17108557D02*
X27542857Y-17837128D01*
X27542857Y-17837128D02*
X27585714Y-17922842D01*
X27585714Y-17922842D02*
X27628572Y-17965700D01*
X27628572Y-17965700D02*
X27714286Y-18008557D01*
X27714286Y-18008557D02*
X27885714Y-18008557D01*
X27885714Y-18008557D02*
X27971429Y-17965700D01*
X27971429Y-17965700D02*
X28014286Y-17922842D01*
X28014286Y-17922842D02*
X28057143Y-17837128D01*
X28057143Y-17837128D02*
X28057143Y-17108557D01*
X28442857Y-17965700D02*
X28571429Y-18008557D01*
X28571429Y-18008557D02*
X28785714Y-18008557D01*
X28785714Y-18008557D02*
X28871429Y-17965700D01*
X28871429Y-17965700D02*
X28914286Y-17922842D01*
X28914286Y-17922842D02*
X28957143Y-17837128D01*
X28957143Y-17837128D02*
X28957143Y-17751414D01*
X28957143Y-17751414D02*
X28914286Y-17665700D01*
X28914286Y-17665700D02*
X28871429Y-17622842D01*
X28871429Y-17622842D02*
X28785714Y-17579985D01*
X28785714Y-17579985D02*
X28614286Y-17537128D01*
X28614286Y-17537128D02*
X28528571Y-17494271D01*
X28528571Y-17494271D02*
X28485714Y-17451414D01*
X28485714Y-17451414D02*
X28442857Y-17365700D01*
X28442857Y-17365700D02*
X28442857Y-17279985D01*
X28442857Y-17279985D02*
X28485714Y-17194271D01*
X28485714Y-17194271D02*
X28528571Y-17151414D01*
X28528571Y-17151414D02*
X28614286Y-17108557D01*
X28614286Y-17108557D02*
X28828571Y-17108557D01*
X28828571Y-17108557D02*
X28957143Y-17151414D01*
X29642857Y-17537128D02*
X29771429Y-17579985D01*
X29771429Y-17579985D02*
X29814286Y-17622842D01*
X29814286Y-17622842D02*
X29857143Y-17708557D01*
X29857143Y-17708557D02*
X29857143Y-17837128D01*
X29857143Y-17837128D02*
X29814286Y-17922842D01*
X29814286Y-17922842D02*
X29771429Y-17965700D01*
X29771429Y-17965700D02*
X29685714Y-18008557D01*
X29685714Y-18008557D02*
X29342857Y-18008557D01*
X29342857Y-18008557D02*
X29342857Y-17108557D01*
X29342857Y-17108557D02*
X29642857Y-17108557D01*
X29642857Y-17108557D02*
X29728572Y-17151414D01*
X29728572Y-17151414D02*
X29771429Y-17194271D01*
X29771429Y-17194271D02*
X29814286Y-17279985D01*
X29814286Y-17279985D02*
X29814286Y-17365700D01*
X29814286Y-17365700D02*
X29771429Y-17451414D01*
X29771429Y-17451414D02*
X29728572Y-17494271D01*
X29728572Y-17494271D02*
X29642857Y-17537128D01*
X29642857Y-17537128D02*
X29342857Y-17537128D01*
X31357143Y-18008557D02*
X30928571Y-18008557D01*
X30928571Y-18008557D02*
X30928571Y-17108557D01*
X31657142Y-18008557D02*
X31657142Y-17108557D01*
X32085713Y-18008557D02*
X32085713Y-17108557D01*
X32085713Y-17108557D02*
X32599999Y-18008557D01*
X32599999Y-18008557D02*
X32599999Y-17108557D01*
X33028570Y-18008557D02*
X33028570Y-17108557D01*
X33542856Y-18008557D02*
X33157142Y-17494271D01*
X33542856Y-17108557D02*
X33028570Y-17622842D01*
X33885713Y-17965700D02*
X34014285Y-18008557D01*
X34014285Y-18008557D02*
X34228570Y-18008557D01*
X34228570Y-18008557D02*
X34314285Y-17965700D01*
X34314285Y-17965700D02*
X34357142Y-17922842D01*
X34357142Y-17922842D02*
X34399999Y-17837128D01*
X34399999Y-17837128D02*
X34399999Y-17751414D01*
X34399999Y-17751414D02*
X34357142Y-17665700D01*
X34357142Y-17665700D02*
X34314285Y-17622842D01*
X34314285Y-17622842D02*
X34228570Y-17579985D01*
X34228570Y-17579985D02*
X34057142Y-17537128D01*
X34057142Y-17537128D02*
X33971427Y-17494271D01*
X33971427Y-17494271D02*
X33928570Y-17451414D01*
X33928570Y-17451414D02*
X33885713Y-17365700D01*
X33885713Y-17365700D02*
X33885713Y-17279985D01*
X33885713Y-17279985D02*
X33928570Y-17194271D01*
X33928570Y-17194271D02*
X33971427Y-17151414D01*
X33971427Y-17151414D02*
X34057142Y-17108557D01*
X34057142Y-17108557D02*
X34271427Y-17108557D01*
X34271427Y-17108557D02*
X34399999Y-17151414D01*
X35471427Y-17665700D02*
X36157142Y-17665700D01*
X37571427Y-17537128D02*
X37699999Y-17579985D01*
X37699999Y-17579985D02*
X37742856Y-17622842D01*
X37742856Y-17622842D02*
X37785713Y-17708557D01*
X37785713Y-17708557D02*
X37785713Y-17837128D01*
X37785713Y-17837128D02*
X37742856Y-17922842D01*
X37742856Y-17922842D02*
X37699999Y-17965700D01*
X37699999Y-17965700D02*
X37614284Y-18008557D01*
X37614284Y-18008557D02*
X37271427Y-18008557D01*
X37271427Y-18008557D02*
X37271427Y-17108557D01*
X37271427Y-17108557D02*
X37571427Y-17108557D01*
X37571427Y-17108557D02*
X37657142Y-17151414D01*
X37657142Y-17151414D02*
X37699999Y-17194271D01*
X37699999Y-17194271D02*
X37742856Y-17279985D01*
X37742856Y-17279985D02*
X37742856Y-17365700D01*
X37742856Y-17365700D02*
X37699999Y-17451414D01*
X37699999Y-17451414D02*
X37657142Y-17494271D01*
X37657142Y-17494271D02*
X37571427Y-17537128D01*
X37571427Y-17537128D02*
X37271427Y-17537128D01*
X38128570Y-17751414D02*
X38557142Y-17751414D01*
X38042856Y-18008557D02*
X38342856Y-17108557D01*
X38342856Y-17108557D02*
X38642856Y-18008557D01*
X38942856Y-17108557D02*
X38942856Y-17837128D01*
X38942856Y-17837128D02*
X38985713Y-17922842D01*
X38985713Y-17922842D02*
X39028571Y-17965700D01*
X39028571Y-17965700D02*
X39114285Y-18008557D01*
X39114285Y-18008557D02*
X39285713Y-18008557D01*
X39285713Y-18008557D02*
X39371428Y-17965700D01*
X39371428Y-17965700D02*
X39414285Y-17922842D01*
X39414285Y-17922842D02*
X39457142Y-17837128D01*
X39457142Y-17837128D02*
X39457142Y-17108557D01*
X39757142Y-17108557D02*
X40271428Y-17108557D01*
X40014285Y-18008557D02*
X40014285Y-17108557D01*
X40571427Y-17537128D02*
X40871427Y-17537128D01*
X40999999Y-18008557D02*
X40571427Y-18008557D01*
X40571427Y-18008557D02*
X40571427Y-17108557D01*
X40571427Y-17108557D02*
X40999999Y-17108557D01*
X41385713Y-18008557D02*
X41385713Y-17108557D01*
X42242856Y-18008557D02*
X41814284Y-18008557D01*
X41814284Y-18008557D02*
X41814284Y-17108557D01*
X42499998Y-17965700D02*
X42628570Y-18008557D01*
X42628570Y-18008557D02*
X42842855Y-18008557D01*
X42842855Y-18008557D02*
X42928570Y-17965700D01*
X42928570Y-17965700D02*
X42971427Y-17922842D01*
X42971427Y-17922842D02*
X43014284Y-17837128D01*
X43014284Y-17837128D02*
X43014284Y-17751414D01*
X43014284Y-17751414D02*
X42971427Y-17665700D01*
X42971427Y-17665700D02*
X42928570Y-17622842D01*
X42928570Y-17622842D02*
X42842855Y-17579985D01*
X42842855Y-17579985D02*
X42671427Y-17537128D01*
X42671427Y-17537128D02*
X42585712Y-17494271D01*
X42585712Y-17494271D02*
X42542855Y-17451414D01*
X42542855Y-17451414D02*
X42499998Y-17365700D01*
X42499998Y-17365700D02*
X42499998Y-17279985D01*
X42499998Y-17279985D02*
X42542855Y-17194271D01*
X42542855Y-17194271D02*
X42585712Y-17151414D01*
X42585712Y-17151414D02*
X42671427Y-17108557D01*
X42671427Y-17108557D02*
X42885712Y-17108557D01*
X42885712Y-17108557D02*
X43014284Y-17151414D01*
X43399998Y-17537128D02*
X43699998Y-17537128D01*
X43828570Y-18008557D02*
X43399998Y-18008557D01*
X43399998Y-18008557D02*
X43399998Y-17108557D01*
X43399998Y-17108557D02*
X43828570Y-17108557D01*
X44214284Y-18008557D02*
X44214284Y-17108557D01*
X44514284Y-17108557D02*
X45028570Y-17108557D01*
X44771427Y-18008557D02*
X44771427Y-17108557D01*
X45328569Y-17537128D02*
X45628569Y-17537128D01*
X45757141Y-18008557D02*
X45328569Y-18008557D01*
X45328569Y-18008557D02*
X45328569Y-17108557D01*
X45328569Y-17108557D02*
X45757141Y-17108557D01*
X46999998Y-17108557D02*
X47171426Y-17108557D01*
X47171426Y-17108557D02*
X47257141Y-17151414D01*
X47257141Y-17151414D02*
X47342855Y-17237128D01*
X47342855Y-17237128D02*
X47385712Y-17408557D01*
X47385712Y-17408557D02*
X47385712Y-17708557D01*
X47385712Y-17708557D02*
X47342855Y-17879985D01*
X47342855Y-17879985D02*
X47257141Y-17965700D01*
X47257141Y-17965700D02*
X47171426Y-18008557D01*
X47171426Y-18008557D02*
X46999998Y-18008557D01*
X46999998Y-18008557D02*
X46914284Y-17965700D01*
X46914284Y-17965700D02*
X46828569Y-17879985D01*
X46828569Y-17879985D02*
X46785712Y-17708557D01*
X46785712Y-17708557D02*
X46785712Y-17408557D01*
X46785712Y-17408557D02*
X46828569Y-17237128D01*
X46828569Y-17237128D02*
X46914284Y-17151414D01*
X46914284Y-17151414D02*
X46999998Y-17108557D01*
X48071426Y-17537128D02*
X48199998Y-17579985D01*
X48199998Y-17579985D02*
X48242855Y-17622842D01*
X48242855Y-17622842D02*
X48285712Y-17708557D01*
X48285712Y-17708557D02*
X48285712Y-17837128D01*
X48285712Y-17837128D02*
X48242855Y-17922842D01*
X48242855Y-17922842D02*
X48199998Y-17965700D01*
X48199998Y-17965700D02*
X48114283Y-18008557D01*
X48114283Y-18008557D02*
X47771426Y-18008557D01*
X47771426Y-18008557D02*
X47771426Y-17108557D01*
X47771426Y-17108557D02*
X48071426Y-17108557D01*
X48071426Y-17108557D02*
X48157141Y-17151414D01*
X48157141Y-17151414D02*
X48199998Y-17194271D01*
X48199998Y-17194271D02*
X48242855Y-17279985D01*
X48242855Y-17279985D02*
X48242855Y-17365700D01*
X48242855Y-17365700D02*
X48199998Y-17451414D01*
X48199998Y-17451414D02*
X48157141Y-17494271D01*
X48157141Y-17494271D02*
X48071426Y-17537128D01*
X48071426Y-17537128D02*
X47771426Y-17537128D01*
X48671426Y-17537128D02*
X48971426Y-17537128D01*
X49099998Y-18008557D02*
X48671426Y-18008557D01*
X48671426Y-18008557D02*
X48671426Y-17108557D01*
X48671426Y-17108557D02*
X49099998Y-17108557D01*
X49485712Y-18008557D02*
X49485712Y-17108557D01*
X49485712Y-17108557D02*
X49999998Y-18008557D01*
X49999998Y-18008557D02*
X49999998Y-17108557D01*
X4738095Y-17054819D02*
X4738095Y-17864342D01*
X4738095Y-17864342D02*
X4785714Y-17959580D01*
X4785714Y-17959580D02*
X4833333Y-18007200D01*
X4833333Y-18007200D02*
X4928571Y-18054819D01*
X4928571Y-18054819D02*
X5119047Y-18054819D01*
X5119047Y-18054819D02*
X5214285Y-18007200D01*
X5214285Y-18007200D02*
X5261904Y-17959580D01*
X5261904Y-17959580D02*
X5309523Y-17864342D01*
X5309523Y-17864342D02*
X5309523Y-17054819D01*
X5738095Y-18007200D02*
X5880952Y-18054819D01*
X5880952Y-18054819D02*
X6119047Y-18054819D01*
X6119047Y-18054819D02*
X6214285Y-18007200D01*
X6214285Y-18007200D02*
X6261904Y-17959580D01*
X6261904Y-17959580D02*
X6309523Y-17864342D01*
X6309523Y-17864342D02*
X6309523Y-17769104D01*
X6309523Y-17769104D02*
X6261904Y-17673866D01*
X6261904Y-17673866D02*
X6214285Y-17626247D01*
X6214285Y-17626247D02*
X6119047Y-17578628D01*
X6119047Y-17578628D02*
X5928571Y-17531009D01*
X5928571Y-17531009D02*
X5833333Y-17483390D01*
X5833333Y-17483390D02*
X5785714Y-17435771D01*
X5785714Y-17435771D02*
X5738095Y-17340533D01*
X5738095Y-17340533D02*
X5738095Y-17245295D01*
X5738095Y-17245295D02*
X5785714Y-17150057D01*
X5785714Y-17150057D02*
X5833333Y-17102438D01*
X5833333Y-17102438D02*
X5928571Y-17054819D01*
X5928571Y-17054819D02*
X6166666Y-17054819D01*
X6166666Y-17054819D02*
X6309523Y-17102438D01*
X7071428Y-17531009D02*
X7214285Y-17578628D01*
X7214285Y-17578628D02*
X7261904Y-17626247D01*
X7261904Y-17626247D02*
X7309523Y-17721485D01*
X7309523Y-17721485D02*
X7309523Y-17864342D01*
X7309523Y-17864342D02*
X7261904Y-17959580D01*
X7261904Y-17959580D02*
X7214285Y-18007200D01*
X7214285Y-18007200D02*
X7119047Y-18054819D01*
X7119047Y-18054819D02*
X6738095Y-18054819D01*
X6738095Y-18054819D02*
X6738095Y-17054819D01*
X6738095Y-17054819D02*
X7071428Y-17054819D01*
X7071428Y-17054819D02*
X7166666Y-17102438D01*
X7166666Y-17102438D02*
X7214285Y-17150057D01*
X7214285Y-17150057D02*
X7261904Y-17245295D01*
X7261904Y-17245295D02*
X7261904Y-17340533D01*
X7261904Y-17340533D02*
X7214285Y-17435771D01*
X7214285Y-17435771D02*
X7166666Y-17483390D01*
X7166666Y-17483390D02*
X7071428Y-17531009D01*
X7071428Y-17531009D02*
X6738095Y-17531009D01*
X15485714Y-45994819D02*
X14914286Y-45994819D01*
X15200000Y-45994819D02*
X15200000Y-44994819D01*
X15200000Y-44994819D02*
X15104762Y-45137676D01*
X15104762Y-45137676D02*
X15009524Y-45232914D01*
X15009524Y-45232914D02*
X14914286Y-45280533D01*
X28190475Y-31654819D02*
X28190475Y-32464342D01*
X28190475Y-32464342D02*
X28238094Y-32559580D01*
X28238094Y-32559580D02*
X28285713Y-32607200D01*
X28285713Y-32607200D02*
X28380951Y-32654819D01*
X28380951Y-32654819D02*
X28571427Y-32654819D01*
X28571427Y-32654819D02*
X28666665Y-32607200D01*
X28666665Y-32607200D02*
X28714284Y-32559580D01*
X28714284Y-32559580D02*
X28761903Y-32464342D01*
X28761903Y-32464342D02*
X28761903Y-31654819D01*
X29571427Y-32131009D02*
X29238094Y-32131009D01*
X29238094Y-32654819D02*
X29238094Y-31654819D01*
X29238094Y-31654819D02*
X29714284Y-31654819D01*
X30095237Y-32654819D02*
X30095237Y-31654819D01*
X31666665Y-32131009D02*
X31333332Y-32131009D01*
X31333332Y-32654819D02*
X31333332Y-31654819D01*
X31333332Y-31654819D02*
X31809522Y-31654819D01*
X32333332Y-32654819D02*
X32238094Y-32607200D01*
X32238094Y-32607200D02*
X32190475Y-32511961D01*
X32190475Y-32511961D02*
X32190475Y-31654819D01*
X33142856Y-31988152D02*
X33142856Y-32654819D01*
X32714285Y-31988152D02*
X32714285Y-32511961D01*
X32714285Y-32511961D02*
X32761904Y-32607200D01*
X32761904Y-32607200D02*
X32857142Y-32654819D01*
X32857142Y-32654819D02*
X32999999Y-32654819D01*
X32999999Y-32654819D02*
X33095237Y-32607200D01*
X33095237Y-32607200D02*
X33142856Y-32559580D01*
X33523809Y-32654819D02*
X34047618Y-31988152D01*
X33523809Y-31988152D02*
X34047618Y-32654819D01*
X35142857Y-32369104D02*
X35619047Y-32369104D01*
X35047619Y-32654819D02*
X35380952Y-31654819D01*
X35380952Y-31654819D02*
X35714285Y-32654819D01*
X36476190Y-32654819D02*
X36476190Y-31654819D01*
X36476190Y-32607200D02*
X36380952Y-32654819D01*
X36380952Y-32654819D02*
X36190476Y-32654819D01*
X36190476Y-32654819D02*
X36095238Y-32607200D01*
X36095238Y-32607200D02*
X36047619Y-32559580D01*
X36047619Y-32559580D02*
X36000000Y-32464342D01*
X36000000Y-32464342D02*
X36000000Y-32178628D01*
X36000000Y-32178628D02*
X36047619Y-32083390D01*
X36047619Y-32083390D02*
X36095238Y-32035771D01*
X36095238Y-32035771D02*
X36190476Y-31988152D01*
X36190476Y-31988152D02*
X36380952Y-31988152D01*
X36380952Y-31988152D02*
X36476190Y-32035771D01*
X37380952Y-32654819D02*
X37380952Y-32131009D01*
X37380952Y-32131009D02*
X37333333Y-32035771D01*
X37333333Y-32035771D02*
X37238095Y-31988152D01*
X37238095Y-31988152D02*
X37047619Y-31988152D01*
X37047619Y-31988152D02*
X36952381Y-32035771D01*
X37380952Y-32607200D02*
X37285714Y-32654819D01*
X37285714Y-32654819D02*
X37047619Y-32654819D01*
X37047619Y-32654819D02*
X36952381Y-32607200D01*
X36952381Y-32607200D02*
X36904762Y-32511961D01*
X36904762Y-32511961D02*
X36904762Y-32416723D01*
X36904762Y-32416723D02*
X36952381Y-32321485D01*
X36952381Y-32321485D02*
X37047619Y-32273866D01*
X37047619Y-32273866D02*
X37285714Y-32273866D01*
X37285714Y-32273866D02*
X37380952Y-32226247D01*
X37857143Y-31988152D02*
X37857143Y-32988152D01*
X37857143Y-32035771D02*
X37952381Y-31988152D01*
X37952381Y-31988152D02*
X38142857Y-31988152D01*
X38142857Y-31988152D02*
X38238095Y-32035771D01*
X38238095Y-32035771D02*
X38285714Y-32083390D01*
X38285714Y-32083390D02*
X38333333Y-32178628D01*
X38333333Y-32178628D02*
X38333333Y-32464342D01*
X38333333Y-32464342D02*
X38285714Y-32559580D01*
X38285714Y-32559580D02*
X38238095Y-32607200D01*
X38238095Y-32607200D02*
X38142857Y-32654819D01*
X38142857Y-32654819D02*
X37952381Y-32654819D01*
X37952381Y-32654819D02*
X37857143Y-32607200D01*
X38619048Y-31988152D02*
X39000000Y-31988152D01*
X38761905Y-31654819D02*
X38761905Y-32511961D01*
X38761905Y-32511961D02*
X38809524Y-32607200D01*
X38809524Y-32607200D02*
X38904762Y-32654819D01*
X38904762Y-32654819D02*
X39000000Y-32654819D01*
X39714286Y-32607200D02*
X39619048Y-32654819D01*
X39619048Y-32654819D02*
X39428572Y-32654819D01*
X39428572Y-32654819D02*
X39333334Y-32607200D01*
X39333334Y-32607200D02*
X39285715Y-32511961D01*
X39285715Y-32511961D02*
X39285715Y-32131009D01*
X39285715Y-32131009D02*
X39333334Y-32035771D01*
X39333334Y-32035771D02*
X39428572Y-31988152D01*
X39428572Y-31988152D02*
X39619048Y-31988152D01*
X39619048Y-31988152D02*
X39714286Y-32035771D01*
X39714286Y-32035771D02*
X39761905Y-32131009D01*
X39761905Y-32131009D02*
X39761905Y-32226247D01*
X39761905Y-32226247D02*
X39285715Y-32321485D01*
X40190477Y-32654819D02*
X40190477Y-31988152D01*
X40190477Y-32178628D02*
X40238096Y-32083390D01*
X40238096Y-32083390D02*
X40285715Y-32035771D01*
X40285715Y-32035771D02*
X40380953Y-31988152D01*
X40380953Y-31988152D02*
X40476191Y-31988152D01*
X41904763Y-32131009D02*
X41571430Y-32131009D01*
X41571430Y-32654819D02*
X41571430Y-31654819D01*
X41571430Y-31654819D02*
X42047620Y-31654819D01*
X42952382Y-32654819D02*
X42380954Y-32654819D01*
X42666668Y-32654819D02*
X42666668Y-31654819D01*
X42666668Y-31654819D02*
X42571430Y-31797676D01*
X42571430Y-31797676D02*
X42476192Y-31892914D01*
X42476192Y-31892914D02*
X42380954Y-31940533D01*
X44047621Y-31988152D02*
X44285716Y-32654819D01*
X44285716Y-32654819D02*
X44523811Y-31988152D01*
X45428573Y-32654819D02*
X44857145Y-32654819D01*
X45142859Y-32654819D02*
X45142859Y-31654819D01*
X45142859Y-31654819D02*
X45047621Y-31797676D01*
X45047621Y-31797676D02*
X44952383Y-31892914D01*
X44952383Y-31892914D02*
X44857145Y-31940533D01*
X45857145Y-32559580D02*
X45904764Y-32607200D01*
X45904764Y-32607200D02*
X45857145Y-32654819D01*
X45857145Y-32654819D02*
X45809526Y-32607200D01*
X45809526Y-32607200D02*
X45857145Y-32559580D01*
X45857145Y-32559580D02*
X45857145Y-32654819D01*
X46523811Y-31654819D02*
X46619049Y-31654819D01*
X46619049Y-31654819D02*
X46714287Y-31702438D01*
X46714287Y-31702438D02*
X46761906Y-31750057D01*
X46761906Y-31750057D02*
X46809525Y-31845295D01*
X46809525Y-31845295D02*
X46857144Y-32035771D01*
X46857144Y-32035771D02*
X46857144Y-32273866D01*
X46857144Y-32273866D02*
X46809525Y-32464342D01*
X46809525Y-32464342D02*
X46761906Y-32559580D01*
X46761906Y-32559580D02*
X46714287Y-32607200D01*
X46714287Y-32607200D02*
X46619049Y-32654819D01*
X46619049Y-32654819D02*
X46523811Y-32654819D01*
X46523811Y-32654819D02*
X46428573Y-32607200D01*
X46428573Y-32607200D02*
X46380954Y-32559580D01*
X46380954Y-32559580D02*
X46333335Y-32464342D01*
X46333335Y-32464342D02*
X46285716Y-32273866D01*
X46285716Y-32273866D02*
X46285716Y-32035771D01*
X46285716Y-32035771D02*
X46333335Y-31845295D01*
X46333335Y-31845295D02*
X46380954Y-31750057D01*
X46380954Y-31750057D02*
X46428573Y-31702438D01*
X46428573Y-31702438D02*
X46523811Y-31654819D01*
X6457143Y-19147342D02*
X5542857Y-19490200D01*
X5542857Y-19490200D02*
X6457143Y-19833057D01*
X10354819Y-44603333D02*
X11069104Y-44603333D01*
X11069104Y-44603333D02*
X11211961Y-44650952D01*
X11211961Y-44650952D02*
X11307200Y-44746190D01*
X11307200Y-44746190D02*
X11354819Y-44889047D01*
X11354819Y-44889047D02*
X11354819Y-44984285D01*
X10354819Y-44222380D02*
X10354819Y-43603333D01*
X10354819Y-43603333D02*
X10735771Y-43936666D01*
X10735771Y-43936666D02*
X10735771Y-43793809D01*
X10735771Y-43793809D02*
X10783390Y-43698571D01*
X10783390Y-43698571D02*
X10831009Y-43650952D01*
X10831009Y-43650952D02*
X10926247Y-43603333D01*
X10926247Y-43603333D02*
X11164342Y-43603333D01*
X11164342Y-43603333D02*
X11259580Y-43650952D01*
X11259580Y-43650952D02*
X11307200Y-43698571D01*
X11307200Y-43698571D02*
X11354819Y-43793809D01*
X11354819Y-43793809D02*
X11354819Y-44079523D01*
X11354819Y-44079523D02*
X11307200Y-44174761D01*
X11307200Y-44174761D02*
X11259580Y-44222380D01*
X60484819Y-25573333D02*
X61199104Y-25573333D01*
X61199104Y-25573333D02*
X61341961Y-25620952D01*
X61341961Y-25620952D02*
X61437200Y-25716190D01*
X61437200Y-25716190D02*
X61484819Y-25859047D01*
X61484819Y-25859047D02*
X61484819Y-25954285D01*
X60580057Y-25144761D02*
X60532438Y-25097142D01*
X60532438Y-25097142D02*
X60484819Y-25001904D01*
X60484819Y-25001904D02*
X60484819Y-24763809D01*
X60484819Y-24763809D02*
X60532438Y-24668571D01*
X60532438Y-24668571D02*
X60580057Y-24620952D01*
X60580057Y-24620952D02*
X60675295Y-24573333D01*
X60675295Y-24573333D02*
X60770533Y-24573333D01*
X60770533Y-24573333D02*
X60913390Y-24620952D01*
X60913390Y-24620952D02*
X61484819Y-25192380D01*
X61484819Y-25192380D02*
X61484819Y-24573333D01*
X60484819Y-10333333D02*
X61199104Y-10333333D01*
X61199104Y-10333333D02*
X61341961Y-10380952D01*
X61341961Y-10380952D02*
X61437200Y-10476190D01*
X61437200Y-10476190D02*
X61484819Y-10619047D01*
X61484819Y-10619047D02*
X61484819Y-10714285D01*
X61484819Y-9333333D02*
X61484819Y-9904761D01*
X61484819Y-9619047D02*
X60484819Y-9619047D01*
X60484819Y-9619047D02*
X60627676Y-9714285D01*
X60627676Y-9714285D02*
X60722914Y-9809523D01*
X60722914Y-9809523D02*
X60770533Y-9904761D01*
%TO.C,J3*%
D11*
X11790000Y-39710000D02*
X62850000Y-39710000D01*
X11790000Y-48830000D02*
X11790000Y-39710000D01*
X13090000Y-41020000D02*
X61550000Y-41020000D01*
X13090000Y-47520000D02*
X13090000Y-41020000D01*
X16500000Y-50220000D02*
X17500000Y-50220000D01*
X17000000Y-49220000D02*
X16500000Y-50220000D01*
X17500000Y-50220000D02*
X17000000Y-49220000D01*
X35270000Y-47520000D02*
X13090000Y-47520000D01*
X35270000Y-48830000D02*
X35270000Y-47520000D01*
X39370000Y-47520000D02*
X39370000Y-48830000D01*
X61550000Y-41020000D02*
X61550000Y-47520000D01*
X61550000Y-47520000D02*
X39370000Y-47520000D01*
X62850000Y-39710000D02*
X62850000Y-48830000D01*
X62850000Y-48830000D02*
X11790000Y-48830000D01*
%TO.C,J2*%
X8670000Y-23910000D02*
X8670000Y-26570000D01*
X56990000Y-23910000D02*
X8670000Y-23910000D01*
X56990000Y-23910000D02*
X56990000Y-26570000D01*
X56990000Y-26570000D02*
X8670000Y-26570000D01*
X59590000Y-25240000D02*
X59590000Y-26570000D01*
X59590000Y-26570000D02*
X58260000Y-26570000D01*
%TO.C,J1*%
X8670000Y-8670000D02*
X8670000Y-11330000D01*
X56990000Y-8670000D02*
X8670000Y-8670000D01*
X56990000Y-8670000D02*
X56990000Y-11330000D01*
X56990000Y-11330000D02*
X8670000Y-11330000D01*
X59590000Y-10000000D02*
X59590000Y-11330000D01*
X59590000Y-11330000D02*
X58260000Y-11330000D01*
%TD*%
%LPC*%
D12*
%TO.C,H4*%
X71000000Y-50000000D03*
%TD*%
%TO.C,H2*%
X71000000Y-4000000D03*
%TD*%
D13*
%TO.C,J3*%
X17000000Y-45540000D03*
D14*
X17000000Y-43000000D03*
X19540000Y-45540000D03*
X19540000Y-43000000D03*
X22080000Y-45540000D03*
X22080000Y-43000000D03*
X24620000Y-45540000D03*
X24620000Y-43000000D03*
X27160000Y-45540000D03*
X27160000Y-43000000D03*
X29700000Y-45540000D03*
X29700000Y-43000000D03*
X32240000Y-45540000D03*
X32240000Y-43000000D03*
X34780000Y-45540000D03*
X34780000Y-43000000D03*
X37320000Y-45540000D03*
X37320000Y-43000000D03*
X39860000Y-45540000D03*
X39860000Y-43000000D03*
X42400000Y-45540000D03*
X42400000Y-43000000D03*
X44940000Y-45540000D03*
X44940000Y-43000000D03*
X47480000Y-45540000D03*
X47480000Y-43000000D03*
X50020000Y-45540000D03*
X50020000Y-43000000D03*
X52560000Y-45540000D03*
X52560000Y-43000000D03*
X55100000Y-45540000D03*
X55100000Y-43000000D03*
X57640000Y-45540000D03*
X57640000Y-43000000D03*
%TD*%
D12*
%TO.C,H3*%
X4000000Y-50000000D03*
%TD*%
%TO.C,H1*%
X4000000Y-4000000D03*
%TD*%
D15*
%TO.C,J2*%
X58260000Y-25240000D03*
D14*
X55720000Y-25240000D03*
X53180000Y-25240000D03*
X50640000Y-25240000D03*
X48100000Y-25240000D03*
X45560000Y-25240000D03*
X43020000Y-25240000D03*
X40480000Y-25240000D03*
X37940000Y-25240000D03*
X35400000Y-25240000D03*
X32860000Y-25240000D03*
X30320000Y-25240000D03*
X27780000Y-25240000D03*
X25240000Y-25240000D03*
X22700000Y-25240000D03*
X20160000Y-25240000D03*
X17620000Y-25240000D03*
X15080000Y-25240000D03*
X12540000Y-25240000D03*
X10000000Y-25240000D03*
%TD*%
D15*
%TO.C,J1*%
X58260000Y-10000000D03*
D14*
X55720000Y-10000000D03*
X53180000Y-10000000D03*
X50640000Y-10000000D03*
X48100000Y-10000000D03*
X45560000Y-10000000D03*
X43020000Y-10000000D03*
X40480000Y-10000000D03*
X37940000Y-10000000D03*
X35400000Y-10000000D03*
X32860000Y-10000000D03*
X30320000Y-10000000D03*
X27780000Y-10000000D03*
X25240000Y-10000000D03*
X22700000Y-10000000D03*
X20160000Y-10000000D03*
X17620000Y-10000000D03*
X15080000Y-10000000D03*
X12540000Y-10000000D03*
X10000000Y-10000000D03*
%TD*%
%LPD*%
M02*
